<?xml version="1.0" standalone="no"?>
<!DOCTYPE svg PUBLIC "-//W3C//DTD SVG 1.1//EN" "http://www.w3.org/Graphics/SVG/1.1/DTD/svg11.dtd" >
<svg xmlns="http://www.w3.org/2000/svg" xmlns:xlink="http://www.w3.org/1999/xlink" version="1.1">
<metadata>
Created by FontForge 20190801 at Fri Sep  7 15:56:34 2018
 By Jimmy Wärting
Copyright 2018 The K2D Project Authors (https://github.com/cadsondemak/K2D)
</metadata>
<defs>
<font id="K2D-ThinItalic" horiz-adv-x="0" >
  <font-face 
    font-family="K2D Thin"
    font-weight="100"
    font-style="italic"
    font-stretch="normal"
    units-per-em="1000"
    panose-1="0 0 2 0 0 0 0 0 0 0"
    ascent="800"
    descent="-200"
    x-height="500"
    cap-height="709"
    bbox="-537 -476 1121 1200"
    underline-thickness="50"
    underline-position="-100"
    slope="-10"
    unicode-range="U+000D-FB02"
  />
<missing-glyph horiz-adv-x="737" 
d="M181 750h550l-132 -750h-550zM558 52l114 647h-450l-114 -647h450z" />
    <glyph glyph-name="fi" unicode="fi" horiz-adv-x="568" 
d="M168 466h-86q4 21 18.5 32.5t36.5 11.5h39l11 62q11 65 56.5 101t115.5 36q28 0 48.5 -12.5t20.5 -29.5q0 -10 -7 -22q-14 10 -34.5 16t-40.5 6q-46 0 -75.5 -26t-37.5 -73l-10 -58h287l-83 -469q-9 -50 -55 -50l84 475h-241l-75 -425q-9 -50 -56 -50zM478 626
q-11 11 -11 27q0 22 17 39t38 17q17 0 28 -11t11 -28q0 -22 -17 -38.5t-39 -16.5q-16 0 -27 11z" />
    <glyph glyph-name="fl" unicode="fl" horiz-adv-x="652" 
d="M168 466h-86q4 21 18.5 32.5t36.5 11.5h39l9 52q11 65 64 106t127 41q52 0 96 -16.5t65 -44.5l-94 -532q-3 -16 -3 -29q0 -28 15 -41t49 -13q30 0 64 18q1 -2 1 -10q0 -22 -21 -36t-53 -14q-49 0 -75 23.5t-26 68.5q0 14 3 32l62 351h-244l-75 -425q-9 -50 -56 -50z
M467 510l21 123q-24 19 -51 26t-73 7q-54 0 -89 -28.5t-44 -79.5l-8 -48h244z" />
    <glyph glyph-name="uni0E240E45" unicode="&#xe24;&#xe45;" horiz-adv-x="859" 
d="M467 400q2 9 2 26q0 54 -38.5 88t-99.5 34q-66 0 -124.5 -40.5t-82.5 -103.5l43 -104q3 -7 3 -14l-1 -10l-20 -114q-18 -11 -27 -23l2 -1q13 13 31.5 21t36.5 8q31 0 51.5 -20t20.5 -51q0 -26 -15 -50.5t-39.5 -39.5t-51.5 -15q-33 0 -53.5 20.5t-20.5 52.5q0 6 2 18
l36 205l-45 108v4q0 11 3 17q36 80 107 128.5t152 48.5q111 0 162 -95q-9 -16 -15 -30l4 -2q32 59 84 93t110 34q67 0 102 -34t35 -97q0 -24 -4 -47l-105 -593q-5 -24 -22 -41.5t-36 -17.5l115 652q4 21 4 43q0 46 -23.5 68t-72.5 22q-36 0 -71 -20t-59 -53.5t-31 -73.5
l-102 -579q-4 -25 -21.5 -42t-37.5 -17zM207 47q18 18 18 42q0 18 -12 29.5t-31 11.5q-24 0 -41.5 -18t-17.5 -42q0 -19 11.5 -30t30.5 -11q24 0 42 18z" />
    <glyph glyph-name="uni0E260E45" unicode="&#xe26;&#xe45;" horiz-adv-x="915" 
d="M487.5 568q45.5 -25 69.5 -70q-7 -12 -15 -30l4 -2q32 59 84 93t110 34q66 0 101.5 -34.5t35.5 -97.5q0 -25 -4 -46l-104 -593q-4 -25 -21.5 -42t-37.5 -17l115 652q4 21 4 44q0 46 -23.5 67.5t-71.5 21.5q-37 0 -71.5 -20t-59 -54t-31.5 -73l-102 -579
q-5 -24 -22.5 -41.5t-37.5 -17.5l113 637q2 14 2 21q0 35 -19 64t-53 46t-76 17q-69 0 -131 -40.5t-86 -101.5l60 -99q6 -8 3 -20l-36 -205q-7 -39 -36.5 -65t-67.5 -26q-32 0 -53.5 21t-21.5 53q0 40 31.5 71t71.5 31q37 0 58 -29l2 1q-12 18 -19 23l21 121l-64 107
q-1 1 -1 6q0 7 3 14q35 80 111.5 131.5t162.5 51.5q57 0 102.5 -25zM129.5 49q16.5 17 16.5 40q0 17 -11 27.5t-28 10.5q-23 0 -40.5 -17t-17.5 -40q0 -17 11.5 -27.5t29.5 -10.5q23 0 39.5 17z" />
    <glyph glyph-name=".notdef" horiz-adv-x="737" 
d="M181 750h550l-132 -750h-550zM558 52l114 647h-450l-114 -647h450z" />
    <glyph glyph-name="NULL" 
 />
    <glyph glyph-name="NULL" 
 />
    <glyph glyph-name="nonmarkingreturn" unicode="&#xd;" horiz-adv-x="258" 
 />
    <glyph glyph-name="space" unicode=" " horiz-adv-x="258" 
 />
    <glyph glyph-name="A" unicode="A" horiz-adv-x="665" 
d="M24 11.5q-7 12.5 -7 25.5q0 12 6 22l363 635q9 15 27 15q7 0 13 -4.5t8 -10.5l138 -634q1 -3 1 -9q0 -18 -10.5 -35t-28.5 -25l-45 231h-315l-130 -231q-13 8 -20 20.5zM478 269l-82 382l-3 -2l5 -28l-199 -352h279z" />
    <glyph glyph-name="Aacute" unicode="&#xc1;" horiz-adv-x="665" 
d="M24 11.5q-7 12.5 -7 25.5q0 12 6 22l363 635q9 15 27 15q7 0 13 -4.5t8 -10.5l138 -634q1 -3 1 -9q0 -18 -10.5 -35t-28.5 -25l-45 231h-315l-130 -231q-13 8 -20 20.5zM478 269l-82 382l-3 -2l5 -28l-199 -352h279zM496 903q9 12 22 18t41 6h28l-135 -140
q-9 -9 -17.5 -12t-34.5 -3z" />
    <glyph glyph-name="Abreve" unicode="&#x102;" horiz-adv-x="665" 
d="M24 11.5q-7 12.5 -7 25.5q0 12 6 22l363 635q9 15 27 15q7 0 13 -4.5t8 -10.5l138 -634q1 -3 1 -9q0 -18 -10.5 -35t-28.5 -25l-45 231h-315l-130 -231q-13 8 -20 20.5zM478 269l-82 382l-3 -2l5 -28l-199 -352h279zM368 784q-28 12 -46.5 35.5t-18.5 55.5q0 30 14 45.5
t38 15.5q-3 -19 -3 -37q0 -82 81 -82q101 0 121 119q18 0 27.5 -9t9.5 -23q0 -32 -24.5 -62.5t-63 -50t-78.5 -19.5q-29 0 -57 12z" />
    <glyph glyph-name="uni1EAE" unicode="&#x1eae;" horiz-adv-x="665" 
d="M24 11.5q-7 12.5 -7 25.5q0 12 6 22l363 635q9 15 27 15q7 0 13 -4.5t8 -10.5l138 -634q1 -3 1 -9q0 -18 -10.5 -35t-28.5 -25l-45 231h-315l-130 -231q-13 8 -20 20.5zM478 269l-82 382l-3 -2l5 -28l-199 -352h279zM496 1001q10 13 23.5 19t37.5 6h20l-105 -105
q-10 -10 -18.5 -12.5t-29.5 -3.5zM348.5 792.5q-33.5 23.5 -33.5 65.5q0 26 12.5 40t33.5 14q-3 -18 -3 -32q0 -72 73 -72q45 0 70.5 25t35.5 79q16 0 24 -8t8 -21q0 -28 -21 -54.5t-54.5 -43t-69.5 -16.5q-42 0 -75.5 23.5z" />
    <glyph glyph-name="uni1EB6" unicode="&#x1eb6;" horiz-adv-x="665" 
d="M24 11.5q-7 12.5 -7 25.5q0 12 6 22l363 635q9 15 27 15q7 0 13 -4.5t8 -10.5l138 -634q1 -3 1 -9q0 -18 -10.5 -35t-28.5 -25l-45 231h-315l-130 -231q-13 8 -20 20.5zM478 269l-82 382l-3 -2l5 -28l-199 -352h279zM236 -151.5q-9 8.5 -9 22.5q0 20 14 34t34 14
q15 0 23.5 -9t8.5 -23q0 -19 -13.5 -33t-32.5 -14q-16 0 -25 8.5zM368 784q-28 12 -46.5 35.5t-18.5 55.5q0 30 14 45.5t38 15.5q-3 -19 -3 -37q0 -82 81 -82q101 0 121 119q18 0 27.5 -9t9.5 -23q0 -32 -24.5 -62.5t-63 -50t-78.5 -19.5q-29 0 -57 12z" />
    <glyph glyph-name="uni1EB0" unicode="&#x1eb0;" horiz-adv-x="665" 
d="M24 11.5q-7 12.5 -7 25.5q0 12 6 22l363 635q9 15 27 15q7 0 13 -4.5t8 -10.5l138 -634q1 -3 1 -9q0 -18 -10.5 -35t-28.5 -25l-45 231h-315l-130 -231q-13 8 -20 20.5zM478 269l-82 382l-3 -2l5 -28l-199 -352h279zM443.5 908q-7.5 3 -14.5 13l-69 105h20q23 0 35 -5.5
t18 -19.5l38 -96q-20 0 -27.5 3zM348.5 792.5q-33.5 23.5 -33.5 65.5q0 26 12.5 40t33.5 14q-3 -18 -3 -32q0 -72 73 -72q45 0 70.5 25t35.5 79q16 0 24 -8t8 -21q0 -28 -21 -54.5t-54.5 -43t-69.5 -16.5q-42 0 -75.5 23.5z" />
    <glyph glyph-name="uni1EB2" unicode="&#x1eb2;" horiz-adv-x="665" 
d="M24 11.5q-7 12.5 -7 25.5q0 12 6 22l363 635q9 15 27 15q7 0 13 -4.5t8 -10.5l138 -634q1 -3 1 -9q0 -18 -10.5 -35t-28.5 -25l-45 231h-315l-130 -231q-13 8 -20 20.5zM478 269l-82 382l-3 -2l5 -28l-199 -352h279zM431 897q3 16 10.5 25.5t21.5 21.5q12 10 17.5 17
t5.5 18q0 8 -8.5 13t-22.5 5q-16 0 -28 -9t-12 -28q0 -3 1 -5q-13 0 -20.5 5t-7.5 14q0 20 23 36t51 16q22 0 39 -11.5t17 -31.5t-8 -31t-24 -24q-11 -7 -17 -13.5t-8 -16.5q-3 -19 -23 -19q-7 0 -10 1zM348.5 792.5q-33.5 23.5 -33.5 65.5q0 26 12.5 40t33.5 14
q-3 -18 -3 -32q0 -72 73 -72q45 0 70.5 25t35.5 79q16 0 24 -8t8 -21q0 -28 -21 -54.5t-54.5 -43t-69.5 -16.5q-42 0 -75.5 23.5z" />
    <glyph glyph-name="uni1EB4" unicode="&#x1eb4;" horiz-adv-x="665" 
d="M24 11.5q-7 12.5 -7 25.5q0 12 6 22l363 635q9 15 27 15q7 0 13 -4.5t8 -10.5l138 -634q1 -3 1 -9q0 -18 -10.5 -35t-28.5 -25l-45 231h-315l-130 -231q-13 8 -20 20.5zM478 269l-82 382l-3 -2l5 -28l-199 -352h279zM345.5 951q-6.5 7 -6.5 17q0 24 21.5 41.5t50.5 17.5
q18 0 31 -8t31 -23q11 -11 20 -17t18 -6q16 0 25.5 9.5t9.5 24.5q0 11 -3 18q7 2 13 2q9 0 15 -7t6 -17q0 -24 -21.5 -41.5t-51.5 -17.5q-19 0 -32.5 8t-29.5 23q-11 11 -19.5 16.5t-18.5 5.5q-16 0 -25 -10t-9 -27q0 -7 3 -15q-5 -1 -12 -1q-9 0 -15.5 7zM348.5 792.5
q-33.5 23.5 -33.5 65.5q0 26 12.5 40t33.5 14q-3 -18 -3 -32q0 -72 73 -72q45 0 70.5 25t35.5 79q16 0 24 -8t8 -21q0 -28 -21 -54.5t-54.5 -43t-69.5 -16.5q-42 0 -75.5 23.5z" />
    <glyph glyph-name="uni01CD" unicode="&#x1cd;" horiz-adv-x="665" 
d="M24 11.5q-7 12.5 -7 25.5q0 12 6 22l363 635q9 15 27 15q7 0 13 -4.5t8 -10.5l138 -634q1 -3 1 -9q0 -18 -10.5 -35t-28.5 -25l-45 231h-315l-130 -231q-13 8 -20 20.5zM478 269l-82 382l-3 -2l5 -28l-199 -352h279zM533 915q12 12 31 12q16 0 29 -10l-151 -134
q-7 -7 -17 -7t-15 7l-103 134q16 10 33 10q18 0 27 -12l66 -96z" />
    <glyph glyph-name="Acircumflex" unicode="&#xc2;" horiz-adv-x="665" 
d="M24 11.5q-7 12.5 -7 25.5q0 12 6 22l363 635q9 15 27 15q7 0 13 -4.5t8 -10.5l138 -634q1 -3 1 -9q0 -18 -10.5 -35t-28.5 -25l-45 231h-315l-130 -231q-13 8 -20 20.5zM478 269l-82 382l-3 -2l5 -28l-199 -352h279zM314 777q-18 0 -29 10l151 133q7 7 17 7q9 0 14 -7
l104 -133q-17 -11 -33 -11q-20 0 -27 12l-66 96l-100 -96q-11 -11 -31 -11z" />
    <glyph glyph-name="uni1EA4" unicode="&#x1ea4;" horiz-adv-x="665" 
d="M24 11.5q-7 12.5 -7 25.5q0 12 6 22l363 635q9 15 27 15q7 0 13 -4.5t8 -10.5l138 -634q1 -3 1 -9q0 -18 -10.5 -35t-28.5 -25l-45 231h-315l-130 -231q-13 8 -20 20.5zM478 269l-82 382l-3 -2l5 -28l-199 -352h279zM592 1002q10 13 23.5 19t37.5 6h20l-106 -105
q-10 -9 -19.5 -12t-28.5 -4zM343 788q-11 -11 -29 -11t-31 10l152 133q7 7 17 7q9 0 14 -7l104 -133q-14 -10 -34 -10q-19 0 -26 11l-66 96z" />
    <glyph glyph-name="uni1EAC" unicode="&#x1eac;" horiz-adv-x="665" 
d="M24 11.5q-7 12.5 -7 25.5q0 12 6 22l363 635q9 15 27 15q7 0 13 -4.5t8 -10.5l138 -634q1 -3 1 -9q0 -18 -10.5 -35t-28.5 -25l-45 231h-315l-130 -231q-13 8 -20 20.5zM478 269l-82 382l-3 -2l5 -28l-199 -352h279zM236 -151.5q-9 8.5 -9 22.5q0 20 14 34t34 14
q15 0 23.5 -9t8.5 -23q0 -19 -13.5 -33t-32.5 -14q-16 0 -25 8.5zM314 777q-18 0 -29 10l151 133q7 7 17 7q9 0 14 -7l104 -133q-17 -11 -33 -11q-20 0 -27 12l-66 96l-100 -96q-11 -11 -31 -11z" />
    <glyph glyph-name="uni1EA6" unicode="&#x1ea6;" horiz-adv-x="665" 
d="M24 11.5q-7 12.5 -7 25.5q0 12 6 22l363 635q9 15 27 15q7 0 13 -4.5t8 -10.5l138 -634q1 -3 1 -9q0 -18 -10.5 -35t-28.5 -25l-45 231h-315l-130 -231q-13 8 -20 20.5zM478 269l-82 382l-3 -2l5 -28l-199 -352h279zM558.5 909.5q-7.5 2.5 -14.5 12.5l-69 105h20
q22 0 34.5 -5.5t18.5 -19.5l38 -96q-20 1 -27.5 3.5zM344 788q-11 -11 -29 -11t-31 10l151 133q7 7 17 7q9 0 14 -7l104 -133q-14 -10 -34 -10q-19 0 -26 11l-66 96z" />
    <glyph glyph-name="uni1EA8" unicode="&#x1ea8;" horiz-adv-x="665" 
d="M24 11.5q-7 12.5 -7 25.5q0 12 6 22l363 635q9 15 27 15q7 0 13 -4.5t8 -10.5l138 -634q1 -3 1 -9q0 -18 -10.5 -35t-28.5 -25l-45 231h-315l-130 -231q-13 8 -20 20.5zM478 269l-82 382l-3 -2l5 -28l-199 -352h279zM539 894q3 16 11 26t21 21q11 9 16.5 16.5t5.5 18.5
q0 9 -8 14t-21 5q-17 0 -29 -9.5t-12 -27.5v-5q-13 0 -20.5 5t-7.5 14q0 19 23.5 35t51.5 16q21 0 38 -11t17 -32q0 -20 -8 -31t-24 -22q-12 -10 -17.5 -16t-7.5 -16q-3 -18 -20 -18q-8 0 -12 1zM344 788q-11 -11 -29 -11t-31 10l151 133q7 7 17 7q9 0 14 -7l104 -133
q-14 -10 -34 -10q-19 0 -26 11l-66 96z" />
    <glyph glyph-name="uni1EAA" unicode="&#x1eaa;" horiz-adv-x="665" 
d="M24 11.5q-7 12.5 -7 25.5q0 12 6 22l363 635q9 15 27 15q7 0 13 -4.5t8 -10.5l138 -634q1 -3 1 -9q0 -18 -10.5 -35t-28.5 -25l-45 231h-315l-130 -231q-13 8 -20 20.5zM478 269l-82 382l-3 -2l5 -28l-199 -352h279zM350.5 950q-6.5 7 -6.5 17q0 24 21.5 42t50.5 18
q19 0 32 -7.5t30 -22.5q12 -11 20.5 -16.5t18.5 -5.5q16 0 25 8.5t9 24.5q0 10 -3 17q8 2 13 2q9 0 15 -7t6 -16q0 -25 -21 -41.5t-51 -16.5q-19 0 -32.5 7.5t-30.5 22.5q-12 11 -20 16t-18 5q-16 0 -25 -10t-9 -27q0 -8 3 -16q-5 -1 -11 -1q-10 0 -16.5 7zM315 777
q-18 0 -31 10l151 133q7 7 17 7q9 0 14 -7l104 -133q-14 -10 -34 -10q-19 0 -26 11l-66 96l-100 -96q-11 -11 -29 -11z" />
    <glyph glyph-name="Adieresis" unicode="&#xc4;" horiz-adv-x="665" 
d="M24 11.5q-7 12.5 -7 25.5q0 12 6 22l363 635q9 15 27 15q7 0 13 -4.5t8 -10.5l138 -634q1 -3 1 -9q0 -18 -10.5 -35t-28.5 -25l-45 231h-315l-130 -231q-13 8 -20 20.5zM478 269l-82 382l-3 -2l5 -28l-199 -352h279zM315 798.5q-9 8.5 -9 22.5q0 20 14 34t34 14
q15 0 23.5 -9t8.5 -23q0 -19 -13.5 -33t-32.5 -14q-16 0 -25 8.5zM492 798.5q-9 8.5 -9 22.5q0 20 14 34t34 14q15 0 23.5 -9t8.5 -23q0 -19 -13.5 -33t-32.5 -14q-16 0 -25 8.5z" />
    <glyph glyph-name="uni1EA0" unicode="&#x1ea0;" horiz-adv-x="665" 
d="M24 11.5q-7 12.5 -7 25.5q0 12 6 22l363 635q9 15 27 15q7 0 13 -4.5t8 -10.5l138 -634q1 -3 1 -9q0 -18 -10.5 -35t-28.5 -25l-45 231h-315l-130 -231q-13 8 -20 20.5zM478 269l-82 382l-3 -2l5 -28l-199 -352h279zM236 -151.5q-9 8.5 -9 22.5q0 20 14 34t34 14
q15 0 23.5 -9t8.5 -23q0 -19 -13.5 -33t-32.5 -14q-16 0 -25 8.5z" />
    <glyph glyph-name="Agrave" unicode="&#xc0;" horiz-adv-x="665" 
d="M24 11.5q-7 12.5 -7 25.5q0 12 6 22l363 635q9 15 27 15q7 0 13 -4.5t8 -10.5l138 -634q1 -3 1 -9q0 -18 -10.5 -35t-28.5 -25l-45 231h-315l-130 -231q-13 8 -20 20.5zM478 269l-82 382l-3 -2l5 -28l-199 -352h279zM424.5 775q-7.5 3 -13.5 12l-88 141h28q23 0 36 -5
t19 -19l51 -132q-25 0 -32.5 3z" />
    <glyph glyph-name="uni1EA2" unicode="&#x1ea2;" horiz-adv-x="665" 
d="M24 11.5q-7 12.5 -7 25.5q0 12 6 22l363 635q9 15 27 15q7 0 13 -4.5t8 -10.5l138 -634q1 -3 1 -9q0 -18 -10.5 -35t-28.5 -25l-45 231h-315l-130 -231q-13 8 -20 20.5zM478 269l-82 382l-3 -2l5 -28l-199 -352h279zM411 797q4 19 13.5 31t25.5 25q15 12 22 21t7 24
q0 11 -7.5 17t-22.5 6q-20 0 -33 -14t-13 -36v-5q-17 0 -26.5 6.5t-9.5 18.5q0 25 28 45.5t62 20.5q27 0 46 -14t19 -39q0 -26 -10 -39t-30 -28q-15 -11 -22.5 -19t-9.5 -21q-4 -22 -27 -22q-4 0 -16 2z" />
    <glyph glyph-name="Amacron" unicode="&#x100;" horiz-adv-x="665" 
d="M24 11.5q-7 12.5 -7 25.5q0 12 6 22l363 635q9 15 27 15q7 0 13 -4.5t8 -10.5l138 -634q1 -3 1 -9q0 -18 -10.5 -35t-28.5 -25l-45 231h-315l-130 -231q-13 8 -20 20.5zM478 269l-82 382l-3 -2l5 -28l-199 -352h279zM307.5 832.5q15.5 11.5 37.5 11.5h236
q-4 -21 -19.5 -32.5t-38.5 -11.5h-235q4 21 19.5 32.5z" />
    <glyph glyph-name="Aogonek" unicode="&#x104;" horiz-adv-x="665" 
d="M573 50q0 -13 -5.5 -25.5t-15.5 -21.5l-0.5 -0.5l-0.5 -0.5q-2 -2 -15 -10q-37 -27 -58.5 -61t-21.5 -63q0 -34 34 -34q24 0 39 18q2 -9 1 -12q-4 -12 -21.5 -23t-38.5 -11q-29 0 -45.5 16t-16.5 41q0 35 35.5 75t88.5 63l-43 221h-315l-130 -231q-13 8 -20 20.5t-7 25.5
q0 12 6 22l363 635q9 15 27 15q7 0 13 -4.5t8 -10.5l138 -634q1 -3 1 -10zM478 269l-82 382l-3 -2l5 -28l-199 -352h279z" />
    <glyph glyph-name="Aring" unicode="&#xc5;" horiz-adv-x="665" 
d="M24 11.5q-7 12.5 -7 25.5q0 12 6 22l363 635q9 15 27 15q7 0 13 -4.5t8 -10.5l138 -634q1 -3 1 -9q0 -18 -10.5 -35t-28.5 -25l-45 231h-315l-130 -231q-13 8 -20 20.5zM478 269l-82 382l-3 -2l5 -28l-199 -352h279zM363 764q-21 19 -21 50q0 43 31.5 72.5t76.5 29.5
q34 0 54.5 -19t20.5 -50q0 -43 -30.5 -72.5t-74.5 -29.5q-36 0 -57 19zM470 796q19 19 19 45q0 20 -12.5 32t-32.5 12q-26 0 -45 -19t-19 -47q0 -19 12.5 -30.5t32.5 -11.5q26 0 45 19z" />
    <glyph glyph-name="Aringacute" unicode="&#x1fa;" horiz-adv-x="665" 
d="M510 1040q7 10 17.5 15t33.5 5h22l-108 -112q-7 -8 -14 -10t-27 -2zM363 764q-21 19 -21 50q0 43 31.5 72.5t76.5 29.5q34 0 54.5 -19t20.5 -50q0 -43 -30.5 -72.5t-74.5 -29.5q-36 0 -57 19zM470 796q19 19 19 45q0 20 -12.5 32t-32.5 12q-26 0 -45 -19t-19 -47
q0 -19 12.5 -30.5t32.5 -11.5q26 0 45 19zM24 11.5q-7 12.5 -7 25.5q0 12 6 22l363 635q9 15 27 15q7 0 13 -4.5t8 -10.5l138 -634q1 -3 1 -9q0 -18 -10.5 -35t-28.5 -25l-45 231h-315l-130 -231q-13 8 -20 20.5zM478 269l-82 382l-3 -2l5 -28l-199 -352h279z" />
    <glyph glyph-name="Atilde" unicode="&#xc3;" horiz-adv-x="665" 
d="M24 11.5q-7 12.5 -7 25.5q0 12 6 22l363 635q9 15 27 15q7 0 13 -4.5t8 -10.5l138 -634q1 -3 1 -9q0 -18 -10.5 -35t-28.5 -25l-45 231h-315l-130 -231q-13 8 -20 20.5zM478 269l-82 382l-3 -2l5 -28l-199 -352h279zM306 787q-7 8 -7 19q0 28 24 48.5t58 20.5q21 0 36 -9
t34 -27q14 -13 24 -19.5t21 -6.5q18 0 28 11.5t10 31.5q0 8 -2 16q8 3 14 3q10 0 16.5 -8t6.5 -20q0 -28 -24 -48t-57 -20q-22 0 -37.5 9t-35.5 27q-14 13 -23 19t-20 6q-16 0 -27 -10.5t-11 -29.5q0 -10 3 -19q-6 -2 -14 -2q-10 0 -17 8z" />
    <glyph glyph-name="AE" unicode="&#xc6;" horiz-adv-x="895" 
d="M437 685q6 8 11 11.5t14 3.5h437q-9 -46 -58 -46h-322l-49 -278h252q-9 -47 -60 -47h-201l-49 -283h343q41 0 41 -33q0 -8 -1 -13h-414q-12 0 -17.5 7.5t-3.5 18.5l35 196h-205l-147 -231q-12 7 -19 18.5t-7 24.5q0 14 8 26zM403 269l70 395l-257 -395h187z" />
    <glyph glyph-name="AEacute" unicode="&#x1fc;" horiz-adv-x="895" 
d="M437 685q6 8 11 11.5t14 3.5h437q-9 -46 -58 -46h-322l-49 -278h252q-9 -47 -60 -47h-201l-49 -283h343q41 0 41 -33q0 -8 -1 -13h-414q-12 0 -17.5 7.5t-3.5 18.5l35 196h-205l-147 -231q-12 7 -19 18.5t-7 24.5q0 14 8 26zM403 269l70 395l-257 -395h187zM660 903
q9 12 22 18t41 6h28l-135 -140q-9 -9 -17.5 -12t-34.5 -3z" />
    <glyph glyph-name="B" unicode="B" horiz-adv-x="645" 
d="M44.5 7.5q-6.5 7.5 -4.5 18.5l114 649q1 10 10.5 17.5t20.5 7.5h288q64 0 100.5 -37.5t36.5 -103.5q0 -67 -37 -125.5t-91 -78.5v-2q99 -28 99 -126q0 -61 -27.5 -113t-73.5 -83t-101 -31h-318q-10 0 -16.5 7.5zM413 374q39 0 74 25t56 66t21 88q0 49 -26 75t-75 26h-261
l-50 -280h261zM376 46q45 0 81.5 23t57 63.5t20.5 91.5q0 49 -28.5 76t-81.5 27h-281l-49 -281h281z" />
    <glyph glyph-name="C" unicode="C" horiz-adv-x="674" 
d="M172 14.5q-53 23.5 -82 65.5t-29 98q0 20 3 39l47 268q11 65 54.5 116t110.5 79.5t147 28.5q69 0 122.5 -22.5t83.5 -63t30 -91.5q0 -31 -17 -53t-43 -25q9 38 9 61q0 43 -24.5 76.5t-68.5 52.5t-100 19q-65 0 -119 -22.5t-89.5 -63t-44.5 -92.5l-47 -268q-3 -16 -3 -31
q0 -67 52.5 -108t139.5 -41q101 0 171 45.5t89 138.5q1 4 2.5 13t1.5 15q18 -1 29 -13.5t11 -30.5q0 -56 -40 -105.5t-111.5 -79t-160.5 -29.5q-71 0 -124 23.5z" />
    <glyph glyph-name="Cacute" unicode="&#x106;" horiz-adv-x="674" 
d="M172 14.5q-53 23.5 -82 65.5t-29 98q0 20 3 39l47 268q11 65 54.5 116t110.5 79.5t147 28.5q69 0 122.5 -22.5t83.5 -63t30 -91.5q0 -31 -17 -53t-43 -25q9 38 9 61q0 43 -24.5 76.5t-68.5 52.5t-100 19q-65 0 -119 -22.5t-89.5 -63t-44.5 -92.5l-47 -268q-3 -16 -3 -31
q0 -67 52.5 -108t139.5 -41q101 0 171 45.5t89 138.5q1 4 2.5 13t1.5 15q18 -1 29 -13.5t11 -30.5q0 -56 -40 -105.5t-111.5 -79t-160.5 -29.5q-71 0 -124 23.5zM500 903q9 12 22 18t41 6h28l-135 -140q-9 -9 -17.5 -12t-34.5 -3z" />
    <glyph glyph-name="Ccaron" unicode="&#x10c;" horiz-adv-x="674" 
d="M172 14.5q-53 23.5 -82 65.5t-29 98q0 20 3 39l47 268q11 65 54.5 116t110.5 79.5t147 28.5q69 0 122.5 -22.5t83.5 -63t30 -91.5q0 -31 -17 -53t-43 -25q9 38 9 61q0 43 -24.5 76.5t-68.5 52.5t-100 19q-65 0 -119 -22.5t-89.5 -63t-44.5 -92.5l-47 -268q-3 -16 -3 -31
q0 -67 52.5 -108t139.5 -41q101 0 171 45.5t89 138.5q1 4 2.5 13t1.5 15q18 -1 29 -13.5t11 -30.5q0 -56 -40 -105.5t-111.5 -79t-160.5 -29.5q-71 0 -124 23.5zM537 915q12 12 31 12q16 0 29 -10l-151 -134q-7 -7 -17 -7t-15 7l-103 134q16 10 33 10q18 0 27 -12l66 -96z
" />
    <glyph glyph-name="Ccedilla" unicode="&#xc7;" horiz-adv-x="674" 
d="M642 479q-17 -22 -43 -25q9 38 9 61q0 43 -24.5 76.5t-68.5 52.5t-100 19q-65 0 -119 -22.5t-89.5 -63t-44.5 -92.5l-47 -268q-3 -16 -3 -31q0 -67 52.5 -108t139.5 -41q101 0 171 45.5t89 138.5q1 4 2.5 13t1.5 15q18 -1 29 -13.5t11 -30.5q0 -55 -38 -103t-106.5 -78.5
t-154.5 -32.5l-34 -39q37 0 56 -17t19 -44q0 -40 -30 -67t-75 -27q-32 0 -51.5 14t-19.5 32q0 10 10 23q10 -15 26 -24t35 -9q25 0 40 14t15 37q0 15 -11 23.5t-27 8.5q-6 0 -14.5 -1.5t-15.5 -4.5q-1 -1 -4 -1q-5 0 -9 4t-4 10q0 7 5 13l47 56q-95 7 -151 57.5t-56 128.5
q0 13 4 39l47 268q11 65 54.5 116t110.5 79.5t147 28.5q69 0 122.5 -22.5t83.5 -63t30 -91.5q0 -31 -17 -53z" />
    <glyph glyph-name="Ccircumflex" unicode="&#x108;" horiz-adv-x="674" 
d="M172 14.5q-53 23.5 -82 65.5t-29 98q0 20 3 39l47 268q11 65 54.5 116t110.5 79.5t147 28.5q69 0 122.5 -22.5t83.5 -63t30 -91.5q0 -31 -17 -53t-43 -25q9 38 9 61q0 43 -24.5 76.5t-68.5 52.5t-100 19q-65 0 -119 -22.5t-89.5 -63t-44.5 -92.5l-47 -268q-3 -16 -3 -31
q0 -67 52.5 -108t139.5 -41q101 0 171 45.5t89 138.5q1 4 2.5 13t1.5 15q18 -1 29 -13.5t11 -30.5q0 -56 -40 -105.5t-111.5 -79t-160.5 -29.5q-71 0 -124 23.5zM318 777q-18 0 -29 10l151 133q7 7 17 7q9 0 14 -7l104 -133q-17 -11 -33 -11q-20 0 -27 12l-66 96l-100 -96
q-11 -11 -31 -11z" />
    <glyph glyph-name="Cdotaccent" unicode="&#x10a;" horiz-adv-x="674" 
d="M172 14.5q-53 23.5 -82 65.5t-29 98q0 20 3 39l47 268q11 65 54.5 116t110.5 79.5t147 28.5q69 0 122.5 -22.5t83.5 -63t30 -91.5q0 -31 -17 -53t-43 -25q9 38 9 61q0 43 -24.5 76.5t-68.5 52.5t-100 19q-65 0 -119 -22.5t-89.5 -63t-44.5 -92.5l-47 -268q-3 -16 -3 -31
q0 -67 52.5 -108t139.5 -41q101 0 171 45.5t89 138.5q1 4 2.5 13t1.5 15q18 -1 29 -13.5t11 -30.5q0 -56 -40 -105.5t-111.5 -79t-160.5 -29.5q-71 0 -124 23.5zM408 798.5q-9 8.5 -9 22.5q0 20 14 34t34 14q15 0 23.5 -9t8.5 -23q0 -19 -13.5 -33t-32.5 -14q-16 0 -25 8.5z
" />
    <glyph glyph-name="D" unicode="D" horiz-adv-x="698" 
d="M44 7.5q-6 7.5 -4 18.5l114 649q1 10 10.5 17.5t20.5 7.5h248q71 0 124.5 -24t82.5 -67.5t29 -100.5q0 -22 -4 -42l-41 -229q-20 -112 -103 -174.5t-212 -62.5h-248q-11 0 -17 7.5zM308 46q112 0 181 49.5t85 141.5l40 228q4 20 4 42q0 72 -51.5 109.5t-151.5 37.5h-213
l-107 -608h213z" />
    <glyph glyph-name="Eth" unicode="&#xd0;" horiz-adv-x="743" 
d="M617.5 676q53.5 -24 82.5 -67.5t29 -100.5q0 -22 -4 -42l-41 -229q-20 -112 -103 -174.5t-212 -62.5h-248q-11 0 -17 7.5t-4 18.5l50 286h-85q5 27 19.5 38t38.5 11h36l55 314q1 10 10.5 17.5t20.5 7.5h248q71 0 124.5 -24zM678 507q0 72 -51.5 109.5t-151.5 37.5h-213
l-52 -293h209q-5 -27 -19.5 -38t-38.5 -11h-159l-47 -266h213q112 0 181 49.5t85 141.5l40 228q4 20 4 42z" />
    <glyph glyph-name="Dcaron" unicode="&#x10e;" horiz-adv-x="698" 
d="M44 7.5q-6 7.5 -4 18.5l114 649q1 10 10.5 17.5t20.5 7.5h248q71 0 124.5 -24t82.5 -67.5t29 -100.5q0 -22 -4 -42l-41 -229q-20 -112 -103 -174.5t-212 -62.5h-248q-11 0 -17 7.5zM308 46q112 0 181 49.5t85 141.5l40 228q4 20 4 42q0 72 -51.5 109.5t-151.5 37.5h-213
l-107 -608h213zM522 915q12 12 31 12q16 0 29 -10l-151 -134q-7 -7 -17 -7t-15 7l-103 134q16 10 33 10q18 0 27 -12l66 -96z" />
    <glyph glyph-name="Dcroat" unicode="&#x110;" horiz-adv-x="767" 
d="M620.5 676q53.5 -24 82.5 -67.5t29 -100.5q0 -22 -4 -42l-41 -229q-20 -112 -103 -174.5t-212 -62.5h-248q-11 0 -17 7.5t-4 18.5l50 286h-87q5 27 19.5 38t38.5 11h38l55 314q1 10 10.5 17.5t20.5 7.5h248q71 0 124.5 -24zM681 507q0 72 -51.5 109.5t-151.5 37.5h-213
l-52 -293h206q-5 -27 -19.5 -38t-38.5 -11h-156l-47 -266h213q112 0 181 49.5t85 141.5l40 228q4 20 4 42z" />
    <glyph glyph-name="uni1E0C" unicode="&#x1e0c;" horiz-adv-x="698" 
d="M44 7.5q-6 7.5 -4 18.5l114 649q1 10 10.5 17.5t20.5 7.5h248q71 0 124.5 -24t82.5 -67.5t29 -100.5q0 -22 -4 -42l-41 -229q-20 -112 -103 -174.5t-212 -62.5h-248q-11 0 -17 7.5zM308 46q112 0 181 49.5t85 141.5l40 228q4 20 4 42q0 72 -51.5 109.5t-151.5 37.5h-213
l-107 -608h213zM224 -151.5q-9 8.5 -9 22.5q0 20 14 34t34 14q15 0 23.5 -9t8.5 -23q0 -19 -13.5 -33t-32.5 -14q-16 0 -25 8.5z" />
    <glyph glyph-name="uni1E0E" unicode="&#x1e0e;" horiz-adv-x="698" 
d="M44 7.5q-6 7.5 -4 18.5l114 649q1 10 10.5 17.5t20.5 7.5h248q71 0 124.5 -24t82.5 -67.5t29 -100.5q0 -22 -4 -42l-41 -229q-20 -112 -103 -174.5t-212 -62.5h-248q-11 0 -17 7.5zM308 46q112 0 181 49.5t85 141.5l40 228q4 20 4 42q0 72 -51.5 109.5t-151.5 37.5h-213
l-107 -608h213zM135.5 -73.5q15.5 11.5 37.5 11.5h236q-4 -21 -20 -32.5t-38 -11.5h-235q4 21 19.5 32.5z" />
    <glyph glyph-name="E" unicode="E" horiz-adv-x="621" 
d="M154 675q1 10 10.5 17.5t20.5 7.5h440q-9 -46 -58 -46h-365l-49 -278h295q-9 -47 -60 -47h-244l-49 -283h386q20 0 30.5 -9t10.5 -25q0 -8 -1 -12h-460q-11 0 -17 7.5t-4 18.5z" />
    <glyph glyph-name="Eacute" unicode="&#xc9;" horiz-adv-x="621" 
d="M154 675q1 10 10.5 17.5t20.5 7.5h440q-9 -46 -58 -46h-365l-49 -278h295q-9 -47 -60 -47h-244l-49 -283h386q20 0 30.5 -9t10.5 -25q0 -8 -1 -12h-460q-11 0 -17 7.5t-4 18.5zM473 903q9 12 22 18t41 6h28l-135 -140q-9 -9 -17.5 -12t-34.5 -3z" />
    <glyph glyph-name="Ebreve" unicode="&#x114;" horiz-adv-x="621" 
d="M154 675q1 10 10.5 17.5t20.5 7.5h440q-9 -46 -58 -46h-365l-49 -278h295q-9 -47 -60 -47h-244l-49 -283h386q20 0 30.5 -9t10.5 -25q0 -8 -1 -12h-460q-11 0 -17 7.5t-4 18.5zM345 784q-28 12 -46.5 35.5t-18.5 55.5q0 30 14 45.5t38 15.5q-3 -19 -3 -37q0 -82 81 -82
q101 0 121 119q18 0 27.5 -9t9.5 -23q0 -32 -24.5 -62.5t-63 -50t-78.5 -19.5q-29 0 -57 12z" />
    <glyph glyph-name="Ecaron" unicode="&#x11a;" horiz-adv-x="621" 
d="M154 675q1 10 10.5 17.5t20.5 7.5h440q-9 -46 -58 -46h-365l-49 -278h295q-9 -47 -60 -47h-244l-49 -283h386q20 0 30.5 -9t10.5 -25q0 -8 -1 -12h-460q-11 0 -17 7.5t-4 18.5zM510 915q12 12 31 12q16 0 29 -10l-151 -134q-7 -7 -17 -7t-15 7l-103 134q16 10 33 10
q18 0 27 -12l66 -96z" />
    <glyph glyph-name="Ecircumflex" unicode="&#xca;" horiz-adv-x="621" 
d="M154 675q1 10 10.5 17.5t20.5 7.5h440q-9 -46 -58 -46h-365l-49 -278h295q-9 -47 -60 -47h-244l-49 -283h386q20 0 30.5 -9t10.5 -25q0 -8 -1 -12h-460q-11 0 -17 7.5t-4 18.5zM291 777q-18 0 -29 10l151 133q7 7 17 7q9 0 14 -7l104 -133q-17 -11 -33 -11q-20 0 -27 12
l-66 96l-100 -96q-11 -11 -31 -11z" />
    <glyph glyph-name="uni1EBE" unicode="&#x1ebe;" horiz-adv-x="621" 
d="M154 675q1 10 10.5 17.5t20.5 7.5h440q-9 -46 -58 -46h-365l-49 -278h295q-9 -47 -60 -47h-244l-49 -283h386q20 0 30.5 -9t10.5 -25q0 -8 -1 -12h-460q-11 0 -17 7.5t-4 18.5zM569 1002q10 13 23.5 19t37.5 6h20l-106 -105q-10 -9 -19.5 -12t-28.5 -4zM320 788
q-11 -11 -29 -11t-31 10l152 133q7 7 17 7q9 0 14 -7l104 -133q-14 -10 -34 -10q-19 0 -26 11l-66 96z" />
    <glyph glyph-name="uni1EC6" unicode="&#x1ec6;" horiz-adv-x="621" 
d="M154 675q1 10 10.5 17.5t20.5 7.5h440q-9 -46 -58 -46h-365l-49 -278h295q-9 -47 -60 -47h-244l-49 -283h386q20 0 30.5 -9t10.5 -25q0 -8 -1 -12h-460q-11 0 -17 7.5t-4 18.5zM212 -151.5q-9 8.5 -9 22.5q0 20 14 34t34 14q15 0 23.5 -9t8.5 -23q0 -19 -13.5 -33
t-32.5 -14q-16 0 -25 8.5zM291 777q-18 0 -29 10l151 133q7 7 17 7q9 0 14 -7l104 -133q-17 -11 -33 -11q-20 0 -27 12l-66 96l-100 -96q-11 -11 -31 -11z" />
    <glyph glyph-name="uni1EC0" unicode="&#x1ec0;" horiz-adv-x="621" 
d="M154 675q1 10 10.5 17.5t20.5 7.5h440q-9 -46 -58 -46h-365l-49 -278h295q-9 -47 -60 -47h-244l-49 -283h386q20 0 30.5 -9t10.5 -25q0 -8 -1 -12h-460q-11 0 -17 7.5t-4 18.5zM535.5 909.5q-7.5 2.5 -14.5 12.5l-69 105h20q22 0 34.5 -5.5t18.5 -19.5l38 -96
q-20 1 -27.5 3.5zM321 788q-11 -11 -29 -11t-31 10l151 133q7 7 17 7q9 0 14 -7l104 -133q-14 -10 -34 -10q-19 0 -26 11l-66 96z" />
    <glyph glyph-name="uni1EC2" unicode="&#x1ec2;" horiz-adv-x="621" 
d="M154 675q1 10 10.5 17.5t20.5 7.5h440q-9 -46 -58 -46h-365l-49 -278h295q-9 -47 -60 -47h-244l-49 -283h386q20 0 30.5 -9t10.5 -25q0 -8 -1 -12h-460q-11 0 -17 7.5t-4 18.5zM516 894q3 16 11 26t21 21q11 9 16.5 16.5t5.5 18.5q0 9 -8 14t-21 5q-17 0 -29 -9.5
t-12 -27.5v-5q-13 0 -20.5 5t-7.5 14q0 19 23.5 35t51.5 16q21 0 38 -11t17 -32q0 -20 -8 -31t-24 -22q-12 -10 -17.5 -16t-7.5 -16q-3 -18 -20 -18q-8 0 -12 1zM321 788q-11 -11 -29 -11t-31 10l151 133q7 7 17 7q9 0 14 -7l104 -133q-14 -10 -34 -10q-19 0 -26 11l-66 96z
" />
    <glyph glyph-name="uni1EC4" unicode="&#x1ec4;" horiz-adv-x="621" 
d="M154 675q1 10 10.5 17.5t20.5 7.5h440q-9 -46 -58 -46h-365l-49 -278h295q-9 -47 -60 -47h-244l-49 -283h386q20 0 30.5 -9t10.5 -25q0 -8 -1 -12h-460q-11 0 -17 7.5t-4 18.5zM327.5 950q-6.5 7 -6.5 17q0 24 21.5 42t50.5 18q19 0 32 -7.5t30 -22.5q12 -11 20.5 -16.5
t18.5 -5.5q16 0 25 8.5t9 24.5q0 10 -3 17q8 2 13 2q9 0 15 -7t6 -16q0 -25 -21 -41.5t-51 -16.5q-19 0 -32.5 7.5t-30.5 22.5q-12 11 -20 16t-18 5q-16 0 -25 -10t-9 -27q0 -8 3 -16q-5 -1 -11 -1q-10 0 -16.5 7zM292 777q-18 0 -31 10l151 133q7 7 17 7q9 0 14 -7
l104 -133q-14 -10 -34 -10q-19 0 -26 11l-66 96l-100 -96q-11 -11 -29 -11z" />
    <glyph glyph-name="Edieresis" unicode="&#xcb;" horiz-adv-x="621" 
d="M154 675q1 10 10.5 17.5t20.5 7.5h440q-9 -46 -58 -46h-365l-49 -278h295q-9 -47 -60 -47h-244l-49 -283h386q20 0 30.5 -9t10.5 -25q0 -8 -1 -12h-460q-11 0 -17 7.5t-4 18.5zM292 798.5q-9 8.5 -9 22.5q0 20 14 34t34 14q15 0 23.5 -9t8.5 -23q0 -19 -13.5 -33
t-32.5 -14q-16 0 -25 8.5zM469 798.5q-9 8.5 -9 22.5q0 20 14 34t34 14q15 0 23.5 -9t8.5 -23q0 -19 -13.5 -33t-32.5 -14q-16 0 -25 8.5z" />
    <glyph glyph-name="Edotaccent" unicode="&#x116;" horiz-adv-x="621" 
d="M154 675q1 10 10.5 17.5t20.5 7.5h440q-9 -46 -58 -46h-365l-49 -278h295q-9 -47 -60 -47h-244l-49 -283h386q20 0 30.5 -9t10.5 -25q0 -8 -1 -12h-460q-11 0 -17 7.5t-4 18.5zM381 798.5q-9 8.5 -9 22.5q0 20 14 34t34 14q15 0 23.5 -9t8.5 -23q0 -19 -13.5 -33
t-32.5 -14q-16 0 -25 8.5z" />
    <glyph glyph-name="uni1EB8" unicode="&#x1eb8;" horiz-adv-x="621" 
d="M154 675q1 10 10.5 17.5t20.5 7.5h440q-9 -46 -58 -46h-365l-49 -278h295q-9 -47 -60 -47h-244l-49 -283h386q20 0 30.5 -9t10.5 -25q0 -8 -1 -12h-460q-11 0 -17 7.5t-4 18.5zM212 -151.5q-9 8.5 -9 22.5q0 20 14 34t34 14q15 0 23.5 -9t8.5 -23q0 -19 -13.5 -33
t-32.5 -14q-16 0 -25 8.5z" />
    <glyph glyph-name="Egrave" unicode="&#xc8;" horiz-adv-x="621" 
d="M154 675q1 10 10.5 17.5t20.5 7.5h440q-9 -46 -58 -46h-365l-49 -278h295q-9 -47 -60 -47h-244l-49 -283h386q20 0 30.5 -9t10.5 -25q0 -8 -1 -12h-460q-11 0 -17 7.5t-4 18.5zM401.5 775q-7.5 3 -13.5 12l-88 141h28q23 0 36 -5t19 -19l51 -132q-25 0 -32.5 3z" />
    <glyph glyph-name="uni1EBA" unicode="&#x1eba;" horiz-adv-x="621" 
d="M154 675q1 10 10.5 17.5t20.5 7.5h440q-9 -46 -58 -46h-365l-49 -278h295q-9 -47 -60 -47h-244l-49 -283h386q20 0 30.5 -9t10.5 -25q0 -8 -1 -12h-460q-11 0 -17 7.5t-4 18.5zM388 797q4 19 13.5 31t25.5 25q15 12 22 21t7 24q0 11 -7.5 17t-22.5 6q-20 0 -33 -14
t-13 -36v-5q-17 0 -26.5 6.5t-9.5 18.5q0 25 28 45.5t62 20.5q27 0 46 -14t19 -39q0 -26 -10 -39t-30 -28q-15 -11 -22.5 -19t-9.5 -21q-4 -22 -27 -22q-4 0 -16 2z" />
    <glyph glyph-name="Emacron" unicode="&#x112;" horiz-adv-x="621" 
d="M154 675q1 10 10.5 17.5t20.5 7.5h440q-9 -46 -58 -46h-365l-49 -278h295q-9 -47 -60 -47h-244l-49 -283h386q20 0 30.5 -9t10.5 -25q0 -8 -1 -12h-460q-11 0 -17 7.5t-4 18.5zM284.5 832.5q15.5 11.5 37.5 11.5h236q-4 -21 -19.5 -32.5t-38.5 -11.5h-235q4 21 19.5 32.5
z" />
    <glyph glyph-name="Eogonek" unicode="&#x118;" horiz-adv-x="621" 
d="M625 700q-9 -46 -58 -46h-365l-49 -278h295q-9 -47 -60 -47h-244l-49 -283h386q20 0 30.5 -9t10.5 -25q0 -8 -1 -12h-30q-41 -27 -65.5 -63.5t-24.5 -67.5q0 -34 34 -34q24 0 39 18q2 -9 1 -12q-4 -12 -21.5 -23t-38.5 -11q-29 0 -45.5 16t-16.5 41q0 35 34 74t86 62
h-412q-11 0 -17 7.5t-4 18.5l114 649q1 10 10.5 17.5t20.5 7.5h440z" />
    <glyph glyph-name="uni1EBC" unicode="&#x1ebc;" horiz-adv-x="621" 
d="M154 675q1 10 10.5 17.5t20.5 7.5h440q-9 -46 -58 -46h-365l-49 -278h295q-9 -47 -60 -47h-244l-49 -283h386q20 0 30.5 -9t10.5 -25q0 -8 -1 -12h-460q-11 0 -17 7.5t-4 18.5zM283 787q-7 8 -7 19q0 28 24 48.5t58 20.5q21 0 36 -9t34 -27q14 -13 24 -19.5t21 -6.5
q18 0 28 11.5t10 31.5q0 8 -2 16q8 3 14 3q10 0 16.5 -8t6.5 -20q0 -28 -24 -48t-57 -20q-22 0 -37.5 9t-35.5 27q-14 13 -23 19t-20 6q-16 0 -27 -10.5t-11 -29.5q0 -10 3 -19q-6 -2 -14 -2q-10 0 -17 8z" />
    <glyph glyph-name="F" unicode="F" horiz-adv-x="591" 
d="M155 675q1 10 10 17.5t20 7.5h440q-4 -22 -19 -34t-40 -12h-364l-48 -273h295q-9 -47 -60 -47h-244l-50 -288q-4 -26 -20.5 -40.5t-40.5 -14.5z" />
    <glyph glyph-name="G" unicode="G" horiz-adv-x="684" 
d="M172.5 14.5q-53.5 23.5 -83 65.5t-29.5 97q0 12 4 40l47 268q11 65 54.5 116t110.5 79.5t147 28.5q69 0 123 -22.5t84 -63t30 -92.5q0 -33 -17 -54t-43 -23q9 34 9 61q0 43 -24.5 76.5t-69 52.5t-100.5 19q-65 0 -119 -22.5t-89.5 -63t-44.5 -92.5l-47 -268
q-3 -16 -3 -31q0 -67 52.5 -108t141.5 -41q65 0 120 23t90.5 65t45.5 95l15 83h-171q-22 0 -33 13t-8 34h244q12 0 18 -7t4 -18l-18 -105q-12 -67 -56 -119t-111.5 -81t-147.5 -29q-72 0 -125.5 23.5z" />
    <glyph glyph-name="Gbreve" unicode="&#x11e;" horiz-adv-x="684" 
d="M172.5 14.5q-53.5 23.5 -83 65.5t-29.5 97q0 12 4 40l47 268q11 65 54.5 116t110.5 79.5t147 28.5q69 0 123 -22.5t84 -63t30 -92.5q0 -33 -17 -54t-43 -23q9 34 9 61q0 43 -24.5 76.5t-69 52.5t-100.5 19q-65 0 -119 -22.5t-89.5 -63t-44.5 -92.5l-47 -268
q-3 -16 -3 -31q0 -67 52.5 -108t141.5 -41q65 0 120 23t90.5 65t45.5 95l15 83h-171q-22 0 -33 13t-8 34h244q12 0 18 -7t4 -18l-18 -105q-12 -67 -56 -119t-111.5 -81t-147.5 -29q-72 0 -125.5 23.5zM370 784q-28 12 -46.5 35.5t-18.5 55.5q0 30 14 45.5t38 15.5
q-3 -19 -3 -37q0 -82 81 -82q101 0 121 119q18 0 27.5 -9t9.5 -23q0 -32 -24.5 -62.5t-63 -50t-78.5 -19.5q-29 0 -57 12z" />
    <glyph glyph-name="Gcaron" unicode="&#x1e6;" horiz-adv-x="684" 
d="M172.5 14.5q-53.5 23.5 -83 65.5t-29.5 97q0 12 4 40l47 268q11 65 54.5 116t110.5 79.5t147 28.5q69 0 123 -22.5t84 -63t30 -92.5q0 -33 -17 -54t-43 -23q9 34 9 61q0 43 -24.5 76.5t-69 52.5t-100.5 19q-65 0 -119 -22.5t-89.5 -63t-44.5 -92.5l-47 -268
q-3 -16 -3 -31q0 -67 52.5 -108t141.5 -41q65 0 120 23t90.5 65t45.5 95l15 83h-171q-22 0 -33 13t-8 34h244q12 0 18 -7t4 -18l-18 -105q-12 -67 -56 -119t-111.5 -81t-147.5 -29q-72 0 -125.5 23.5zM535 915q12 12 31 12q16 0 29 -10l-151 -134q-7 -7 -17 -7t-15 7
l-103 134q16 10 33 10q18 0 27 -12l66 -96z" />
    <glyph glyph-name="Gcircumflex" unicode="&#x11c;" horiz-adv-x="684" 
d="M172.5 14.5q-53.5 23.5 -83 65.5t-29.5 97q0 12 4 40l47 268q11 65 54.5 116t110.5 79.5t147 28.5q69 0 123 -22.5t84 -63t30 -92.5q0 -33 -17 -54t-43 -23q9 34 9 61q0 43 -24.5 76.5t-69 52.5t-100.5 19q-65 0 -119 -22.5t-89.5 -63t-44.5 -92.5l-47 -268
q-3 -16 -3 -31q0 -67 52.5 -108t141.5 -41q65 0 120 23t90.5 65t45.5 95l15 83h-171q-22 0 -33 13t-8 34h244q12 0 18 -7t4 -18l-18 -105q-12 -67 -56 -119t-111.5 -81t-147.5 -29q-72 0 -125.5 23.5zM316 777q-18 0 -29 10l151 133q7 7 17 7q9 0 14 -7l104 -133
q-17 -11 -33 -11q-20 0 -27 12l-66 96l-100 -96q-11 -11 -31 -11z" />
    <glyph glyph-name="uni0122" unicode="&#x122;" horiz-adv-x="684" 
d="M172.5 14.5q-53.5 23.5 -83 65.5t-29.5 97q0 12 4 40l47 268q11 65 54.5 116t110.5 79.5t147 28.5q69 0 123 -22.5t84 -63t30 -92.5q0 -33 -17 -54t-43 -23q9 34 9 61q0 43 -24.5 76.5t-69 52.5t-100.5 19q-65 0 -119 -22.5t-89.5 -63t-44.5 -92.5l-47 -268
q-3 -16 -3 -31q0 -67 52.5 -108t141.5 -41q65 0 120 23t90.5 65t45.5 95l15 83h-171q-22 0 -33 13t-8 34h244q12 0 18 -7t4 -18l-18 -105q-12 -67 -56 -119t-111.5 -81t-147.5 -29q-72 0 -125.5 23.5zM255 -213q20 32 25 62q-4 -1 -10.5 -2.5t-11.5 -1.5q-20 0 -30.5 10
t-10.5 28q0 26 18.5 45.5t43.5 19.5q20 0 33 -13t13 -33q0 -48 -28.5 -95.5t-67.5 -81.5q-4 -4 -12 -4q-9 0 -15 4q33 30 53 62z" />
    <glyph glyph-name="Gdotaccent" unicode="&#x120;" horiz-adv-x="684" 
d="M172.5 14.5q-53.5 23.5 -83 65.5t-29.5 97q0 12 4 40l47 268q11 65 54.5 116t110.5 79.5t147 28.5q69 0 123 -22.5t84 -63t30 -92.5q0 -33 -17 -54t-43 -23q9 34 9 61q0 43 -24.5 76.5t-69 52.5t-100.5 19q-65 0 -119 -22.5t-89.5 -63t-44.5 -92.5l-47 -268
q-3 -16 -3 -31q0 -67 52.5 -108t141.5 -41q65 0 120 23t90.5 65t45.5 95l15 83h-171q-22 0 -33 13t-8 34h244q12 0 18 -7t4 -18l-18 -105q-12 -67 -56 -119t-111.5 -81t-147.5 -29q-72 0 -125.5 23.5zM406 798.5q-9 8.5 -9 22.5q0 20 14 34t34 14q15 0 23.5 -9t8.5 -23
q0 -19 -13.5 -33t-32.5 -14q-16 0 -25 8.5z" />
    <glyph glyph-name="uni1E20" unicode="&#x1e20;" horiz-adv-x="684" 
d="M172.5 14.5q-53.5 23.5 -83 65.5t-29.5 97q0 12 4 40l47 268q11 65 54.5 116t110.5 79.5t147 28.5q69 0 123 -22.5t84 -63t30 -92.5q0 -33 -17 -54t-43 -23q9 34 9 61q0 43 -24.5 76.5t-69 52.5t-100.5 19q-65 0 -119 -22.5t-89.5 -63t-44.5 -92.5l-47 -268
q-3 -16 -3 -31q0 -67 52.5 -108t141.5 -41q65 0 120 23t90.5 65t45.5 95l15 83h-171q-22 0 -33 13t-8 34h244q12 0 18 -7t4 -18l-18 -105q-12 -67 -56 -119t-111.5 -81t-147.5 -29q-72 0 -125.5 23.5zM309.5 832.5q15.5 11.5 37.5 11.5h236q-4 -21 -19.5 -32.5t-38.5 -11.5
h-235q4 21 19.5 32.5z" />
    <glyph glyph-name="H" unicode="H" horiz-adv-x="677" 
d="M151 654q5 26 20.5 40.5t40.5 14.5l-59 -333h414l49 278q4 27 20 41t41 14l-117 -663q-4 -26 -20.5 -40.5t-40.5 -14.5l60 339h-414l-50 -284q-5 -26 -20.5 -40.5t-40.5 -14.5z" />
    <glyph glyph-name="Hbar" unicode="&#x126;" horiz-adv-x="768" 
d="M775 549q-5 -26 -18.5 -35.5t-38.5 -9.5h-36l-81 -458q-4 -26 -20.5 -40.5t-40.5 -14.5l60 339h-414l-50 -284q-5 -26 -20.5 -40.5t-40.5 -14.5l91 513h-77q5 28 19.5 36.5t37.5 8.5h27l19 105q5 26 20.5 40.5t40.5 14.5l-28 -160h413l19 105q4 27 20 41t41 14l-28 -160
h85zM631 504h-414l-23 -128h414z" />
    <glyph glyph-name="uni1E2A" unicode="&#x1e2a;" horiz-adv-x="677" 
d="M151 654q5 26 20.5 40.5t40.5 14.5l-59 -333h414l49 278q4 27 20 41t41 14l-117 -663q-4 -26 -20.5 -40.5t-40.5 -14.5l60 339h-414l-50 -284q-5 -26 -20.5 -40.5t-40.5 -14.5zM160 -167.5q-38 24.5 -38 70.5q0 29 13.5 45t38.5 16q-3 -20 -3 -35q0 -40 21 -58t62 -18
q50 0 79.5 26t39.5 85q19 0 28 -9t9 -23q0 -32 -23 -60.5t-61 -46t-80 -17.5q-48 0 -86 24.5z" />
    <glyph glyph-name="Hcircumflex" unicode="&#x124;" horiz-adv-x="677" 
d="M151 654q5 26 20.5 40.5t40.5 14.5l-59 -333h414l49 278q4 27 20 41t41 14l-117 -663q-4 -26 -20.5 -40.5t-40.5 -14.5l60 339h-414l-50 -284q-5 -26 -20.5 -40.5t-40.5 -14.5zM319 777q-18 0 -29 10l151 133q7 7 17 7q9 0 14 -7l104 -133q-17 -11 -33 -11q-20 0 -27 12
l-66 96l-100 -96q-11 -11 -31 -11z" />
    <glyph glyph-name="uni1E24" unicode="&#x1e24;" horiz-adv-x="677" 
d="M151 654q5 26 20.5 40.5t40.5 14.5l-59 -333h414l49 278q4 27 20 41t41 14l-117 -663q-4 -26 -20.5 -40.5t-40.5 -14.5l60 339h-414l-50 -284q-5 -26 -20.5 -40.5t-40.5 -14.5zM226 -151.5q-9 8.5 -9 22.5q0 20 14 34t34 14q15 0 23.5 -9t8.5 -23q0 -19 -13.5 -33
t-32.5 -14q-16 0 -25 8.5z" />
    <glyph glyph-name="I" unicode="I" horiz-adv-x="251" 
d="M171 654q5 26 20 40.5t40 14.5l-117 -663q-5 -26 -20 -40.5t-40 -14.5z" />
    <glyph glyph-name="IJ" unicode="&#x132;" horiz-adv-x="743" 
d="M171 654q5 26 20.5 40.5t40.5 14.5l-117 -663q-5 -26 -20.5 -40.5t-40.5 -14.5zM297 13.5q-43 22.5 -65 61.5t-22 87q0 42 15 62t48 23q-4 -12 -8 -33t-4 -40q0 -135 146 -135q88 0 140.5 47.5t67.5 131.5l77 436h-143q-42 0 -42 35q0 7 1 11h219q11 0 16.5 -7.5
t3.5 -17.5l-81 -457q-18 -102 -87 -164.5t-180 -62.5q-59 0 -102 22.5z" />
    <glyph glyph-name="Iacute" unicode="&#xcd;" horiz-adv-x="251" 
d="M171 654q5 26 20 40.5t40 14.5l-117 -663q-5 -26 -20 -40.5t-40 -14.5zM289 903q9 12 22 18t41 6h28l-135 -140q-9 -9 -17.5 -12t-34.5 -3z" />
    <glyph glyph-name="Ibreve" unicode="&#x12c;" horiz-adv-x="251" 
d="M171 654q5 26 20 40.5t40 14.5l-117 -663q-5 -26 -20 -40.5t-40 -14.5zM161 784q-28 12 -46.5 35.5t-18.5 55.5q0 30 14 45.5t38 15.5q-3 -19 -3 -37q0 -82 81 -82q101 0 121 119q18 0 27.5 -9t9.5 -23q0 -32 -24.5 -62.5t-63 -50t-78.5 -19.5q-29 0 -57 12z" />
    <glyph glyph-name="uni01CF" unicode="&#x1cf;" horiz-adv-x="251" 
d="M171 654q5 26 20 40.5t40 14.5l-117 -663q-5 -26 -20 -40.5t-40 -14.5zM326 915q12 12 31 12q16 0 29 -10l-151 -134q-7 -7 -17 -7t-15 7l-103 134q16 10 33 10q18 0 27 -12l66 -96z" />
    <glyph glyph-name="Icircumflex" unicode="&#xce;" horiz-adv-x="251" 
d="M171 654q5 26 20 40.5t40 14.5l-117 -663q-5 -26 -20 -40.5t-40 -14.5zM107 777q-18 0 -29 10l151 133q7 7 17 7q9 0 14 -7l104 -133q-17 -11 -33 -11q-20 0 -27 12l-66 96l-100 -96q-11 -11 -31 -11z" />
    <glyph glyph-name="Idieresis" unicode="&#xcf;" horiz-adv-x="251" 
d="M171 654q5 26 20 40.5t40 14.5l-117 -663q-5 -26 -20 -40.5t-40 -14.5zM108 798.5q-9 8.5 -9 22.5q0 20 14 34t34 14q15 0 23.5 -9t8.5 -23q0 -19 -13.5 -33t-32.5 -14q-16 0 -25 8.5zM285 798.5q-9 8.5 -9 22.5q0 20 14 34t34 14q15 0 23.5 -9t8.5 -23q0 -19 -13.5 -33
t-32.5 -14q-16 0 -25 8.5z" />
    <glyph glyph-name="Idotaccent" unicode="&#x130;" horiz-adv-x="251" 
d="M171 654q5 26 20 40.5t40 14.5l-117 -663q-5 -26 -20 -40.5t-40 -14.5zM197 798.5q-9 8.5 -9 22.5q0 20 14 34t34 14q15 0 23.5 -9t8.5 -23q0 -19 -13.5 -33t-32.5 -14q-16 0 -25 8.5z" />
    <glyph glyph-name="uni1ECA" unicode="&#x1eca;" horiz-adv-x="251" 
d="M171 654q5 26 20 40.5t40 14.5l-117 -663q-5 -26 -20 -40.5t-40 -14.5zM29 -151.5q-9 8.5 -9 22.5q0 20 14 34t34 14q15 0 23.5 -9t8.5 -23q0 -19 -13.5 -33t-32.5 -14q-16 0 -25 8.5z" />
    <glyph glyph-name="Igrave" unicode="&#xcc;" horiz-adv-x="251" 
d="M171 654q5 26 20 40.5t40 14.5l-117 -663q-5 -26 -20 -40.5t-40 -14.5zM217.5 775q-7.5 3 -13.5 12l-88 141h28q23 0 36 -5t19 -19l51 -132q-25 0 -32.5 3z" />
    <glyph glyph-name="uni1EC8" unicode="&#x1ec8;" horiz-adv-x="251" 
d="M171 654q5 26 20 40.5t40 14.5l-117 -663q-5 -26 -20 -40.5t-40 -14.5zM204 797q4 19 13.5 31t25.5 25q15 12 22 21t7 24q0 11 -7.5 17t-22.5 6q-20 0 -33 -14t-13 -36v-5q-17 0 -26.5 6.5t-9.5 18.5q0 25 28 45.5t62 20.5q27 0 46 -14t19 -39q0 -26 -10 -39t-30 -28
q-15 -11 -22.5 -19t-9.5 -21q-4 -22 -27 -22q-4 0 -16 2z" />
    <glyph glyph-name="Imacron" unicode="&#x12a;" horiz-adv-x="251" 
d="M171 654q5 26 20 40.5t40 14.5l-117 -663q-5 -26 -20 -40.5t-40 -14.5zM100.5 832.5q15.5 11.5 37.5 11.5h236q-4 -21 -19.5 -32.5t-38.5 -11.5h-235q4 21 19.5 32.5z" />
    <glyph glyph-name="Iogonek" unicode="&#x12e;" horiz-adv-x="251" 
d="M191 694.5q15 14.5 40 14.5l-117 -663q-8 -46 -46 -54q-32 -26 -50.5 -57t-18.5 -58q0 -34 34 -34q24 0 39 18q2 -9 1 -12q-4 -12 -21.5 -23t-38.5 -11q-29 0 -45.5 16t-16.5 41q0 32 29.5 68t75.5 61l115 653q5 26 20 40.5z" />
    <glyph glyph-name="Itilde" unicode="&#x128;" horiz-adv-x="251" 
d="M171 654q5 26 20 40.5t40 14.5l-117 -663q-5 -26 -20 -40.5t-40 -14.5zM99 787q-7 8 -7 19q0 28 24 48.5t58 20.5q21 0 36 -9t34 -27q14 -13 24 -19.5t21 -6.5q18 0 28 11.5t10 31.5q0 8 -2 16q8 3 14 3q10 0 16.5 -8t6.5 -20q0 -28 -24 -48t-57 -20q-22 0 -37.5 9
t-35.5 27q-14 13 -23 19t-20 6q-16 0 -27 -10.5t-11 -29.5q0 -10 3 -19q-6 -2 -14 -2q-10 0 -17 8z" />
    <glyph glyph-name="J" unicode="J" horiz-adv-x="597" 
d="M141 14.5q-46 23.5 -72.5 63.5t-26.5 88q0 39 15 58.5t48 22.5q-4 -13 -7.5 -33.5t-3.5 -34.5q0 -68 40 -104t117 -36q91 0 146.5 45.5t71.5 133.5l77 436h-143q-42 0 -42 35q0 7 1 11h219q10 0 15.5 -7.5t4.5 -17.5l-81 -457q-19 -107 -92.5 -167t-185.5 -60
q-55 0 -101 23.5z" />
    <glyph glyph-name="Jcircumflex" unicode="&#x134;" horiz-adv-x="597" 
d="M141 14.5q-46 23.5 -72.5 63.5t-26.5 88q0 39 15 58.5t48 22.5q-4 -13 -7.5 -33.5t-3.5 -34.5q0 -68 40 -104t117 -36q91 0 146.5 45.5t71.5 133.5l77 436h-143q-42 0 -42 35q0 7 1 11h219q10 0 15.5 -7.5t4.5 -17.5l-81 -457q-19 -107 -92.5 -167t-185.5 -60
q-55 0 -101 23.5zM368 777q-18 0 -29 10l151 133q7 7 17 7q9 0 14 -7l104 -133q-17 -11 -33 -11q-20 0 -27 12l-66 96l-100 -96q-11 -11 -31 -11z" />
    <glyph glyph-name="K" unicode="K" horiz-adv-x="638" 
d="M151 655q4 26 20.5 40t40.5 14l-66 -368l462 368q1 -1 6.5 -9.5t5.5 -15.5q0 -21 -25 -41l-321 -257l264 -388q-6 -3 -14.5 -5t-14.5 -2q-13 0 -22 4t-17 15l-236 345l-99 -79l-40 -230q-5 -26 -20.5 -40.5t-40.5 -14.5z" />
    <glyph glyph-name="uni0136" unicode="&#x136;" horiz-adv-x="638" 
d="M151 655q4 26 20.5 40t40.5 14l-66 -368l462 368q1 -1 6.5 -9.5t5.5 -15.5q0 -21 -25 -41l-321 -257l264 -388q-6 -3 -14.5 -5t-14.5 -2q-13 0 -22 4t-17 15l-236 345l-99 -79l-40 -230q-5 -26 -20.5 -40.5t-40.5 -14.5zM186 -213q20 32 25 62q-4 -1 -10.5 -2.5
t-11.5 -1.5q-20 0 -30.5 10t-10.5 28q0 26 18.5 45.5t43.5 19.5q20 0 33 -13t13 -33q0 -48 -28.5 -95.5t-67.5 -81.5q-4 -4 -12 -4q-9 0 -15 4q33 30 53 62z" />
    <glyph glyph-name="L" unicode="L" horiz-adv-x="571" 
d="M43.5 6.5q-6.5 6.5 -4.5 17.5l111 630q5 26 21 40.5t40 14.5l-117 -663h346q42 0 42 -35q0 -7 -1 -11h-420q-11 0 -17.5 6.5z" />
    <glyph glyph-name="Lacute" unicode="&#x139;" horiz-adv-x="571" 
d="M43.5 6.5q-6.5 6.5 -4.5 17.5l111 630q5 26 21 40.5t40 14.5l-117 -663h346q42 0 42 -35q0 -7 -1 -11h-420q-11 0 -17.5 6.5zM284 903q9 12 22 18t41 6h28l-135 -140q-9 -9 -17.5 -12t-34.5 -3z" />
    <glyph glyph-name="Lcaron" unicode="&#x13d;" horiz-adv-x="616" 
d="M43.5 6.5q-6.5 6.5 -4.5 17.5l111 630q5 26 21 40.5t40 14.5l-117 -663h346q42 0 42 -35q0 -7 -1 -11h-420q-11 0 -17.5 6.5zM500.5 598q20.5 32 25.5 62q-4 -1 -10.5 -2.5t-11.5 -1.5q-20 0 -30.5 10t-10.5 28q0 26 18.5 45.5t43.5 19.5q20 0 33 -13t13 -33
q0 -47 -28.5 -95.5t-67.5 -81.5q-5 -3 -12 -3q-11 0 -15 4q32 29 52.5 61z" />
    <glyph glyph-name="uni013B" unicode="&#x13b;" horiz-adv-x="571" 
d="M43.5 6.5q-6.5 6.5 -4.5 17.5l111 630q5 26 21 40.5t40 14.5l-117 -663h346q42 0 42 -35q0 -7 -1 -11h-420q-11 0 -17.5 6.5zM207 -213q20 32 25 62q-4 -1 -10.5 -2.5t-11.5 -1.5q-20 0 -30.5 10t-10.5 28q0 26 18.5 45.5t43.5 19.5q20 0 33 -13t13 -33
q0 -48 -28.5 -95.5t-67.5 -81.5q-4 -4 -12 -4q-9 0 -15 4q33 30 53 62z" />
    <glyph glyph-name="Ldot" unicode="&#x13f;" horiz-adv-x="571" 
d="M43.5 6.5q-6.5 6.5 -4.5 17.5l111 630q5 26 21 40.5t40 14.5l-117 -663h346q42 0 42 -35q0 -7 -1 -11h-420q-11 0 -17.5 6.5zM313 251.5q-12 12.5 -12 31.5q0 24 19.5 43.5t42.5 19.5q20 0 32.5 -13t12.5 -32q0 -24 -19.5 -43t-44.5 -19q-19 0 -31 12.5z" />
    <glyph glyph-name="uni1E36" unicode="&#x1e36;" horiz-adv-x="571" 
d="M43.5 6.5q-6.5 6.5 -4.5 17.5l111 630q5 26 21 40.5t40 14.5l-117 -663h346q42 0 42 -35q0 -7 -1 -11h-420q-11 0 -17.5 6.5zM190 -151.5q-9 8.5 -9 22.5q0 20 14 34t34 14q15 0 23.5 -9t8.5 -23q0 -19 -13.5 -33t-32.5 -14q-16 0 -25 8.5z" />
    <glyph glyph-name="uni1E38" unicode="&#x1e38;" horiz-adv-x="571" 
d="M43.5 6.5q-6.5 6.5 -4.5 17.5l111 630q5 26 21 40.5t40 14.5l-117 -663h346q42 0 42 -35q0 -7 -1 -11h-420q-11 0 -17.5 6.5zM95.5 832.5q15.5 11.5 37.5 11.5h236q-4 -21 -19.5 -32.5t-38.5 -11.5h-235q4 21 19.5 32.5zM190 -151.5q-9 8.5 -9 22.5q0 20 14 34t34 14
q15 0 23.5 -9t8.5 -23q0 -19 -13.5 -33t-32.5 -14q-16 0 -25 8.5z" />
    <glyph glyph-name="uni1E3A" unicode="&#x1e3a;" horiz-adv-x="571" 
d="M43.5 6.5q-6.5 6.5 -4.5 17.5l111 630q5 26 21 40.5t40 14.5l-117 -663h346q42 0 42 -35q0 -7 -1 -11h-420q-11 0 -17.5 6.5zM101.5 -73.5q15.5 11.5 37.5 11.5h236q-4 -21 -20 -32.5t-38 -11.5h-235q4 21 19.5 32.5z" />
    <glyph glyph-name="Lslash" unicode="&#x141;" horiz-adv-x="613" 
d="M524 11q0 -7 -1 -11h-420q-11 0 -17.5 6.5t-4.5 17.5l47 266l-76 -45q-5 13 -5 21q0 24 32 43l58 35l55 310q5 26 21 40.5t40 14.5l-58 -331l150 89q5 -10 5 -22t-7.5 -22t-23.5 -20l-134 -79l-49 -278h346q42 0 42 -35z" />
    <glyph glyph-name="M" unicode="M" horiz-adv-x="818" 
d="M151 654q9 55 59 55l162 -640l-19 -30l4 -2l409 672q21 0 32.5 -10.5t11.5 -30.5q0 -8 -1 -13l-117 -664q-42 0 -42 40q0 10 1 15l94 532l24 42l-4 2l-376 -614q-4 -7 -12 -12t-14 -5q-7 0 -12.5 4.5t-7.5 12.5l-160 613l-4 -1l10 -42l-94 -532q-5 -26 -20.5 -40.5
t-40.5 -14.5z" />
    <glyph glyph-name="uni1E42" unicode="&#x1e42;" horiz-adv-x="818" 
d="M151 654q9 55 59 55l162 -640l-19 -30l4 -2l409 672q21 0 32.5 -10.5t11.5 -30.5q0 -8 -1 -13l-117 -664q-42 0 -42 40q0 10 1 15l94 532l24 42l-4 2l-376 -614q-4 -7 -12 -12t-14 -5q-7 0 -12.5 4.5t-7.5 12.5l-160 613l-4 -1l10 -42l-94 -532q-5 -26 -20.5 -40.5
t-40.5 -14.5zM313 -151.5q-9 8.5 -9 22.5q0 20 14 34t34 14q15 0 23.5 -9t8.5 -23q0 -19 -13.5 -33t-32.5 -14q-16 0 -25 8.5z" />
    <glyph glyph-name="N" unicode="N" horiz-adv-x="694" 
d="M151 655q9 54 60 54l329 -662l3 3l-11 26l111 633q20 0 31 -10.5t11 -30.5q0 -9 -1 -14l-107 -607q-11 -56 -62 -56l-327 659l-5 -3l12 -26l-100 -575q-5 -26 -20.5 -40.5t-40.5 -14.5z" />
    <glyph glyph-name="Nacute" unicode="&#x143;" horiz-adv-x="694" 
d="M151 655q9 54 60 54l329 -662l3 3l-11 26l111 633q20 0 31 -10.5t11 -30.5q0 -9 -1 -14l-107 -607q-11 -56 -62 -56l-327 659l-5 -3l12 -26l-100 -575q-5 -26 -20.5 -40.5t-40.5 -14.5zM510 903q9 12 22 18t41 6h28l-135 -140q-9 -9 -17.5 -12t-34.5 -3z" />
    <glyph glyph-name="Ncaron" unicode="&#x147;" horiz-adv-x="694" 
d="M151 655q9 54 60 54l329 -662l3 3l-11 26l111 633q20 0 31 -10.5t11 -30.5q0 -9 -1 -14l-107 -607q-11 -56 -62 -56l-327 659l-5 -3l12 -26l-100 -575q-5 -26 -20.5 -40.5t-40.5 -14.5zM547 915q12 12 31 12q16 0 29 -10l-151 -134q-7 -7 -17 -7t-15 7l-103 134
q16 10 33 10q18 0 27 -12l66 -96z" />
    <glyph glyph-name="uni0145" unicode="&#x145;" horiz-adv-x="694" 
d="M151 655q9 54 60 54l329 -662l3 3l-11 26l111 633q20 0 31 -10.5t11 -30.5q0 -9 -1 -14l-107 -607q-11 -56 -62 -56l-327 659l-5 -3l12 -26l-100 -575q-5 -26 -20.5 -40.5t-40.5 -14.5zM267 -213q20 32 25 62q-4 -1 -10.5 -2.5t-11.5 -1.5q-20 0 -30.5 10t-10.5 28
q0 26 18.5 45.5t43.5 19.5q20 0 33 -13t13 -33q0 -48 -28.5 -95.5t-67.5 -81.5q-4 -4 -12 -4q-9 0 -15 4q33 30 53 62z" />
    <glyph glyph-name="uni1E44" unicode="&#x1e44;" horiz-adv-x="694" 
d="M151 655q9 54 60 54l329 -662l3 3l-11 26l111 633q20 0 31 -10.5t11 -30.5q0 -9 -1 -14l-107 -607q-11 -56 -62 -56l-327 659l-5 -3l12 -26l-100 -575q-5 -26 -20.5 -40.5t-40.5 -14.5zM418 798.5q-9 8.5 -9 22.5q0 20 14 34t34 14q15 0 23.5 -9t8.5 -23q0 -19 -13.5 -33
t-32.5 -14q-16 0 -25 8.5z" />
    <glyph glyph-name="uni1E46" unicode="&#x1e46;" horiz-adv-x="694" 
d="M151 655q9 54 60 54l329 -662l3 3l-11 26l111 633q20 0 31 -10.5t11 -30.5q0 -9 -1 -14l-107 -607q-11 -56 -62 -56l-327 659l-5 -3l12 -26l-100 -575q-5 -26 -20.5 -40.5t-40.5 -14.5zM250 -151.5q-9 8.5 -9 22.5q0 20 14 34t34 14q15 0 23.5 -9t8.5 -23
q0 -19 -13.5 -33t-32.5 -14q-16 0 -25 8.5z" />
    <glyph glyph-name="Eng" unicode="&#x14a;" horiz-adv-x="694" 
d="M231 -250.5q-40 15.5 -63 42t-23 59.5q0 28 16 44.5t45 19.5q-3 -6 -6.5 -23t-3.5 -25q0 -40 34.5 -62.5t96.5 -22.5q75 0 122.5 43.5t60.5 124.5l6 36l-328 659l-5 -3l12 -26l-100 -570q-5 -26 -20.5 -40.5t-40.5 -14.5l117 664q4 26 20 40t42 14l317 -639l113 639
q20 0 31 -10.5t11 -30.5q0 -9 -1 -14l-124 -704q-37 -216 -241 -216q-48 0 -88 15.5z" />
    <glyph glyph-name="uni1E48" unicode="&#x1e48;" horiz-adv-x="694" 
d="M151 655q9 54 60 54l329 -662l3 3l-11 26l111 633q20 0 31 -10.5t11 -30.5q0 -9 -1 -14l-107 -607q-11 -56 -62 -56l-327 659l-5 -3l12 -26l-100 -575q-5 -26 -20.5 -40.5t-40.5 -14.5zM161.5 -73.5q15.5 11.5 37.5 11.5h236q-4 -21 -20 -32.5t-38 -11.5h-235
q4 21 19.5 32.5z" />
    <glyph glyph-name="Ntilde" unicode="&#xd1;" horiz-adv-x="694" 
d="M151 655q9 54 60 54l329 -662l3 3l-11 26l111 633q20 0 31 -10.5t11 -30.5q0 -9 -1 -14l-107 -607q-11 -56 -62 -56l-327 659l-5 -3l12 -26l-100 -575q-5 -26 -20.5 -40.5t-40.5 -14.5zM320 787q-7 8 -7 19q0 28 24 48.5t58 20.5q21 0 36 -9t34 -27q14 -13 24 -19.5
t21 -6.5q18 0 28 11.5t10 31.5q0 8 -2 16q8 3 14 3q10 0 16.5 -8t6.5 -20q0 -28 -24 -48t-57 -20q-22 0 -37.5 9t-35.5 27q-14 13 -23 19t-20 6q-16 0 -27 -10.5t-11 -29.5q0 -10 3 -19q-6 -2 -14 -2q-10 0 -17 8z" />
    <glyph glyph-name="O" unicode="O" horiz-adv-x="698" 
d="M178 16.5q-54 25.5 -83.5 72.5t-29.5 110q0 25 4 48l37 209q21 119 104 186t220 67q70 0 124 -26t84 -73.5t30 -108.5q0 -25 -4 -45l-37 -209q-20 -116 -104.5 -186t-219.5 -70q-71 0 -125 25.5zM490.5 93.5q69.5 56.5 86.5 153.5l37 208q4 21 4 46q0 76 -50 119t-146 43
q-116 0 -182.5 -55t-83.5 -153l-37 -208q-5 -28 -5 -50q0 -76 49 -118t148 -42q110 0 179.5 56.5z" />
    <glyph glyph-name="Oacute" unicode="&#xd3;" horiz-adv-x="698" 
d="M178 16.5q-54 25.5 -83.5 72.5t-29.5 110q0 25 4 48l37 209q21 119 104 186t220 67q70 0 124 -26t84 -73.5t30 -108.5q0 -25 -4 -45l-37 -209q-20 -116 -104.5 -186t-219.5 -70q-71 0 -125 25.5zM490.5 93.5q69.5 56.5 86.5 153.5l37 208q4 21 4 46q0 76 -50 119t-146 43
q-116 0 -182.5 -55t-83.5 -153l-37 -208q-5 -28 -5 -50q0 -76 49 -118t148 -42q110 0 179.5 56.5zM512 903q9 12 22 18t41 6h28l-135 -140q-9 -9 -17.5 -12t-34.5 -3z" />
    <glyph glyph-name="Obreve" unicode="&#x14e;" horiz-adv-x="698" 
d="M178 16.5q-54 25.5 -83.5 72.5t-29.5 110q0 25 4 48l37 209q21 119 104 186t220 67q70 0 124 -26t84 -73.5t30 -108.5q0 -25 -4 -45l-37 -209q-20 -116 -104.5 -186t-219.5 -70q-71 0 -125 25.5zM490.5 93.5q69.5 56.5 86.5 153.5l37 208q4 21 4 46q0 76 -50 119t-146 43
q-116 0 -182.5 -55t-83.5 -153l-37 -208q-5 -28 -5 -50q0 -76 49 -118t148 -42q110 0 179.5 56.5zM384 784q-28 12 -46.5 35.5t-18.5 55.5q0 30 14 45.5t38 15.5q-3 -19 -3 -37q0 -82 81 -82q101 0 121 119q18 0 27.5 -9t9.5 -23q0 -32 -24.5 -62.5t-63 -50t-78.5 -19.5
q-29 0 -57 12z" />
    <glyph glyph-name="uni01D1" unicode="&#x1d1;" horiz-adv-x="698" 
d="M178 16.5q-54 25.5 -83.5 72.5t-29.5 110q0 25 4 48l37 209q21 119 104 186t220 67q70 0 124 -26t84 -73.5t30 -108.5q0 -25 -4 -45l-37 -209q-20 -116 -104.5 -186t-219.5 -70q-71 0 -125 25.5zM490.5 93.5q69.5 56.5 86.5 153.5l37 208q4 21 4 46q0 76 -50 119t-146 43
q-116 0 -182.5 -55t-83.5 -153l-37 -208q-5 -28 -5 -50q0 -76 49 -118t148 -42q110 0 179.5 56.5zM549 915q12 12 31 12q16 0 29 -10l-151 -134q-7 -7 -17 -7t-15 7l-103 134q16 10 33 10q18 0 27 -12l66 -96z" />
    <glyph glyph-name="Ocircumflex" unicode="&#xd4;" horiz-adv-x="698" 
d="M178 16.5q-54 25.5 -83.5 72.5t-29.5 110q0 25 4 48l37 209q21 119 104 186t220 67q70 0 124 -26t84 -73.5t30 -108.5q0 -25 -4 -45l-37 -209q-20 -116 -104.5 -186t-219.5 -70q-71 0 -125 25.5zM490.5 93.5q69.5 56.5 86.5 153.5l37 208q4 21 4 46q0 76 -50 119t-146 43
q-116 0 -182.5 -55t-83.5 -153l-37 -208q-5 -28 -5 -50q0 -76 49 -118t148 -42q110 0 179.5 56.5zM330 777q-18 0 -29 10l151 133q7 7 17 7q9 0 14 -7l104 -133q-17 -11 -33 -11q-20 0 -27 12l-66 96l-100 -96q-11 -11 -31 -11z" />
    <glyph glyph-name="uni1ED0" unicode="&#x1ed0;" horiz-adv-x="698" 
d="M178 16.5q-54 25.5 -83.5 72.5t-29.5 110q0 25 4 48l37 209q21 119 104 186t220 67q70 0 124 -26t84 -73.5t30 -108.5q0 -25 -4 -45l-37 -209q-20 -116 -104.5 -186t-219.5 -70q-71 0 -125 25.5zM490.5 93.5q69.5 56.5 86.5 153.5l37 208q4 21 4 46q0 76 -50 119t-146 43
q-116 0 -182.5 -55t-83.5 -153l-37 -208q-5 -28 -5 -50q0 -76 49 -118t148 -42q110 0 179.5 56.5zM608 1002q10 13 23.5 19t37.5 6h20l-106 -105q-10 -9 -19.5 -12t-28.5 -4zM359 788q-11 -11 -29 -11t-31 10l152 133q7 7 17 7q9 0 14 -7l104 -133q-14 -10 -34 -10
q-19 0 -26 11l-66 96z" />
    <glyph glyph-name="uni1ED8" unicode="&#x1ed8;" horiz-adv-x="698" 
d="M178 16.5q-54 25.5 -83.5 72.5t-29.5 110q0 25 4 48l37 209q21 119 104 186t220 67q70 0 124 -26t84 -73.5t30 -108.5q0 -25 -4 -45l-37 -209q-20 -116 -104.5 -186t-219.5 -70q-71 0 -125 25.5zM490.5 93.5q69.5 56.5 86.5 153.5l37 208q4 21 4 46q0 76 -50 119t-146 43
q-116 0 -182.5 -55t-83.5 -153l-37 -208q-5 -28 -5 -50q0 -76 49 -118t148 -42q110 0 179.5 56.5zM252 -151.5q-9 8.5 -9 22.5q0 20 14 34t34 14q15 0 23.5 -9t8.5 -23q0 -19 -13.5 -33t-32.5 -14q-16 0 -25 8.5zM330 777q-18 0 -29 10l151 133q7 7 17 7q9 0 14 -7l104 -133
q-17 -11 -33 -11q-20 0 -27 12l-66 96l-100 -96q-11 -11 -31 -11z" />
    <glyph glyph-name="uni1ED2" unicode="&#x1ed2;" horiz-adv-x="698" 
d="M178 16.5q-54 25.5 -83.5 72.5t-29.5 110q0 25 4 48l37 209q21 119 104 186t220 67q70 0 124 -26t84 -73.5t30 -108.5q0 -25 -4 -45l-37 -209q-20 -116 -104.5 -186t-219.5 -70q-71 0 -125 25.5zM490.5 93.5q69.5 56.5 86.5 153.5l37 208q4 21 4 46q0 76 -50 119t-146 43
q-116 0 -182.5 -55t-83.5 -153l-37 -208q-5 -28 -5 -50q0 -76 49 -118t148 -42q110 0 179.5 56.5zM574.5 909.5q-7.5 2.5 -14.5 12.5l-69 105h20q22 0 34.5 -5.5t18.5 -19.5l38 -96q-20 1 -27.5 3.5zM360 788q-11 -11 -29 -11t-31 10l151 133q7 7 17 7q9 0 14 -7l104 -133
q-14 -10 -34 -10q-19 0 -26 11l-66 96z" />
    <glyph glyph-name="uni1ED4" unicode="&#x1ed4;" horiz-adv-x="698" 
d="M178 16.5q-54 25.5 -83.5 72.5t-29.5 110q0 25 4 48l37 209q21 119 104 186t220 67q70 0 124 -26t84 -73.5t30 -108.5q0 -25 -4 -45l-37 -209q-20 -116 -104.5 -186t-219.5 -70q-71 0 -125 25.5zM490.5 93.5q69.5 56.5 86.5 153.5l37 208q4 21 4 46q0 76 -50 119t-146 43
q-116 0 -182.5 -55t-83.5 -153l-37 -208q-5 -28 -5 -50q0 -76 49 -118t148 -42q110 0 179.5 56.5zM555 894q3 16 11 26t21 21q11 9 16.5 16.5t5.5 18.5q0 9 -8 14t-21 5q-17 0 -29 -9.5t-12 -27.5v-5q-13 0 -20.5 5t-7.5 14q0 19 23.5 35t51.5 16q21 0 38 -11t17 -32
q0 -20 -8 -31t-24 -22q-12 -10 -17.5 -16t-7.5 -16q-3 -18 -20 -18q-8 0 -12 1zM360 788q-11 -11 -29 -11t-31 10l151 133q7 7 17 7q9 0 14 -7l104 -133q-14 -10 -34 -10q-19 0 -26 11l-66 96z" />
    <glyph glyph-name="uni1ED6" unicode="&#x1ed6;" horiz-adv-x="698" 
d="M178 16.5q-54 25.5 -83.5 72.5t-29.5 110q0 25 4 48l37 209q21 119 104 186t220 67q70 0 124 -26t84 -73.5t30 -108.5q0 -25 -4 -45l-37 -209q-20 -116 -104.5 -186t-219.5 -70q-71 0 -125 25.5zM490.5 93.5q69.5 56.5 86.5 153.5l37 208q4 21 4 46q0 76 -50 119t-146 43
q-116 0 -182.5 -55t-83.5 -153l-37 -208q-5 -28 -5 -50q0 -76 49 -118t148 -42q110 0 179.5 56.5zM366.5 950q-6.5 7 -6.5 17q0 24 21.5 42t50.5 18q19 0 32 -7.5t30 -22.5q12 -11 20.5 -16.5t18.5 -5.5q16 0 25 8.5t9 24.5q0 10 -3 17q8 2 13 2q9 0 15 -7t6 -16
q0 -25 -21 -41.5t-51 -16.5q-19 0 -32.5 7.5t-30.5 22.5q-12 11 -20 16t-18 5q-16 0 -25 -10t-9 -27q0 -8 3 -16q-5 -1 -11 -1q-10 0 -16.5 7zM331 777q-18 0 -31 10l151 133q7 7 17 7q9 0 14 -7l104 -133q-14 -10 -34 -10q-19 0 -26 11l-66 96l-100 -96q-11 -11 -29 -11z
" />
    <glyph glyph-name="Odieresis" unicode="&#xd6;" horiz-adv-x="698" 
d="M178 16.5q-54 25.5 -83.5 72.5t-29.5 110q0 25 4 48l37 209q21 119 104 186t220 67q70 0 124 -26t84 -73.5t30 -108.5q0 -25 -4 -45l-37 -209q-20 -116 -104.5 -186t-219.5 -70q-71 0 -125 25.5zM490.5 93.5q69.5 56.5 86.5 153.5l37 208q4 21 4 46q0 76 -50 119t-146 43
q-116 0 -182.5 -55t-83.5 -153l-37 -208q-5 -28 -5 -50q0 -76 49 -118t148 -42q110 0 179.5 56.5zM331 798.5q-9 8.5 -9 22.5q0 20 14 34t34 14q15 0 23.5 -9t8.5 -23q0 -19 -13.5 -33t-32.5 -14q-16 0 -25 8.5zM508 798.5q-9 8.5 -9 22.5q0 20 14 34t34 14q15 0 23.5 -9
t8.5 -23q0 -19 -13.5 -33t-32.5 -14q-16 0 -25 8.5z" />
    <glyph glyph-name="uni1ECC" unicode="&#x1ecc;" horiz-adv-x="698" 
d="M178 16.5q-54 25.5 -83.5 72.5t-29.5 110q0 25 4 48l37 209q21 119 104 186t220 67q70 0 124 -26t84 -73.5t30 -108.5q0 -25 -4 -45l-37 -209q-20 -116 -104.5 -186t-219.5 -70q-71 0 -125 25.5zM490.5 93.5q69.5 56.5 86.5 153.5l37 208q4 21 4 46q0 76 -50 119t-146 43
q-116 0 -182.5 -55t-83.5 -153l-37 -208q-5 -28 -5 -50q0 -76 49 -118t148 -42q110 0 179.5 56.5zM252 -151.5q-9 8.5 -9 22.5q0 20 14 34t34 14q15 0 23.5 -9t8.5 -23q0 -19 -13.5 -33t-32.5 -14q-16 0 -25 8.5z" />
    <glyph glyph-name="Ograve" unicode="&#xd2;" horiz-adv-x="698" 
d="M178 16.5q-54 25.5 -83.5 72.5t-29.5 110q0 25 4 48l37 209q21 119 104 186t220 67q70 0 124 -26t84 -73.5t30 -108.5q0 -25 -4 -45l-37 -209q-20 -116 -104.5 -186t-219.5 -70q-71 0 -125 25.5zM490.5 93.5q69.5 56.5 86.5 153.5l37 208q4 21 4 46q0 76 -50 119t-146 43
q-116 0 -182.5 -55t-83.5 -153l-37 -208q-5 -28 -5 -50q0 -76 49 -118t148 -42q110 0 179.5 56.5zM440.5 775q-7.5 3 -13.5 12l-88 141h28q23 0 36 -5t19 -19l51 -132q-25 0 -32.5 3z" />
    <glyph glyph-name="uni1ECE" unicode="&#x1ece;" horiz-adv-x="698" 
d="M178 16.5q-54 25.5 -83.5 72.5t-29.5 110q0 25 4 48l37 209q21 119 104 186t220 67q70 0 124 -26t84 -73.5t30 -108.5q0 -25 -4 -45l-37 -209q-20 -116 -104.5 -186t-219.5 -70q-71 0 -125 25.5zM490.5 93.5q69.5 56.5 86.5 153.5l37 208q4 21 4 46q0 76 -50 119t-146 43
q-116 0 -182.5 -55t-83.5 -153l-37 -208q-5 -28 -5 -50q0 -76 49 -118t148 -42q110 0 179.5 56.5zM427 797q4 19 13.5 31t25.5 25q15 12 22 21t7 24q0 11 -7.5 17t-22.5 6q-20 0 -33 -14t-13 -36v-5q-17 0 -26.5 6.5t-9.5 18.5q0 25 28 45.5t62 20.5q27 0 46 -14t19 -39
q0 -26 -10 -39t-30 -28q-15 -11 -22.5 -19t-9.5 -21q-4 -22 -27 -22q-4 0 -16 2z" />
    <glyph glyph-name="Ohorn" unicode="&#x1a0;" horiz-adv-x="698" 
d="M740.5 626q-30.5 -38 -83.5 -58q11 -31 11 -67q0 -24 -4 -45l-37 -209q-20 -116 -104.5 -186t-219.5 -70q-71 0 -125 25.5t-83.5 72.5t-29.5 110q0 25 4 48l37 209q21 119 104 186t220 67q76 0 133 -30.5t84 -84.5q41 21 58.5 52t28.5 94q37 0 37 -35q0 -41 -30.5 -79z
M618 501q0 76 -50 119t-146 43q-116 0 -182.5 -55t-83.5 -153l-37 -208q-5 -28 -5 -50q0 -76 49 -118t148 -42q110 0 179.5 56.5t86.5 153.5l37 208q4 21 4 46z" />
    <glyph glyph-name="uni1EDA" unicode="&#x1eda;" horiz-adv-x="698" 
d="M740.5 626q-30.5 -38 -83.5 -58q11 -31 11 -67q0 -24 -4 -45l-37 -209q-20 -116 -104.5 -186t-219.5 -70q-71 0 -125 25.5t-83.5 72.5t-29.5 110q0 25 4 48l37 209q21 119 104 186t220 67q76 0 133 -30.5t84 -84.5q41 21 58.5 52t28.5 94q37 0 37 -35q0 -41 -30.5 -79z
M618 501q0 76 -50 119t-146 43q-116 0 -182.5 -55t-83.5 -153l-37 -208q-5 -28 -5 -50q0 -76 49 -118t148 -42q110 0 179.5 56.5t86.5 153.5l37 208q4 21 4 46zM521 903q9 12 22 18t41 6h28l-135 -140q-9 -9 -17.5 -12t-34.5 -3z" />
    <glyph glyph-name="uni1EE2" unicode="&#x1ee2;" horiz-adv-x="698" 
d="M740.5 626q-30.5 -38 -83.5 -58q11 -31 11 -67q0 -24 -4 -45l-37 -209q-20 -116 -104.5 -186t-219.5 -70q-71 0 -125 25.5t-83.5 72.5t-29.5 110q0 25 4 48l37 209q21 119 104 186t220 67q76 0 133 -30.5t84 -84.5q41 21 58.5 52t28.5 94q37 0 37 -35q0 -41 -30.5 -79z
M618 501q0 76 -50 119t-146 43q-116 0 -182.5 -55t-83.5 -153l-37 -208q-5 -28 -5 -50q0 -76 49 -118t148 -42q110 0 179.5 56.5t86.5 153.5l37 208q4 21 4 46zM261 -151.5q-9 8.5 -9 22.5q0 20 14 34t34 14q15 0 23.5 -9t8.5 -23q0 -19 -13.5 -33t-32.5 -14q-16 0 -25 8.5z
" />
    <glyph glyph-name="uni1EDC" unicode="&#x1edc;" horiz-adv-x="698" 
d="M740.5 626q-30.5 -38 -83.5 -58q11 -31 11 -67q0 -24 -4 -45l-37 -209q-20 -116 -104.5 -186t-219.5 -70q-71 0 -125 25.5t-83.5 72.5t-29.5 110q0 25 4 48l37 209q21 119 104 186t220 67q76 0 133 -30.5t84 -84.5q41 21 58.5 52t28.5 94q37 0 37 -35q0 -41 -30.5 -79z
M618 501q0 76 -50 119t-146 43q-116 0 -182.5 -55t-83.5 -153l-37 -208q-5 -28 -5 -50q0 -76 49 -118t148 -42q110 0 179.5 56.5t86.5 153.5l37 208q4 21 4 46zM449.5 775q-7.5 3 -13.5 12l-88 141h28q23 0 36 -5t19 -19l51 -132q-25 0 -32.5 3z" />
    <glyph glyph-name="uni1EDE" unicode="&#x1ede;" horiz-adv-x="698" 
d="M740.5 626q-30.5 -38 -83.5 -58q11 -31 11 -67q0 -24 -4 -45l-37 -209q-20 -116 -104.5 -186t-219.5 -70q-71 0 -125 25.5t-83.5 72.5t-29.5 110q0 25 4 48l37 209q21 119 104 186t220 67q76 0 133 -30.5t84 -84.5q41 21 58.5 52t28.5 94q37 0 37 -35q0 -41 -30.5 -79z
M618 501q0 76 -50 119t-146 43q-116 0 -182.5 -55t-83.5 -153l-37 -208q-5 -28 -5 -50q0 -76 49 -118t148 -42q110 0 179.5 56.5t86.5 153.5l37 208q4 21 4 46zM436 797q4 19 13.5 31t25.5 25q15 12 22 21t7 24q0 11 -7.5 17t-22.5 6q-20 0 -33 -14t-13 -36v-5
q-17 0 -26.5 6.5t-9.5 18.5q0 25 28 45.5t62 20.5q27 0 46 -14t19 -39q0 -26 -10 -39t-30 -28q-15 -11 -22.5 -19t-9.5 -21q-4 -22 -27 -22q-4 0 -16 2z" />
    <glyph glyph-name="uni1EE0" unicode="&#x1ee0;" horiz-adv-x="698" 
d="M740.5 626q-30.5 -38 -83.5 -58q11 -31 11 -67q0 -24 -4 -45l-37 -209q-20 -116 -104.5 -186t-219.5 -70q-71 0 -125 25.5t-83.5 72.5t-29.5 110q0 25 4 48l37 209q21 119 104 186t220 67q76 0 133 -30.5t84 -84.5q41 21 58.5 52t28.5 94q37 0 37 -35q0 -41 -30.5 -79z
M618 501q0 76 -50 119t-146 43q-116 0 -182.5 -55t-83.5 -153l-37 -208q-5 -28 -5 -50q0 -76 49 -118t148 -42q110 0 179.5 56.5t86.5 153.5l37 208q4 21 4 46zM331 787q-7 8 -7 19q0 28 24 48.5t58 20.5q21 0 36 -9t34 -27q14 -13 24 -19.5t21 -6.5q18 0 28 11.5t10 31.5
q0 8 -2 16q8 3 14 3q10 0 16.5 -8t6.5 -20q0 -28 -24 -48t-57 -20q-22 0 -37.5 9t-35.5 27q-14 13 -23 19t-20 6q-16 0 -27 -10.5t-11 -29.5q0 -10 3 -19q-6 -2 -14 -2q-10 0 -17 8z" />
    <glyph glyph-name="Ohungarumlaut" unicode="&#x150;" horiz-adv-x="698" 
d="M178 16.5q-54 25.5 -83.5 72.5t-29.5 110q0 25 4 48l37 209q21 119 104 186t220 67q70 0 124 -26t84 -73.5t30 -108.5q0 -25 -4 -45l-37 -209q-20 -116 -104.5 -186t-219.5 -70q-71 0 -125 25.5zM490.5 93.5q69.5 56.5 86.5 153.5l37 208q4 21 4 46q0 76 -50 119t-146 43
q-116 0 -182.5 -55t-83.5 -153l-37 -208q-5 -28 -5 -50q0 -76 49 -118t148 -42q110 0 179.5 56.5zM419 904q9 12 22 18t40 6h29l-137 -141q-9 -9 -19 -12t-34 -3zM596 904q10 13 24.5 18.5t38.5 5.5h30l-139 -141q-9 -9 -18 -12t-35 -3z" />
    <glyph glyph-name="Omacron" unicode="&#x14c;" horiz-adv-x="698" 
d="M178 16.5q-54 25.5 -83.5 72.5t-29.5 110q0 25 4 48l37 209q21 119 104 186t220 67q70 0 124 -26t84 -73.5t30 -108.5q0 -25 -4 -45l-37 -209q-20 -116 -104.5 -186t-219.5 -70q-71 0 -125 25.5zM490.5 93.5q69.5 56.5 86.5 153.5l37 208q4 21 4 46q0 76 -50 119t-146 43
q-116 0 -182.5 -55t-83.5 -153l-37 -208q-5 -28 -5 -50q0 -76 49 -118t148 -42q110 0 179.5 56.5zM323.5 832.5q15.5 11.5 37.5 11.5h236q-4 -21 -19.5 -32.5t-38.5 -11.5h-235q4 21 19.5 32.5z" />
    <glyph glyph-name="Oslash" unicode="&#xd8;" horiz-adv-x="698" 
d="M668 505q0 -26 -4 -49l-37 -209q-13 -74 -58 -132.5t-114 -91t-153 -32.5q-78 0 -133 29l-33 -49q-22 -31 -44 -31q-13 0 -25 8l65 96q-33 27 -50 66t-17 87q0 27 4 50l37 209q13 74 57 131.5t113 89.5t153 32q80 0 136 -29l38 56q22 31 45 31q12 0 25 -7l-71 -104
q66 -55 66 -151zM115 200q0 -73 45 -115l378 555q-48 23 -117 23q-110 0 -179 -56t-86 -152l-37 -208q-4 -21 -4 -47zM618 501q0 73 -44 114l-378 -555q46 -23 115 -23q110 0 179.5 56.5t86.5 153.5l37 208q4 21 4 46z" />
    <glyph glyph-name="Oslashacute" unicode="&#x1fe;" horiz-adv-x="698" 
d="M668 505q0 -26 -4 -49l-37 -209q-13 -74 -58 -132.5t-114 -91t-153 -32.5q-78 0 -133 29l-33 -49q-22 -31 -44 -31q-13 0 -25 8l65 96q-33 27 -50 66t-17 87q0 27 4 50l37 209q13 74 57 131.5t113 89.5t153 32q80 0 136 -29l38 56q22 31 45 31q12 0 25 -7l-71 -104
q66 -55 66 -151zM115 200q0 -73 45 -115l378 555q-48 23 -117 23q-110 0 -179 -56t-86 -152l-37 -208q-4 -21 -4 -47zM618 501q0 73 -44 114l-378 -555q46 -23 115 -23q110 0 179.5 56.5t86.5 153.5l37 208q4 21 4 46zM512 903q9 12 22 18t41 6h28l-135 -140
q-9 -9 -17.5 -12t-34.5 -3z" />
    <glyph glyph-name="Otilde" unicode="&#xd5;" horiz-adv-x="698" 
d="M178 16.5q-54 25.5 -83.5 72.5t-29.5 110q0 25 4 48l37 209q21 119 104 186t220 67q70 0 124 -26t84 -73.5t30 -108.5q0 -25 -4 -45l-37 -209q-20 -116 -104.5 -186t-219.5 -70q-71 0 -125 25.5zM490.5 93.5q69.5 56.5 86.5 153.5l37 208q4 21 4 46q0 76 -50 119t-146 43
q-116 0 -182.5 -55t-83.5 -153l-37 -208q-5 -28 -5 -50q0 -76 49 -118t148 -42q110 0 179.5 56.5zM322 787q-7 8 -7 19q0 28 24 48.5t58 20.5q21 0 36 -9t34 -27q14 -13 24 -19.5t21 -6.5q18 0 28 11.5t10 31.5q0 8 -2 16q8 3 14 3q10 0 16.5 -8t6.5 -20q0 -28 -24 -48
t-57 -20q-22 0 -37.5 9t-35.5 27q-14 13 -23 19t-20 6q-16 0 -27 -10.5t-11 -29.5q0 -10 3 -19q-6 -2 -14 -2q-10 0 -17 8z" />
    <glyph glyph-name="OE" unicode="&#x152;" horiz-adv-x="1117" 
d="M128 47.5q-63 56.5 -63 150.5q0 26 4 49l37 209q13 74 57 131.5t113 89.5t154 32q75 0 129.5 -26.5t81.5 -74.5l12 67q2 11 11 18t19 7h438q-4 -22 -19 -34t-39 -12h-365l-49 -278h295q-4 -24 -20 -35.5t-39 -11.5h-244l-50 -283h386q42 0 42 -35q0 -7 -1 -11h-458
q-11 0 -17.5 7.5t-4.5 18.5l12 69q-45 -49 -109 -76.5t-138 -27.5q-112 0 -175 56.5zM490.5 93.5q69.5 56.5 86.5 152.5l37 210q4 21 4 46q0 76 -50 118.5t-146 42.5q-111 0 -180 -56t-86 -152l-37 -208q-4 -21 -4 -47q0 -76 49.5 -119.5t146.5 -43.5q110 0 179.5 56.5z" />
    <glyph glyph-name="P" unicode="P" horiz-adv-x="672" 
d="M155 675q2 11 10.5 18t19.5 7h307q83 0 127 -41t44 -120q0 -71 -31.5 -128t-87 -89.5t-124.5 -32.5h-282l-43 -243q-5 -26 -20.5 -40.5t-40.5 -14.5zM428 335q83 0 133 53t50 141q0 64 -31 94.5t-96 30.5h-282l-56 -319h282z" />
    <glyph glyph-name="Thorn" unicode="&#xde;" horiz-adv-x="596" 
d="M159 700q42 0 42 -40q0 -10 -1 -15l-16 -91h206q80 0 126 -42t46 -115q0 -70 -30.5 -126t-84 -87.5t-120.5 -31.5h-214l-18 -106q-4 -27 -20 -41t-41 -14zM327 198q51 0 93 24.5t66 68t24 96.5q0 62 -31 91.5t-97 29.5h-206l-55 -310h206z" />
    <glyph glyph-name="Q" unicode="Q" horiz-adv-x="698" 
d="M451 22q-68 -31 -148 -31q-112 0 -175 56.5t-63 150.5q0 26 4 49l37 209q22 121 108 187t216 66q112 0 175 -55.5t63 -148.5q0 -26 -4 -49l-37 -209q-11 -63 -46 -115.5t-87 -86.5q14 -20 33.5 -27.5t53.5 -5.5q-5 -18 -19 -29.5t-33 -11.5q-53 0 -78 51zM542.5 153.5
q25.5 41.5 34.5 93.5l37 208q5 28 5 50q0 75 -48.5 116.5t-148.5 41.5q-111 0 -180 -56t-86 -152l-37 -208q70 25 125 25q89 0 146 -45.5t87 -142.5q40 28 65.5 69.5zM434 60q-29 92 -75 129.5t-123 37.5q-59 0 -121 -26q-1 -78 47 -121t149 -43q68 0 123 23z" />
    <glyph glyph-name="R" unicode="R" horiz-adv-x="659" 
d="M155 675q2 11 10.5 18t19.5 7h286q75 0 120 -43t45 -115q0 -69 -38.5 -124.5t-106.5 -84.5v-3q36 -14 56 -46t20 -75q0 -15 -3 -32l-23 -131q-5 -26 -20.5 -40.5t-40.5 -14.5l32 180q3 20 3 36q0 49 -27 75t-79 26h-268l-46 -262q-5 -26 -20.5 -40.5t-40.5 -14.5z
M411 355q47 0 86.5 24.5t62.5 67t23 93.5q0 114 -119 114h-262l-53 -299h262z" />
    <glyph glyph-name="Racute" unicode="&#x154;" horiz-adv-x="659" 
d="M155 675q2 11 10.5 18t19.5 7h286q75 0 120 -43t45 -115q0 -69 -38.5 -124.5t-106.5 -84.5v-3q36 -14 56 -46t20 -75q0 -15 -3 -32l-23 -131q-5 -26 -20.5 -40.5t-40.5 -14.5l32 180q3 20 3 36q0 49 -27 75t-79 26h-268l-46 -262q-5 -26 -20.5 -40.5t-40.5 -14.5z
M411 355q47 0 86.5 24.5t62.5 67t23 93.5q0 114 -119 114h-262l-53 -299h262zM494 903q9 12 22 18t41 6h28l-135 -140q-9 -9 -17.5 -12t-34.5 -3z" />
    <glyph glyph-name="Rcaron" unicode="&#x158;" horiz-adv-x="659" 
d="M155 675q2 11 10.5 18t19.5 7h286q75 0 120 -43t45 -115q0 -69 -38.5 -124.5t-106.5 -84.5v-3q36 -14 56 -46t20 -75q0 -15 -3 -32l-23 -131q-5 -26 -20.5 -40.5t-40.5 -14.5l32 180q3 20 3 36q0 49 -27 75t-79 26h-268l-46 -262q-5 -26 -20.5 -40.5t-40.5 -14.5z
M411 355q47 0 86.5 24.5t62.5 67t23 93.5q0 114 -119 114h-262l-53 -299h262zM531 915q12 12 31 12q16 0 29 -10l-151 -134q-7 -7 -17 -7t-15 7l-103 134q16 10 33 10q18 0 27 -12l66 -96z" />
    <glyph glyph-name="uni0156" unicode="&#x156;" horiz-adv-x="659" 
d="M155 675q2 11 10.5 18t19.5 7h286q75 0 120 -43t45 -115q0 -69 -38.5 -124.5t-106.5 -84.5v-3q36 -14 56 -46t20 -75q0 -15 -3 -32l-23 -131q-5 -26 -20.5 -40.5t-40.5 -14.5l32 180q3 20 3 36q0 49 -27 75t-79 26h-268l-46 -262q-5 -26 -20.5 -40.5t-40.5 -14.5z
M411 355q47 0 86.5 24.5t62.5 67t23 93.5q0 114 -119 114h-262l-53 -299h262zM251 -213q20 32 25 62q-4 -1 -10.5 -2.5t-11.5 -1.5q-20 0 -30.5 10t-10.5 28q0 26 18.5 45.5t43.5 19.5q20 0 33 -13t13 -33q0 -48 -28.5 -95.5t-67.5 -81.5q-4 -4 -12 -4q-9 0 -15 4
q33 30 53 62z" />
    <glyph glyph-name="uni1E5A" unicode="&#x1e5a;" horiz-adv-x="659" 
d="M155 675q2 11 10.5 18t19.5 7h286q75 0 120 -43t45 -115q0 -69 -38.5 -124.5t-106.5 -84.5v-3q36 -14 56 -46t20 -75q0 -15 -3 -32l-23 -131q-5 -26 -20.5 -40.5t-40.5 -14.5l32 180q3 20 3 36q0 49 -27 75t-79 26h-268l-46 -262q-5 -26 -20.5 -40.5t-40.5 -14.5z
M411 355q47 0 86.5 24.5t62.5 67t23 93.5q0 114 -119 114h-262l-53 -299h262zM234 -151.5q-9 8.5 -9 22.5q0 20 14 34t34 14q15 0 23.5 -9t8.5 -23q0 -19 -13.5 -33t-32.5 -14q-16 0 -25 8.5z" />
    <glyph glyph-name="uni1E5C" unicode="&#x1e5c;" horiz-adv-x="659" 
d="M155 675q2 11 10.5 18t19.5 7h286q75 0 120 -43t45 -115q0 -69 -38.5 -124.5t-106.5 -84.5v-3q36 -14 56 -46t20 -75q0 -15 -3 -32l-23 -131q-5 -26 -20.5 -40.5t-40.5 -14.5l32 180q3 20 3 36q0 49 -27 75t-79 26h-268l-46 -262q-5 -26 -20.5 -40.5t-40.5 -14.5z
M411 355q47 0 86.5 24.5t62.5 67t23 93.5q0 114 -119 114h-262l-53 -299h262zM234 -151.5q-9 8.5 -9 22.5q0 20 14 34t34 14q15 0 23.5 -9t8.5 -23q0 -19 -13.5 -33t-32.5 -14q-16 0 -25 8.5zM305.5 832.5q15.5 11.5 37.5 11.5h236q-4 -21 -19.5 -32.5t-38.5 -11.5h-235
q4 21 19.5 32.5z" />
    <glyph glyph-name="uni1E5E" unicode="&#x1e5e;" horiz-adv-x="659" 
d="M155 675q2 11 10.5 18t19.5 7h286q75 0 120 -43t45 -115q0 -69 -38.5 -124.5t-106.5 -84.5v-3q36 -14 56 -46t20 -75q0 -15 -3 -32l-23 -131q-5 -26 -20.5 -40.5t-40.5 -14.5l32 180q3 20 3 36q0 49 -27 75t-79 26h-268l-46 -262q-5 -26 -20.5 -40.5t-40.5 -14.5z
M411 355q47 0 86.5 24.5t62.5 67t23 93.5q0 114 -119 114h-262l-53 -299h262zM145.5 -73.5q15.5 11.5 37.5 11.5h236q-4 -21 -20 -32.5t-38 -11.5h-235q4 21 19.5 32.5z" />
    <glyph glyph-name="S" unicode="S" horiz-adv-x="638" 
d="M154.5 14q-54.5 23 -82.5 60t-28 80q0 40 12.5 59.5t40.5 22.5q-4 -30 -4 -43q0 -76 49 -115t144 -39q111 0 170.5 40.5t59.5 116.5q0 51 -46 83t-150 55q-209 45 -209 176q0 60 33 105t93 69.5t140 24.5q64 0 116 -19t81.5 -53t29.5 -76q0 -37 -14.5 -58.5t-41.5 -24.5
q4 19 4 41q0 68 -47 106t-132 38q-61 0 -108 -18.5t-73 -51.5t-26 -76q0 -50 42 -82.5t131 -51.5q118 -25 174 -69t56 -111q0 -102 -74.5 -157t-210.5 -55q-75 0 -129.5 23z" />
    <glyph glyph-name="Sacute" unicode="&#x15a;" horiz-adv-x="638" 
d="M154.5 14q-54.5 23 -82.5 60t-28 80q0 40 12.5 59.5t40.5 22.5q-4 -30 -4 -43q0 -76 49 -115t144 -39q111 0 170.5 40.5t59.5 116.5q0 51 -46 83t-150 55q-209 45 -209 176q0 60 33 105t93 69.5t140 24.5q64 0 116 -19t81.5 -53t29.5 -76q0 -37 -14.5 -58.5t-41.5 -24.5
q4 19 4 41q0 68 -47 106t-132 38q-61 0 -108 -18.5t-73 -51.5t-26 -76q0 -50 42 -82.5t131 -51.5q118 -25 174 -69t56 -111q0 -102 -74.5 -157t-210.5 -55q-75 0 -129.5 23zM460 903q9 12 22 18t41 6h28l-135 -140q-9 -9 -17.5 -12t-34.5 -3z" />
    <glyph glyph-name="Scaron" unicode="&#x160;" horiz-adv-x="638" 
d="M154.5 14q-54.5 23 -82.5 60t-28 80q0 40 12.5 59.5t40.5 22.5q-4 -30 -4 -43q0 -76 49 -115t144 -39q111 0 170.5 40.5t59.5 116.5q0 51 -46 83t-150 55q-209 45 -209 176q0 60 33 105t93 69.5t140 24.5q64 0 116 -19t81.5 -53t29.5 -76q0 -37 -14.5 -58.5t-41.5 -24.5
q4 19 4 41q0 68 -47 106t-132 38q-61 0 -108 -18.5t-73 -51.5t-26 -76q0 -50 42 -82.5t131 -51.5q118 -25 174 -69t56 -111q0 -102 -74.5 -157t-210.5 -55q-75 0 -129.5 23zM497 915q12 12 31 12q16 0 29 -10l-151 -134q-7 -7 -17 -7t-15 7l-103 134q16 10 33 10
q18 0 27 -12l66 -96z" />
    <glyph glyph-name="Scedilla" unicode="&#x15e;" horiz-adv-x="638" 
d="M589.5 502.5q-14.5 -21.5 -41.5 -24.5q4 19 4 41q0 68 -47 106t-132 38q-61 0 -108 -18.5t-73 -51.5t-26 -76q0 -50 42 -82.5t131 -51.5q118 -25 174 -69t56 -111q0 -101 -72.5 -155.5t-205.5 -56.5l-33 -38q37 0 56 -17t19 -44q0 -40 -30 -67t-75 -27q-32 0 -51.5 14
t-19.5 32q0 10 10 23q10 -15 26 -24t35 -9q25 0 40 14t15 37q0 15 -11 23.5t-27 8.5q-6 0 -14.5 -1.5t-15.5 -4.5q-1 -1 -4 -1q-5 0 -9 4t-4 10q0 7 5 13l46 55q-65 5 -111 28.5t-70 59t-24 74.5q0 40 12.5 59.5t40.5 22.5q-4 -30 -4 -43q0 -76 49 -115t144 -39
q111 0 170.5 40.5t59.5 116.5q0 51 -46 83t-150 55q-209 45 -209 176q0 60 33 105t93 69.5t140 24.5q64 0 116 -19t81.5 -53t29.5 -76q0 -37 -14.5 -58.5z" />
    <glyph glyph-name="Scircumflex" unicode="&#x15c;" horiz-adv-x="638" 
d="M154.5 14q-54.5 23 -82.5 60t-28 80q0 40 12.5 59.5t40.5 22.5q-4 -30 -4 -43q0 -76 49 -115t144 -39q111 0 170.5 40.5t59.5 116.5q0 51 -46 83t-150 55q-209 45 -209 176q0 60 33 105t93 69.5t140 24.5q64 0 116 -19t81.5 -53t29.5 -76q0 -37 -14.5 -58.5t-41.5 -24.5
q4 19 4 41q0 68 -47 106t-132 38q-61 0 -108 -18.5t-73 -51.5t-26 -76q0 -50 42 -82.5t131 -51.5q118 -25 174 -69t56 -111q0 -102 -74.5 -157t-210.5 -55q-75 0 -129.5 23zM278 777q-18 0 -29 10l151 133q7 7 17 7q9 0 14 -7l104 -133q-17 -11 -33 -11q-20 0 -27 12l-66 96
l-100 -96q-11 -11 -31 -11z" />
    <glyph glyph-name="uni0218" unicode="&#x218;" horiz-adv-x="638" 
d="M154.5 14q-54.5 23 -82.5 60t-28 80q0 40 12.5 59.5t40.5 22.5q-4 -30 -4 -43q0 -76 49 -115t144 -39q111 0 170.5 40.5t59.5 116.5q0 51 -46 83t-150 55q-209 45 -209 176q0 60 33 105t93 69.5t140 24.5q64 0 116 -19t81.5 -53t29.5 -76q0 -37 -14.5 -58.5t-41.5 -24.5
q4 19 4 41q0 68 -47 106t-132 38q-61 0 -108 -18.5t-73 -51.5t-26 -76q0 -50 42 -82.5t131 -51.5q118 -25 174 -69t56 -111q0 -102 -74.5 -157t-210.5 -55q-75 0 -129.5 23zM240 -212q20 32 25 62q-4 -1 -10.5 -2.5t-11.5 -1.5q-20 0 -30.5 10t-10.5 28q0 26 18.5 45.5
t43.5 19.5q20 0 33 -13t13 -33q0 -48 -28.5 -95.5t-67.5 -81.5q-4 -4 -12 -4q-9 0 -15 4q33 30 53 62z" />
    <glyph glyph-name="uni1E60" unicode="&#x1e60;" horiz-adv-x="638" 
d="M154.5 14q-54.5 23 -82.5 60t-28 80q0 40 12.5 59.5t40.5 22.5q-4 -30 -4 -43q0 -76 49 -115t144 -39q111 0 170.5 40.5t59.5 116.5q0 51 -46 83t-150 55q-209 45 -209 176q0 60 33 105t93 69.5t140 24.5q64 0 116 -19t81.5 -53t29.5 -76q0 -37 -14.5 -58.5t-41.5 -24.5
q4 19 4 41q0 68 -47 106t-132 38q-61 0 -108 -18.5t-73 -51.5t-26 -76q0 -50 42 -82.5t131 -51.5q118 -25 174 -69t56 -111q0 -102 -74.5 -157t-210.5 -55q-75 0 -129.5 23zM368 798.5q-9 8.5 -9 22.5q0 20 14 34t34 14q15 0 23.5 -9t8.5 -23q0 -19 -13.5 -33t-32.5 -14
q-16 0 -25 8.5z" />
    <glyph glyph-name="uni1E62" unicode="&#x1e62;" horiz-adv-x="638" 
d="M154.5 14q-54.5 23 -82.5 60t-28 80q0 40 12.5 59.5t40.5 22.5q-4 -30 -4 -43q0 -76 49 -115t144 -39q111 0 170.5 40.5t59.5 116.5q0 51 -46 83t-150 55q-209 45 -209 176q0 60 33 105t93 69.5t140 24.5q64 0 116 -19t81.5 -53t29.5 -76q0 -37 -14.5 -58.5t-41.5 -24.5
q4 19 4 41q0 68 -47 106t-132 38q-61 0 -108 -18.5t-73 -51.5t-26 -76q0 -50 42 -82.5t131 -51.5q118 -25 174 -69t56 -111q0 -102 -74.5 -157t-210.5 -55q-75 0 -129.5 23zM223 -150.5q-9 8.5 -9 22.5q0 20 14 34t34 14q15 0 23.5 -9t8.5 -23q0 -19 -13.5 -33t-32.5 -14
q-16 0 -25 8.5z" />
    <glyph glyph-name="uni1E9E" unicode="&#x1e9e;" horiz-adv-x="584" 
d="M485 548q2 9 2 26q0 94 -138 94q-77 0 -122 -43.5t-62 -133.5l-81 -450q-9 -49 -55 -50l90 500q39 218 240 218q80 0 128 -37.5t48 -99.5q0 -19 -2 -28l-165 -149q156 -33 156 -155q0 -70 -31 -127t-85.5 -89.5t-123.5 -32.5q-49 0 -80 13t-31 33q0 5 2.5 10.5t6.5 9.5
q13 -11 42 -17.5t65 -6.5q55 0 96.5 26t64 73.5t22.5 108.5q0 54 -35.5 81t-118.5 37l8 45z" />
    <glyph glyph-name="uni018F" unicode="&#x18f;" horiz-adv-x="673" 
d="M161.5 17.5q-53.5 26.5 -83.5 73.5t-30 106q0 12 4 40l16 93q2 11 14 21.5t24 10.5h463l18 103q5 28 5 49q0 147 -191 147q-103 0 -171.5 -48t-82.5 -128q-14 0 -22 9t-8 25q0 50 40 94t106.5 70t143.5 26q72 0 125.5 -24.5t82.5 -69.5t29 -105q0 -24 -4 -44l-40 -230
q-12 -70 -57.5 -126t-113.5 -87.5t-146 -31.5q-68 0 -121.5 26.5zM460.5 93.5q69.5 54.5 86.5 145.5l13 73h-443l-13 -73q-4 -20 -4 -42q0 -74 50.5 -116t140.5 -42q100 0 169.5 54.5z" />
    <glyph glyph-name="T" unicode="T" horiz-adv-x="633" 
d="M362 654h-247q9 46 55 46h497q-8 -46 -55 -46h-199l-107 -608q-4 -26 -20.5 -40.5t-40.5 -14.5z" />
    <glyph glyph-name="Tbar" unicode="&#x166;" horiz-adv-x="633" 
d="M667 700q-8 -46 -55 -46h-199l-44 -252h129q-5 -27 -19.5 -38t-38.5 -11h-80l-54 -307q-4 -26 -20.5 -40.5t-40.5 -14.5l64 362h-131q5 27 19.5 38t38.5 11h82l44 252h-247q9 46 55 46h497z" />
    <glyph glyph-name="Tcaron" unicode="&#x164;" horiz-adv-x="633" 
d="M362 654h-247q9 46 55 46h497q-8 -46 -55 -46h-199l-107 -608q-4 -26 -20.5 -40.5t-40.5 -14.5zM516 915q12 12 31 12q16 0 29 -10l-151 -134q-7 -7 -17 -7t-15 7l-103 134q16 10 33 10q18 0 27 -12l66 -96z" />
    <glyph glyph-name="uni0162" unicode="&#x162;" horiz-adv-x="633" 
d="M165 -189.5q-20 13.5 -20 32.5q0 10 10 23q23 -33 61 -33q25 0 40 14t15 37q0 15 -10.5 23.5t-26.5 8.5q-7 0 -16.5 -2t-13.5 -4q-2 -1 -5 -1q-5 0 -9 4t-4 10q0 7 5 13l56 67l115 651h-246q4 22 18 34t37 12h496q-4 -22 -18 -34t-37 -12h-199l-110 -625
q-3 -17 -20.5 -39.5t-36.5 -37.5q38 0 56.5 -17t18.5 -44q0 -40 -30 -67t-74 -27q-32 0 -52 13.5z" />
    <glyph glyph-name="uni021A" unicode="&#x21a;" horiz-adv-x="633" 
d="M362 654h-247q9 46 55 46h497q-8 -46 -55 -46h-199l-107 -608q-4 -26 -20.5 -40.5t-40.5 -14.5zM237 -213q20 32 25 62q-4 -1 -10.5 -2.5t-11.5 -1.5q-20 0 -30.5 10t-10.5 28q0 26 18.5 45.5t43.5 19.5q20 0 33 -13t13 -33q0 -48 -28.5 -95.5t-67.5 -81.5q-4 -4 -12 -4
q-9 0 -15 4q33 30 53 62z" />
    <glyph glyph-name="uni1E6C" unicode="&#x1e6c;" horiz-adv-x="633" 
d="M362 654h-247q9 46 55 46h497q-8 -46 -55 -46h-199l-107 -608q-4 -26 -20.5 -40.5t-40.5 -14.5zM220 -151.5q-9 8.5 -9 22.5q0 20 14 34t34 14q15 0 23.5 -9t8.5 -23q0 -19 -13.5 -33t-32.5 -14q-16 0 -25 8.5z" />
    <glyph glyph-name="uni1E6E" unicode="&#x1e6e;" horiz-adv-x="633" 
d="M362 654h-247q9 46 55 46h497q-8 -46 -55 -46h-199l-107 -608q-4 -26 -20.5 -40.5t-40.5 -14.5zM131.5 -73.5q15.5 11.5 37.5 11.5h236q-4 -21 -20 -32.5t-38 -11.5h-235q4 21 19.5 32.5z" />
    <glyph glyph-name="U" unicode="U" horiz-adv-x="676" 
d="M173.5 15.5q-51.5 24.5 -79.5 67.5t-28 99q0 19 3 38l77 434q4 26 20 40.5t40 14.5l-86 -489q-4 -26 -4 -38q0 -68 48 -105.5t136 -37.5q97 0 163 49t81 132l77 434q5 26 20 40.5t40 14.5l-86 -489q-12 -69 -53.5 -121t-106 -80t-143.5 -28q-67 0 -118.5 24.5z" />
    <glyph glyph-name="Uacute" unicode="&#xda;" horiz-adv-x="676" 
d="M173.5 15.5q-51.5 24.5 -79.5 67.5t-28 99q0 19 3 38l77 434q4 26 20 40.5t40 14.5l-86 -489q-4 -26 -4 -38q0 -68 48 -105.5t136 -37.5q97 0 163 49t81 132l77 434q5 26 20 40.5t40 14.5l-86 -489q-12 -69 -53.5 -121t-106 -80t-143.5 -28q-67 0 -118.5 24.5zM501 903
q9 12 22 18t41 6h28l-135 -140q-9 -9 -17.5 -12t-34.5 -3z" />
    <glyph glyph-name="Ubreve" unicode="&#x16c;" horiz-adv-x="676" 
d="M173.5 15.5q-51.5 24.5 -79.5 67.5t-28 99q0 19 3 38l77 434q4 26 20 40.5t40 14.5l-86 -489q-4 -26 -4 -38q0 -68 48 -105.5t136 -37.5q97 0 163 49t81 132l77 434q5 26 20 40.5t40 14.5l-86 -489q-12 -69 -53.5 -121t-106 -80t-143.5 -28q-67 0 -118.5 24.5zM373 784
q-28 12 -46.5 35.5t-18.5 55.5q0 30 14 45.5t38 15.5q-3 -19 -3 -37q0 -82 81 -82q101 0 121 119q18 0 27.5 -9t9.5 -23q0 -32 -24.5 -62.5t-63 -50t-78.5 -19.5q-29 0 -57 12z" />
    <glyph glyph-name="uni01D3" unicode="&#x1d3;" horiz-adv-x="676" 
d="M173.5 15.5q-51.5 24.5 -79.5 67.5t-28 99q0 19 3 38l77 434q4 26 20 40.5t40 14.5l-86 -489q-4 -26 -4 -38q0 -68 48 -105.5t136 -37.5q97 0 163 49t81 132l77 434q5 26 20 40.5t40 14.5l-86 -489q-12 -69 -53.5 -121t-106 -80t-143.5 -28q-67 0 -118.5 24.5zM538 915
q12 12 31 12q16 0 29 -10l-151 -134q-7 -7 -17 -7t-15 7l-103 134q16 10 33 10q18 0 27 -12l66 -96z" />
    <glyph glyph-name="Ucircumflex" unicode="&#xdb;" horiz-adv-x="676" 
d="M173.5 15.5q-51.5 24.5 -79.5 67.5t-28 99q0 19 3 38l77 434q4 26 20 40.5t40 14.5l-86 -489q-4 -26 -4 -38q0 -68 48 -105.5t136 -37.5q97 0 163 49t81 132l77 434q5 26 20 40.5t40 14.5l-86 -489q-12 -69 -53.5 -121t-106 -80t-143.5 -28q-67 0 -118.5 24.5zM319 777
q-18 0 -29 10l151 133q7 7 17 7q9 0 14 -7l104 -133q-17 -11 -33 -11q-20 0 -27 12l-66 96l-100 -96q-11 -11 -31 -11z" />
    <glyph glyph-name="Udieresis" unicode="&#xdc;" horiz-adv-x="676" 
d="M173.5 15.5q-51.5 24.5 -79.5 67.5t-28 99q0 19 3 38l77 434q4 26 20 40.5t40 14.5l-86 -489q-4 -26 -4 -38q0 -68 48 -105.5t136 -37.5q97 0 163 49t81 132l77 434q5 26 20 40.5t40 14.5l-86 -489q-12 -69 -53.5 -121t-106 -80t-143.5 -28q-67 0 -118.5 24.5zM320 798.5
q-9 8.5 -9 22.5q0 20 14 34t34 14q15 0 23.5 -9t8.5 -23q0 -19 -13.5 -33t-32.5 -14q-16 0 -25 8.5zM497 798.5q-9 8.5 -9 22.5q0 20 14 34t34 14q15 0 23.5 -9t8.5 -23q0 -19 -13.5 -33t-32.5 -14q-16 0 -25 8.5z" />
    <glyph glyph-name="uni01D7" unicode="&#x1d7;" horiz-adv-x="676" 
d="M173.5 15.5q-51.5 24.5 -79.5 67.5t-28 99q0 19 3 38l77 434q4 26 20 40.5t40 14.5l-86 -489q-4 -26 -4 -38q0 -68 48 -105.5t136 -37.5q97 0 163 49t81 132l77 434q5 26 20 40.5t40 14.5l-86 -489q-12 -69 -53.5 -121t-106 -80t-143.5 -28q-67 0 -118.5 24.5zM503 1002
q10 13 23.5 19t38.5 6h20l-106 -105q-10 -9 -19.5 -12t-28.5 -4zM318 798.5q-9 8.5 -9 22.5q0 20 14 34t34 14q15 0 23.5 -9t8.5 -23q0 -19 -13.5 -33t-32.5 -14q-16 0 -25 8.5zM495 798.5q-9 8.5 -9 22.5q0 20 14 34t34 14q15 0 23.5 -9t8.5 -23q0 -19 -13.5 -33t-32.5 -14
q-16 0 -25 8.5z" />
    <glyph glyph-name="uni01D9" unicode="&#x1d9;" horiz-adv-x="676" 
d="M173.5 15.5q-51.5 24.5 -79.5 67.5t-28 99q0 19 3 38l77 434q4 26 20 40.5t40 14.5l-86 -489q-4 -26 -4 -38q0 -68 48 -105.5t136 -37.5q97 0 163 49t81 132l77 434q5 26 20 40.5t40 14.5l-86 -489q-12 -69 -53.5 -121t-106 -80t-143.5 -28q-67 0 -118.5 24.5zM552 1017
q12 12 31 12q18 0 29 -10l-146 -130q-8 -7 -17 -7t-15 7l-100 130q18 10 34 10q18 0 27 -12l62 -92zM319 798.5q-9 8.5 -9 22.5q0 20 14 34t34 14q15 0 24 -9t9 -23q0 -19 -13.5 -33t-33.5 -14q-16 0 -25 8.5zM496.5 799q-9.5 9 -9.5 23q0 19 14.5 33t34.5 14q15 0 23.5 -9
t8.5 -23q0 -19 -13.5 -33t-32.5 -14q-16 0 -25.5 9z" />
    <glyph glyph-name="uni01DB" unicode="&#x1db;" horiz-adv-x="676" 
d="M173.5 15.5q-51.5 24.5 -79.5 67.5t-28 99q0 19 3 38l77 434q4 26 20 40.5t40 14.5l-86 -489q-4 -26 -4 -38q0 -68 48 -105.5t136 -37.5q97 0 163 49t81 132l77 434q5 26 20 40.5t40 14.5l-86 -489q-12 -69 -53.5 -121t-106 -80t-143.5 -28q-67 0 -118.5 24.5zM446 910
q-6 2 -13 12l-68 105h19q24 0 35.5 -6t16.5 -19l39 -96q-23 2 -29 4zM319 798.5q-9 8.5 -9 22.5q0 20 14 34t34 14q15 0 23.5 -9t8.5 -23q0 -19 -13.5 -33t-32.5 -14q-16 0 -25 8.5zM496 798.5q-9 8.5 -9 22.5q0 20 14 34t34 14q15 0 23.5 -9t8.5 -23q0 -19 -13.5 -33
t-32.5 -14q-16 0 -25 8.5z" />
    <glyph glyph-name="uni01D5" unicode="&#x1d5;" horiz-adv-x="676" 
d="M173.5 15.5q-51.5 24.5 -79.5 67.5t-28 99q0 19 3 38l77 434q4 26 20 40.5t40 14.5l-86 -489q-4 -26 -4 -38q0 -68 48 -105.5t136 -37.5q97 0 163 49t81 132l77 434q5 26 20 40.5t40 14.5l-86 -489q-12 -69 -53.5 -121t-106 -80t-143.5 -28q-67 0 -118.5 24.5zM320 798.5
q-9 8.5 -9 22.5q0 20 14 34t34 14q15 0 23.5 -9t8.5 -23q0 -19 -13.5 -33t-32.5 -14q-16 0 -25 8.5zM497 798.5q-9 8.5 -9 22.5q0 20 14 34t34 14q15 0 23.5 -9t8.5 -23q0 -19 -13.5 -33t-32.5 -14q-16 0 -25 8.5zM336.5 968.5q15.5 11.5 37.5 11.5h236q-4 -21 -19.5 -32.5
t-38.5 -11.5h-235q4 21 19.5 32.5z" />
    <glyph glyph-name="uni1EE4" unicode="&#x1ee4;" horiz-adv-x="676" 
d="M173.5 15.5q-51.5 24.5 -79.5 67.5t-28 99q0 19 3 38l77 434q4 26 20 40.5t40 14.5l-86 -489q-4 -26 -4 -38q0 -68 48 -105.5t136 -37.5q97 0 163 49t81 132l77 434q5 26 20 40.5t40 14.5l-86 -489q-12 -69 -53.5 -121t-106 -80t-143.5 -28q-67 0 -118.5 24.5z
M240 -151.5q-9 8.5 -9 22.5q0 20 14 34t34 14q15 0 23.5 -9t8.5 -23q0 -19 -13.5 -33t-32.5 -14q-16 0 -25 8.5z" />
    <glyph glyph-name="Ugrave" unicode="&#xd9;" horiz-adv-x="676" 
d="M173.5 15.5q-51.5 24.5 -79.5 67.5t-28 99q0 19 3 38l77 434q4 26 20 40.5t40 14.5l-86 -489q-4 -26 -4 -38q0 -68 48 -105.5t136 -37.5q97 0 163 49t81 132l77 434q5 26 20 40.5t40 14.5l-86 -489q-12 -69 -53.5 -121t-106 -80t-143.5 -28q-67 0 -118.5 24.5zM429.5 775
q-7.5 3 -13.5 12l-88 141h28q23 0 36 -5t19 -19l51 -132q-25 0 -32.5 3z" />
    <glyph glyph-name="uni1EE6" unicode="&#x1ee6;" horiz-adv-x="676" 
d="M173.5 15.5q-51.5 24.5 -79.5 67.5t-28 99q0 19 3 38l77 434q4 26 20 40.5t40 14.5l-86 -489q-4 -26 -4 -38q0 -68 48 -105.5t136 -37.5q97 0 163 49t81 132l77 434q5 26 20 40.5t40 14.5l-86 -489q-12 -69 -53.5 -121t-106 -80t-143.5 -28q-67 0 -118.5 24.5zM416 797
q4 19 13.5 31t25.5 25q15 12 22 21t7 24q0 11 -7.5 17t-22.5 6q-20 0 -33 -14t-13 -36v-5q-17 0 -26.5 6.5t-9.5 18.5q0 25 28 45.5t62 20.5q27 0 46 -14t19 -39q0 -26 -10 -39t-30 -28q-15 -11 -22.5 -19t-9.5 -21q-4 -22 -27 -22q-4 0 -16 2z" />
    <glyph glyph-name="Uhorn" unicode="&#x1af;" horiz-adv-x="676" 
d="M746.5 646q-32.5 -39 -86.5 -58l-65 -368q-12 -69 -53.5 -121t-106 -80t-143.5 -28q-67 0 -118.5 24.5t-79.5 67.5t-28 99q0 19 3 38l77 434q4 26 20 40.5t40 14.5l-86 -489q-4 -26 -4 -38q0 -68 48 -105.5t136 -37.5q97 0 163 49t81 132l77 434q5 26 20 40.5t40 14.5
l-15 -87q35 20 50 50.5t26 89.5q37 0 37 -35q0 -42 -32.5 -81z" />
    <glyph glyph-name="uni1EE8" unicode="&#x1ee8;" horiz-adv-x="676" 
d="M746.5 646q-32.5 -39 -86.5 -58l-65 -368q-12 -69 -53.5 -121t-106 -80t-143.5 -28q-67 0 -118.5 24.5t-79.5 67.5t-28 99q0 19 3 38l77 434q4 26 20 40.5t40 14.5l-86 -489q-4 -26 -4 -38q0 -68 48 -105.5t136 -37.5q97 0 163 49t81 132l77 434q5 26 20 40.5t40 14.5
l-15 -87q35 20 50 50.5t26 89.5q37 0 37 -35q0 -42 -32.5 -81zM505 903q9 12 22 18t41 6h28l-135 -140q-9 -9 -17.5 -12t-34.5 -3z" />
    <glyph glyph-name="uni1EF0" unicode="&#x1ef0;" horiz-adv-x="676" 
d="M746.5 646q-32.5 -39 -86.5 -58l-65 -368q-12 -69 -53.5 -121t-106 -80t-143.5 -28q-67 0 -118.5 24.5t-79.5 67.5t-28 99q0 19 3 38l77 434q4 26 20 40.5t40 14.5l-86 -489q-4 -26 -4 -38q0 -68 48 -105.5t136 -37.5q97 0 163 49t81 132l77 434q5 26 20 40.5t40 14.5
l-15 -87q35 20 50 50.5t26 89.5q37 0 37 -35q0 -42 -32.5 -81zM245 -151.5q-9 8.5 -9 22.5q0 20 14 34t34 14q15 0 23.5 -9t8.5 -23q0 -19 -13.5 -33t-32.5 -14q-16 0 -25 8.5z" />
    <glyph glyph-name="uni1EEA" unicode="&#x1eea;" horiz-adv-x="676" 
d="M746.5 646q-32.5 -39 -86.5 -58l-65 -368q-12 -69 -53.5 -121t-106 -80t-143.5 -28q-67 0 -118.5 24.5t-79.5 67.5t-28 99q0 19 3 38l77 434q4 26 20 40.5t40 14.5l-86 -489q-4 -26 -4 -38q0 -68 48 -105.5t136 -37.5q97 0 163 49t81 132l77 434q5 26 20 40.5t40 14.5
l-15 -87q35 20 50 50.5t26 89.5q37 0 37 -35q0 -42 -32.5 -81zM433.5 775q-7.5 3 -13.5 12l-88 141h28q23 0 36 -5t19 -19l51 -132q-25 0 -32.5 3z" />
    <glyph glyph-name="uni1EEC" unicode="&#x1eec;" horiz-adv-x="676" 
d="M746.5 646q-32.5 -39 -86.5 -58l-65 -368q-12 -69 -53.5 -121t-106 -80t-143.5 -28q-67 0 -118.5 24.5t-79.5 67.5t-28 99q0 19 3 38l77 434q4 26 20 40.5t40 14.5l-86 -489q-4 -26 -4 -38q0 -68 48 -105.5t136 -37.5q97 0 163 49t81 132l77 434q5 26 20 40.5t40 14.5
l-15 -87q35 20 50 50.5t26 89.5q37 0 37 -35q0 -42 -32.5 -81zM420 797q4 19 13.5 31t25.5 25q15 12 22 21t7 24q0 11 -7.5 17t-22.5 6q-20 0 -33 -14t-13 -36v-5q-17 0 -26.5 6.5t-9.5 18.5q0 25 28 45.5t62 20.5q27 0 46 -14t19 -39q0 -26 -10 -39t-30 -28
q-15 -11 -22.5 -19t-9.5 -21q-4 -22 -27 -22q-4 0 -16 2z" />
    <glyph glyph-name="uni1EEE" unicode="&#x1eee;" horiz-adv-x="676" 
d="M746.5 646q-32.5 -39 -86.5 -58l-65 -368q-12 -69 -53.5 -121t-106 -80t-143.5 -28q-67 0 -118.5 24.5t-79.5 67.5t-28 99q0 19 3 38l77 434q4 26 20 40.5t40 14.5l-86 -489q-4 -26 -4 -38q0 -68 48 -105.5t136 -37.5q97 0 163 49t81 132l77 434q5 26 20 40.5t40 14.5
l-15 -87q35 20 50 50.5t26 89.5q37 0 37 -35q0 -42 -32.5 -81zM315 787q-7 8 -7 19q0 28 24 48.5t58 20.5q21 0 36 -9t34 -27q14 -13 24 -19.5t21 -6.5q18 0 28 11.5t10 31.5q0 8 -2 16q8 3 14 3q10 0 16.5 -8t6.5 -20q0 -28 -24 -48t-57 -20q-22 0 -37.5 9t-35.5 27
q-14 13 -23 19t-20 6q-16 0 -27 -10.5t-11 -29.5q0 -10 3 -19q-6 -2 -14 -2q-10 0 -17 8z" />
    <glyph glyph-name="Uhungarumlaut" unicode="&#x170;" horiz-adv-x="676" 
d="M173.5 15.5q-51.5 24.5 -79.5 67.5t-28 99q0 19 3 38l77 434q4 26 20 40.5t40 14.5l-86 -489q-4 -26 -4 -38q0 -68 48 -105.5t136 -37.5q97 0 163 49t81 132l77 434q5 26 20 40.5t40 14.5l-86 -489q-12 -69 -53.5 -121t-106 -80t-143.5 -28q-67 0 -118.5 24.5zM408 904
q9 12 22 18t40 6h29l-137 -141q-9 -9 -19 -12t-34 -3zM585 904q10 13 24.5 18.5t38.5 5.5h30l-139 -141q-9 -9 -18 -12t-35 -3z" />
    <glyph glyph-name="Umacron" unicode="&#x16a;" horiz-adv-x="676" 
d="M173.5 15.5q-51.5 24.5 -79.5 67.5t-28 99q0 19 3 38l77 434q4 26 20 40.5t40 14.5l-86 -489q-4 -26 -4 -38q0 -68 48 -105.5t136 -37.5q97 0 163 49t81 132l77 434q5 26 20 40.5t40 14.5l-86 -489q-12 -69 -53.5 -121t-106 -80t-143.5 -28q-67 0 -118.5 24.5z
M312.5 832.5q15.5 11.5 37.5 11.5h236q-4 -21 -19.5 -32.5t-38.5 -11.5h-235q4 21 19.5 32.5z" />
    <glyph glyph-name="Uogonek" unicode="&#x172;" horiz-adv-x="676" 
d="M641 694.5q15 14.5 40 14.5l-86 -489q-19 -103 -98.5 -165t-197.5 -64q-35 -27 -56 -60t-21 -62q0 -34 34 -34q24 0 39 18q2 -9 1 -12q-4 -12 -21.5 -23t-38.5 -11q-29 0 -45.5 16t-16.5 41q0 32 28.5 67.5t73.5 59.5q-63 3 -110.5 28t-73.5 67.5t-26 95.5q0 19 3 38
l77 434q4 26 20 40.5t40 14.5l-86 -489q-4 -26 -4 -38q0 -68 48 -105.5t136 -37.5q97 0 163 49t81 132l77 434q5 26 20 40.5z" />
    <glyph glyph-name="Uring" unicode="&#x16e;" horiz-adv-x="676" 
d="M173.5 15.5q-51.5 24.5 -79.5 67.5t-28 99q0 19 3 38l77 434q4 26 20 40.5t40 14.5l-86 -489q-4 -26 -4 -38q0 -68 48 -105.5t136 -37.5q97 0 163 49t81 132l77 434q5 26 20 40.5t40 14.5l-86 -489q-12 -69 -53.5 -121t-106 -80t-143.5 -28q-67 0 -118.5 24.5zM368 764
q-21 19 -21 50q0 43 31.5 72.5t76.5 29.5q34 0 54.5 -19t20.5 -50q0 -43 -30.5 -72.5t-74.5 -29.5q-36 0 -57 19zM475 796q19 19 19 45q0 20 -12.5 32t-32.5 12q-26 0 -45 -19t-19 -47q0 -19 12.5 -30.5t32.5 -11.5q26 0 45 19z" />
    <glyph glyph-name="Utilde" unicode="&#x168;" horiz-adv-x="676" 
d="M173.5 15.5q-51.5 24.5 -79.5 67.5t-28 99q0 19 3 38l77 434q4 26 20 40.5t40 14.5l-86 -489q-4 -26 -4 -38q0 -68 48 -105.5t136 -37.5q97 0 163 49t81 132l77 434q5 26 20 40.5t40 14.5l-86 -489q-12 -69 -53.5 -121t-106 -80t-143.5 -28q-67 0 -118.5 24.5zM311 787
q-7 8 -7 19q0 28 24 48.5t58 20.5q21 0 36 -9t34 -27q14 -13 24 -19.5t21 -6.5q18 0 28 11.5t10 31.5q0 8 -2 16q8 3 14 3q10 0 16.5 -8t6.5 -20q0 -28 -24 -48t-57 -20q-22 0 -37.5 9t-35.5 27q-14 13 -23 19t-20 6q-16 0 -27 -10.5t-11 -29.5q0 -10 3 -19q-6 -2 -14 -2
q-10 0 -17 8z" />
    <glyph glyph-name="V" unicode="V" horiz-adv-x="680" 
d="M272 6l-137 699q11 4 16 4q16 0 27.5 -10t14.5 -26l110 -599l-20 -37l4 -2l341 638q9 16 24.5 26t32.5 10q10 0 20 -4l-385 -699q-9 -15 -26 -15q-19 0 -22 15z" />
    <glyph glyph-name="W" unicode="W" horiz-adv-x="925" 
d="M204 3q-12 12 -14 33l-55 671l12 2q19 0 33 -11.5t15 -27.5l33 -579l-17 -38l3 -2l302 642q8 16 26 16q9 0 14.5 -4.5t6.5 -11.5l68 -601l-16 -38l4 -2l259 618q7 18 23.5 28.5t34.5 10.5q6 0 14 -2l-291 -671q-19 -45 -57 -45l-76 659h-4l4 -34l-291 -625q-19 0 -31 12z
" />
    <glyph glyph-name="Wacute" unicode="&#x1e82;" horiz-adv-x="925" 
d="M204 3q-12 12 -14 33l-55 671l12 2q19 0 33 -11.5t15 -27.5l33 -579l-17 -38l3 -2l302 642q8 16 26 16q9 0 14.5 -4.5t6.5 -11.5l68 -601l-16 -38l4 -2l259 618q7 18 23.5 28.5t34.5 10.5q6 0 14 -2l-291 -671q-19 -45 -57 -45l-76 659h-4l4 -34l-291 -625q-19 0 -31 12z
M626 903q9 12 22 18t41 6h28l-135 -140q-9 -9 -17.5 -12t-34.5 -3z" />
    <glyph glyph-name="Wcircumflex" unicode="&#x174;" horiz-adv-x="925" 
d="M204 3q-12 12 -14 33l-55 671l12 2q19 0 33 -11.5t15 -27.5l33 -579l-17 -38l3 -2l302 642q8 16 26 16q9 0 14.5 -4.5t6.5 -11.5l68 -601l-16 -38l4 -2l259 618q7 18 23.5 28.5t34.5 10.5q6 0 14 -2l-291 -671q-19 -45 -57 -45l-76 659h-4l4 -34l-291 -625q-19 0 -31 12z
M444 777q-18 0 -29 10l151 133q7 7 17 7q9 0 14 -7l104 -133q-17 -11 -33 -11q-20 0 -27 12l-66 96l-100 -96q-11 -11 -31 -11z" />
    <glyph glyph-name="Wdieresis" unicode="&#x1e84;" horiz-adv-x="925" 
d="M204 3q-12 12 -14 33l-55 671l12 2q19 0 33 -11.5t15 -27.5l33 -579l-17 -38l3 -2l302 642q8 16 26 16q9 0 14.5 -4.5t6.5 -11.5l68 -601l-16 -38l4 -2l259 618q7 18 23.5 28.5t34.5 10.5q6 0 14 -2l-291 -671q-19 -45 -57 -45l-76 659h-4l4 -34l-291 -625q-19 0 -31 12z
M445 798.5q-9 8.5 -9 22.5q0 20 14 34t34 14q15 0 23.5 -9t8.5 -23q0 -19 -13.5 -33t-32.5 -14q-16 0 -25 8.5zM622 798.5q-9 8.5 -9 22.5q0 20 14 34t34 14q15 0 23.5 -9t8.5 -23q0 -19 -13.5 -33t-32.5 -14q-16 0 -25 8.5z" />
    <glyph glyph-name="Wgrave" unicode="&#x1e80;" horiz-adv-x="925" 
d="M204 3q-12 12 -14 33l-55 671l12 2q19 0 33 -11.5t15 -27.5l33 -579l-17 -38l3 -2l302 642q8 16 26 16q9 0 14.5 -4.5t6.5 -11.5l68 -601l-16 -38l4 -2l259 618q7 18 23.5 28.5t34.5 10.5q6 0 14 -2l-291 -671q-19 -45 -57 -45l-76 659h-4l4 -34l-291 -625q-19 0 -31 12z
M554.5 775q-7.5 3 -13.5 12l-88 141h28q23 0 36 -5t19 -19l51 -132q-25 0 -32.5 3z" />
    <glyph glyph-name="X" unicode="X" horiz-adv-x="684" 
d="M10 -2l323 363l-185 340q15 8 24 8q12 0 22.5 -6.5t16.5 -17.5l153 -281l-22 -24l3 -2l273 307q10 11 22.5 17.5t23.5 6.5q19 0 29 -8l-304 -340l195 -363q-15 -7 -24 -7q-24 0 -39 26l-164 306l-272 -306q-10 -12 -23.5 -19t-24.5 -7q-13 0 -27 7z" />
    <glyph glyph-name="Y" unicode="Y" horiz-adv-x="663" 
d="M305 258l-172 441q14 10 26 10t21.5 -5.5t13.5 -15.5l139 -384l-20 -28l5 -2l296 414q7 10 18.5 15.5t24.5 5.5q18 0 29 -10l-330 -441l-37 -212q-4 -27 -20 -41t-41 -14z" />
    <glyph glyph-name="Yacute" unicode="&#xdd;" horiz-adv-x="663" 
d="M305 258l-172 441q14 10 26 10t21.5 -5.5t13.5 -15.5l139 -384l-20 -28l5 -2l296 414q7 10 18.5 15.5t24.5 5.5q18 0 29 -10l-330 -441l-37 -212q-4 -27 -20 -41t-41 -14zM494 903q9 12 22 18t41 6h28l-135 -140q-9 -9 -17.5 -12t-34.5 -3z" />
    <glyph glyph-name="Ycircumflex" unicode="&#x176;" horiz-adv-x="663" 
d="M305 258l-172 441q14 10 26 10t21.5 -5.5t13.5 -15.5l139 -384l-20 -28l5 -2l296 414q7 10 18.5 15.5t24.5 5.5q18 0 29 -10l-330 -441l-37 -212q-4 -27 -20 -41t-41 -14zM312 777q-18 0 -29 10l151 133q7 7 17 7q9 0 14 -7l104 -133q-17 -11 -33 -11q-20 0 -27 12
l-66 96l-100 -96q-11 -11 -31 -11z" />
    <glyph glyph-name="Ydieresis" unicode="&#x178;" horiz-adv-x="663" 
d="M305 258l-172 441q14 10 26 10t21.5 -5.5t13.5 -15.5l139 -384l-20 -28l5 -2l296 414q7 10 18.5 15.5t24.5 5.5q18 0 29 -10l-330 -441l-37 -212q-4 -27 -20 -41t-41 -14zM313 798.5q-9 8.5 -9 22.5q0 20 14 34t34 14q15 0 23.5 -9t8.5 -23q0 -19 -13.5 -33t-32.5 -14
q-16 0 -25 8.5zM490 798.5q-9 8.5 -9 22.5q0 20 14 34t34 14q15 0 23.5 -9t8.5 -23q0 -19 -13.5 -33t-32.5 -14q-16 0 -25 8.5z" />
    <glyph glyph-name="uni1E8E" unicode="&#x1e8e;" horiz-adv-x="663" 
d="M305 258l-172 441q14 10 26 10t21.5 -5.5t13.5 -15.5l139 -384l-20 -28l5 -2l296 414q7 10 18.5 15.5t24.5 5.5q18 0 29 -10l-330 -441l-37 -212q-4 -27 -20 -41t-41 -14zM402 798.5q-9 8.5 -9 22.5q0 20 14 34t34 14q15 0 23.5 -9t8.5 -23q0 -19 -13.5 -33t-32.5 -14
q-16 0 -25 8.5z" />
    <glyph glyph-name="uni1EF4" unicode="&#x1ef4;" horiz-adv-x="663" 
d="M305 258l-172 441q14 10 26 10t21.5 -5.5t13.5 -15.5l139 -384l-20 -28l5 -2l296 414q7 10 18.5 15.5t24.5 5.5q18 0 29 -10l-330 -441l-37 -212q-4 -27 -20 -41t-41 -14zM234 -151.5q-9 8.5 -9 22.5q0 20 14 34t34 14q15 0 23.5 -9t8.5 -23q0 -19 -13.5 -33t-32.5 -14
q-16 0 -25 8.5z" />
    <glyph glyph-name="Ygrave" unicode="&#x1ef2;" horiz-adv-x="663" 
d="M305 258l-172 441q14 10 26 10t21.5 -5.5t13.5 -15.5l139 -384l-20 -28l5 -2l296 414q7 10 18.5 15.5t24.5 5.5q18 0 29 -10l-330 -441l-37 -212q-4 -27 -20 -41t-41 -14zM422.5 775q-7.5 3 -13.5 12l-88 141h28q23 0 36 -5t19 -19l51 -132q-25 0 -32.5 3z" />
    <glyph glyph-name="uni1EF6" unicode="&#x1ef6;" horiz-adv-x="663" 
d="M305 258l-172 441q14 10 26 10t21.5 -5.5t13.5 -15.5l139 -384l-20 -28l5 -2l296 414q7 10 18.5 15.5t24.5 5.5q18 0 29 -10l-330 -441l-37 -212q-4 -27 -20 -41t-41 -14zM409 797q4 19 13.5 31t25.5 25q15 12 22 21t7 24q0 11 -7.5 17t-22.5 6q-20 0 -33 -14t-13 -36v-5
q-17 0 -26.5 6.5t-9.5 18.5q0 25 28 45.5t62 20.5q27 0 46 -14t19 -39q0 -26 -10 -39t-30 -28q-15 -11 -22.5 -19t-9.5 -21q-4 -22 -27 -22q-4 0 -16 2z" />
    <glyph glyph-name="uni1EF8" unicode="&#x1ef8;" horiz-adv-x="663" 
d="M305 258l-172 441q14 10 26 10t21.5 -5.5t13.5 -15.5l139 -384l-20 -28l5 -2l296 414q7 10 18.5 15.5t24.5 5.5q18 0 29 -10l-330 -441l-37 -212q-4 -27 -20 -41t-41 -14zM304 787q-7 8 -7 19q0 28 24 48.5t58 20.5q21 0 36 -9t34 -27q14 -13 24 -19.5t21 -6.5
q18 0 28 11.5t10 31.5q0 8 -2 16q8 3 14 3q10 0 16.5 -8t6.5 -20q0 -28 -24 -48t-57 -20q-22 0 -37.5 9t-35.5 27q-14 13 -23 19t-20 6q-16 0 -27 -10.5t-11 -29.5q0 -10 3 -19q-6 -2 -14 -2q-10 0 -17 8z" />
    <glyph glyph-name="Z" unicode="Z" horiz-adv-x="670" 
d="M19.5 5.5q-5.5 5.5 -5.5 13.5q0 12 7 19l608 637l-2 2l-20 -21h-413q-42 0 -42 33q0 7 1 11h510q19 0 19 -17q0 -14 -7 -21l-608 -637l2 -2l20 21h441q41 0 41 -33q0 -7 -1 -11h-537q-8 0 -13.5 5.5z" />
    <glyph glyph-name="Zacute" unicode="&#x179;" horiz-adv-x="670" 
d="M19.5 5.5q-5.5 5.5 -5.5 13.5q0 12 7 19l608 637l-2 2l-20 -21h-413q-42 0 -42 33q0 7 1 11h510q19 0 19 -17q0 -14 -7 -21l-608 -637l2 -2l20 21h441q41 0 41 -33q0 -7 -1 -11h-537q-8 0 -13.5 5.5zM498 903q9 12 22 18t41 6h28l-135 -140q-9 -9 -17.5 -12t-34.5 -3z
" />
    <glyph glyph-name="Zcaron" unicode="&#x17d;" horiz-adv-x="670" 
d="M19.5 5.5q-5.5 5.5 -5.5 13.5q0 12 7 19l608 637l-2 2l-20 -21h-413q-42 0 -42 33q0 7 1 11h510q19 0 19 -17q0 -14 -7 -21l-608 -637l2 -2l20 21h441q41 0 41 -33q0 -7 -1 -11h-537q-8 0 -13.5 5.5zM535 915q12 12 31 12q16 0 29 -10l-151 -134q-7 -7 -17 -7t-15 7
l-103 134q16 10 33 10q18 0 27 -12l66 -96z" />
    <glyph glyph-name="Zdotaccent" unicode="&#x17b;" horiz-adv-x="670" 
d="M19.5 5.5q-5.5 5.5 -5.5 13.5q0 12 7 19l608 637l-2 2l-20 -21h-413q-42 0 -42 33q0 7 1 11h510q19 0 19 -17q0 -14 -7 -21l-608 -637l2 -2l20 21h441q41 0 41 -33q0 -7 -1 -11h-537q-8 0 -13.5 5.5zM406 798.5q-9 8.5 -9 22.5q0 20 14 34t34 14q15 0 23.5 -9t8.5 -23
q0 -19 -13.5 -33t-32.5 -14q-16 0 -25 8.5z" />
    <glyph glyph-name="uni1E92" unicode="&#x1e92;" horiz-adv-x="670" 
d="M19.5 5.5q-5.5 5.5 -5.5 13.5q0 12 7 19l608 637l-2 2l-20 -21h-413q-42 0 -42 33q0 7 1 11h510q19 0 19 -17q0 -14 -7 -21l-608 -637l2 -2l20 21h441q41 0 41 -33q0 -7 -1 -11h-537q-8 0 -13.5 5.5zM237 -151.5q-9 8.5 -9 22.5q0 20 14 34t34 14q15 0 23.5 -9t8.5 -23
q0 -19 -13.5 -33t-32.5 -14q-16 0 -25 8.5z" />
    <glyph glyph-name="a" unicode="a" horiz-adv-x="523" 
d="M83 27.5q-47 36.5 -47 98.5q0 58 28.5 103.5t80.5 71t120 25.5q103 0 152 -78l3 1q-8 16 -14 24l12 67q3 17 3 32q0 93 -119 93q-60 0 -105 -26t-74 -73q-15 15 -15 34q0 29 32 54t79 40t90 15q73 0 115 -35.5t42 -98.5q0 -16 -3 -36l-53 -298q-5 -24 -19 -37t-36 -13
l10 54q12 10 18.5 17.5t7.5 8.5l-3 3q-35 -36 -82.5 -59.5t-101.5 -23.5q-74 0 -121 36.5zM302.5 53.5q41.5 18.5 64.5 52t23 75.5q0 48 -34 74t-101 26q-78 0 -124 -41t-46 -108q0 -47 31.5 -72t91.5 -25q53 0 94.5 18.5z" />
    <glyph glyph-name="aacute" unicode="&#xe1;" horiz-adv-x="523" 
d="M83 27.5q-47 36.5 -47 98.5q0 58 28.5 103.5t80.5 71t120 25.5q103 0 152 -78l3 1q-8 16 -14 24l12 67q3 17 3 32q0 93 -119 93q-60 0 -105 -26t-74 -73q-15 15 -15 34q0 29 32 54t79 40t90 15q73 0 115 -35.5t42 -98.5q0 -16 -3 -36l-53 -298q-5 -24 -19 -37t-36 -13
l10 54q12 10 18.5 17.5t7.5 8.5l-3 3q-35 -36 -82.5 -59.5t-101.5 -23.5q-74 0 -121 36.5zM302.5 53.5q41.5 18.5 64.5 52t23 75.5q0 48 -34 74t-101 26q-78 0 -124 -41t-46 -108q0 -47 31.5 -72t91.5 -25q53 0 94.5 18.5zM391 703q9 12 22 18t41 6h28l-135 -140
q-9 -9 -17.5 -12t-34.5 -3z" />
    <glyph glyph-name="abreve" unicode="&#x103;" horiz-adv-x="523" 
d="M83 27.5q-47 36.5 -47 98.5q0 58 28.5 103.5t80.5 71t120 25.5q103 0 152 -78l3 1q-8 16 -14 24l12 67q3 17 3 32q0 93 -119 93q-60 0 -105 -26t-74 -73q-15 15 -15 34q0 29 32 54t79 40t90 15q73 0 115 -35.5t42 -98.5q0 -16 -3 -36l-53 -298q-5 -24 -19 -37t-36 -13
l10 54q12 10 18.5 17.5t7.5 8.5l-3 3q-35 -36 -82.5 -59.5t-101.5 -23.5q-74 0 -121 36.5zM302.5 53.5q41.5 18.5 64.5 52t23 75.5q0 48 -34 74t-101 26q-78 0 -124 -41t-46 -108q0 -47 31.5 -72t91.5 -25q53 0 94.5 18.5zM263 584q-28 12 -46.5 35.5t-18.5 55.5
q0 30 14 45.5t38 15.5q-3 -19 -3 -37q0 -82 81 -82q101 0 121 119q18 0 27.5 -9t9.5 -23q0 -32 -24.5 -62.5t-63 -50t-78.5 -19.5q-29 0 -57 12z" />
    <glyph glyph-name="uni1EAF" unicode="&#x1eaf;" horiz-adv-x="523" 
d="M83 27.5q-47 36.5 -47 98.5q0 58 28.5 103.5t80.5 71t120 25.5q103 0 152 -78l3 1q-8 16 -14 24l12 67q3 17 3 32q0 93 -119 93q-60 0 -105 -26t-74 -73q-15 15 -15 34q0 29 32 54t79 40t90 15q73 0 115 -35.5t42 -98.5q0 -16 -3 -36l-53 -298q-5 -24 -19 -37t-36 -13
l10 54q12 10 18.5 17.5t7.5 8.5l-3 3q-35 -36 -82.5 -59.5t-101.5 -23.5q-74 0 -121 36.5zM302.5 53.5q41.5 18.5 64.5 52t23 75.5q0 48 -34 74t-101 26q-78 0 -124 -41t-46 -108q0 -47 31.5 -72t91.5 -25q53 0 94.5 18.5zM391 801q10 13 23.5 19t37.5 6h20l-105 -105
q-10 -10 -18.5 -12.5t-29.5 -3.5zM243.5 592.5q-33.5 23.5 -33.5 65.5q0 26 12.5 40t33.5 14q-3 -18 -3 -32q0 -72 73 -72q45 0 70.5 25t35.5 79q16 0 24 -8t8 -21q0 -28 -21 -54.5t-54.5 -43t-69.5 -16.5q-42 0 -75.5 23.5z" />
    <glyph glyph-name="uni1EB7" unicode="&#x1eb7;" horiz-adv-x="523" 
d="M83 27.5q-47 36.5 -47 98.5q0 58 28.5 103.5t80.5 71t120 25.5q103 0 152 -78l3 1q-8 16 -14 24l12 67q3 17 3 32q0 93 -119 93q-60 0 -105 -26t-74 -73q-15 15 -15 34q0 29 32 54t79 40t90 15q73 0 115 -35.5t42 -98.5q0 -16 -3 -36l-53 -298q-5 -24 -19 -37t-36 -13
l10 54q12 10 18.5 17.5t7.5 8.5l-3 3q-35 -36 -82.5 -59.5t-101.5 -23.5q-74 0 -121 36.5zM302.5 53.5q41.5 18.5 64.5 52t23 75.5q0 48 -34 74t-101 26q-78 0 -124 -41t-46 -108q0 -47 31.5 -72t91.5 -25q53 0 94.5 18.5zM164 -151.5q-9 8.5 -9 22.5q0 20 14 34t34 14
q15 0 23.5 -9t8.5 -23q0 -19 -13.5 -33t-32.5 -14q-16 0 -25 8.5zM263 584q-28 12 -46.5 35.5t-18.5 55.5q0 30 14 45.5t38 15.5q-3 -19 -3 -37q0 -82 81 -82q101 0 121 119q18 0 27.5 -9t9.5 -23q0 -32 -24.5 -62.5t-63 -50t-78.5 -19.5q-29 0 -57 12z" />
    <glyph glyph-name="uni1EB1" unicode="&#x1eb1;" horiz-adv-x="523" 
d="M83 27.5q-47 36.5 -47 98.5q0 58 28.5 103.5t80.5 71t120 25.5q103 0 152 -78l3 1q-8 16 -14 24l12 67q3 17 3 32q0 93 -119 93q-60 0 -105 -26t-74 -73q-15 15 -15 34q0 29 32 54t79 40t90 15q73 0 115 -35.5t42 -98.5q0 -16 -3 -36l-53 -298q-5 -24 -19 -37t-36 -13
l10 54q12 10 18.5 17.5t7.5 8.5l-3 3q-35 -36 -82.5 -59.5t-101.5 -23.5q-74 0 -121 36.5zM302.5 53.5q41.5 18.5 64.5 52t23 75.5q0 48 -34 74t-101 26q-78 0 -124 -41t-46 -108q0 -47 31.5 -72t91.5 -25q53 0 94.5 18.5zM338.5 708q-7.5 3 -14.5 13l-69 105h20
q23 0 35 -5.5t18 -19.5l38 -96q-20 0 -27.5 3zM243.5 592.5q-33.5 23.5 -33.5 65.5q0 26 12.5 40t33.5 14q-3 -18 -3 -32q0 -72 73 -72q45 0 70.5 25t35.5 79q16 0 24 -8t8 -21q0 -28 -21 -54.5t-54.5 -43t-69.5 -16.5q-42 0 -75.5 23.5z" />
    <glyph glyph-name="uni1EB3" unicode="&#x1eb3;" horiz-adv-x="523" 
d="M83 27.5q-47 36.5 -47 98.5q0 58 28.5 103.5t80.5 71t120 25.5q103 0 152 -78l3 1q-8 16 -14 24l12 67q3 17 3 32q0 93 -119 93q-60 0 -105 -26t-74 -73q-15 15 -15 34q0 29 32 54t79 40t90 15q73 0 115 -35.5t42 -98.5q0 -16 -3 -36l-53 -298q-5 -24 -19 -37t-36 -13
l10 54q12 10 18.5 17.5t7.5 8.5l-3 3q-35 -36 -82.5 -59.5t-101.5 -23.5q-74 0 -121 36.5zM302.5 53.5q41.5 18.5 64.5 52t23 75.5q0 48 -34 74t-101 26q-78 0 -124 -41t-46 -108q0 -47 31.5 -72t91.5 -25q53 0 94.5 18.5zM326 697q3 16 10.5 25.5t21.5 21.5q12 10 17.5 17
t5.5 18q0 8 -8.5 13t-22.5 5q-16 0 -28 -9t-12 -28q0 -3 1 -5q-13 0 -20.5 5t-7.5 14q0 20 23 36t51 16q22 0 39 -11.5t17 -31.5t-8 -31t-24 -24q-11 -7 -17 -13.5t-8 -16.5q-3 -19 -23 -19q-7 0 -10 1zM243.5 592.5q-33.5 23.5 -33.5 65.5q0 26 12.5 40t33.5 14
q-3 -18 -3 -32q0 -72 73 -72q45 0 70.5 25t35.5 79q16 0 24 -8t8 -21q0 -28 -21 -54.5t-54.5 -43t-69.5 -16.5q-42 0 -75.5 23.5z" />
    <glyph glyph-name="uni1EB5" unicode="&#x1eb5;" horiz-adv-x="523" 
d="M83 27.5q-47 36.5 -47 98.5q0 58 28.5 103.5t80.5 71t120 25.5q103 0 152 -78l3 1q-8 16 -14 24l12 67q3 17 3 32q0 93 -119 93q-60 0 -105 -26t-74 -73q-15 15 -15 34q0 29 32 54t79 40t90 15q73 0 115 -35.5t42 -98.5q0 -16 -3 -36l-53 -298q-5 -24 -19 -37t-36 -13
l10 54q12 10 18.5 17.5t7.5 8.5l-3 3q-35 -36 -82.5 -59.5t-101.5 -23.5q-74 0 -121 36.5zM302.5 53.5q41.5 18.5 64.5 52t23 75.5q0 48 -34 74t-101 26q-78 0 -124 -41t-46 -108q0 -47 31.5 -72t91.5 -25q53 0 94.5 18.5zM240.5 751q-6.5 7 -6.5 17q0 24 21.5 41.5
t50.5 17.5q18 0 31 -8t31 -23q11 -11 20 -17t18 -6q16 0 25.5 9.5t9.5 24.5q0 11 -3 18q7 2 13 2q9 0 15 -7t6 -17q0 -24 -21.5 -41.5t-51.5 -17.5q-19 0 -32.5 8t-29.5 23q-11 11 -19.5 16.5t-18.5 5.5q-16 0 -25 -10t-9 -27q0 -7 3 -15q-5 -1 -12 -1q-9 0 -15.5 7z
M243.5 592.5q-33.5 23.5 -33.5 65.5q0 26 12.5 40t33.5 14q-3 -18 -3 -32q0 -72 73 -72q45 0 70.5 25t35.5 79q16 0 24 -8t8 -21q0 -28 -21 -54.5t-54.5 -43t-69.5 -16.5q-42 0 -75.5 23.5z" />
    <glyph glyph-name="uni01CE" unicode="&#x1ce;" horiz-adv-x="523" 
d="M83 27.5q-47 36.5 -47 98.5q0 58 28.5 103.5t80.5 71t120 25.5q103 0 152 -78l3 1q-8 16 -14 24l12 67q3 17 3 32q0 93 -119 93q-60 0 -105 -26t-74 -73q-15 15 -15 34q0 29 32 54t79 40t90 15q73 0 115 -35.5t42 -98.5q0 -16 -3 -36l-53 -298q-5 -24 -19 -37t-36 -13
l10 54q12 10 18.5 17.5t7.5 8.5l-3 3q-35 -36 -82.5 -59.5t-101.5 -23.5q-74 0 -121 36.5zM302.5 53.5q41.5 18.5 64.5 52t23 75.5q0 48 -34 74t-101 26q-78 0 -124 -41t-46 -108q0 -47 31.5 -72t91.5 -25q53 0 94.5 18.5zM428 715q12 12 31 12q16 0 29 -10l-151 -134
q-7 -7 -17 -7t-15 7l-103 134q16 10 33 10q18 0 27 -12l66 -96z" />
    <glyph glyph-name="acircumflex" unicode="&#xe2;" horiz-adv-x="523" 
d="M83 27.5q-47 36.5 -47 98.5q0 58 28.5 103.5t80.5 71t120 25.5q103 0 152 -78l3 1q-8 16 -14 24l12 67q3 17 3 32q0 93 -119 93q-60 0 -105 -26t-74 -73q-15 15 -15 34q0 29 32 54t79 40t90 15q73 0 115 -35.5t42 -98.5q0 -16 -3 -36l-53 -298q-5 -24 -19 -37t-36 -13
l10 54q12 10 18.5 17.5t7.5 8.5l-3 3q-35 -36 -82.5 -59.5t-101.5 -23.5q-74 0 -121 36.5zM302.5 53.5q41.5 18.5 64.5 52t23 75.5q0 48 -34 74t-101 26q-78 0 -124 -41t-46 -108q0 -47 31.5 -72t91.5 -25q53 0 94.5 18.5zM209 577q-18 0 -29 10l151 133q7 7 17 7q9 0 14 -7
l104 -133q-17 -11 -33 -11q-20 0 -27 12l-66 96l-100 -96q-11 -11 -31 -11z" />
    <glyph glyph-name="uni1EA5" unicode="&#x1ea5;" horiz-adv-x="523" 
d="M83 27.5q-47 36.5 -47 98.5q0 58 28.5 103.5t80.5 71t120 25.5q103 0 152 -78l3 1q-8 16 -14 24l12 67q3 17 3 32q0 93 -119 93q-60 0 -105 -26t-74 -73q-15 15 -15 34q0 29 32 54t79 40t90 15q73 0 115 -35.5t42 -98.5q0 -16 -3 -36l-53 -298q-5 -24 -19 -37t-36 -13
l10 54q12 10 18.5 17.5t7.5 8.5l-3 3q-35 -36 -82.5 -59.5t-101.5 -23.5q-74 0 -121 36.5zM302.5 53.5q41.5 18.5 64.5 52t23 75.5q0 48 -34 74t-101 26q-78 0 -124 -41t-46 -108q0 -47 31.5 -72t91.5 -25q53 0 94.5 18.5zM487 802q10 13 23.5 19t37.5 6h20l-106 -105
q-10 -9 -19.5 -12t-28.5 -4zM238 588q-11 -11 -29 -11t-31 10l152 133q7 7 17 7q9 0 14 -7l104 -133q-14 -10 -34 -10q-19 0 -26 11l-66 96z" />
    <glyph glyph-name="uni1EAD" unicode="&#x1ead;" horiz-adv-x="523" 
d="M83 27.5q-47 36.5 -47 98.5q0 58 28.5 103.5t80.5 71t120 25.5q103 0 152 -78l3 1q-8 16 -14 24l12 67q3 17 3 32q0 93 -119 93q-60 0 -105 -26t-74 -73q-15 15 -15 34q0 29 32 54t79 40t90 15q73 0 115 -35.5t42 -98.5q0 -16 -3 -36l-53 -298q-5 -24 -19 -37t-36 -13
l10 54q12 10 18.5 17.5t7.5 8.5l-3 3q-35 -36 -82.5 -59.5t-101.5 -23.5q-74 0 -121 36.5zM302.5 53.5q41.5 18.5 64.5 52t23 75.5q0 48 -34 74t-101 26q-78 0 -124 -41t-46 -108q0 -47 31.5 -72t91.5 -25q53 0 94.5 18.5zM164 -151.5q-9 8.5 -9 22.5q0 20 14 34t34 14
q15 0 23.5 -9t8.5 -23q0 -19 -13.5 -33t-32.5 -14q-16 0 -25 8.5zM209 577q-18 0 -29 10l151 133q7 7 17 7q9 0 14 -7l104 -133q-17 -11 -33 -11q-20 0 -27 12l-66 96l-100 -96q-11 -11 -31 -11z" />
    <glyph glyph-name="uni1EA7" unicode="&#x1ea7;" horiz-adv-x="523" 
d="M83 27.5q-47 36.5 -47 98.5q0 58 28.5 103.5t80.5 71t120 25.5q103 0 152 -78l3 1q-8 16 -14 24l12 67q3 17 3 32q0 93 -119 93q-60 0 -105 -26t-74 -73q-15 15 -15 34q0 29 32 54t79 40t90 15q73 0 115 -35.5t42 -98.5q0 -16 -3 -36l-53 -298q-5 -24 -19 -37t-36 -13
l10 54q12 10 18.5 17.5t7.5 8.5l-3 3q-35 -36 -82.5 -59.5t-101.5 -23.5q-74 0 -121 36.5zM302.5 53.5q41.5 18.5 64.5 52t23 75.5q0 48 -34 74t-101 26q-78 0 -124 -41t-46 -108q0 -47 31.5 -72t91.5 -25q53 0 94.5 18.5zM453.5 709.5q-7.5 2.5 -14.5 12.5l-69 105h20
q22 0 34.5 -5.5t18.5 -19.5l38 -96q-20 1 -27.5 3.5zM239 588q-11 -11 -29 -11t-31 10l151 133q7 7 17 7q9 0 14 -7l104 -133q-14 -10 -34 -10q-19 0 -26 11l-66 96z" />
    <glyph glyph-name="uni1EA9" unicode="&#x1ea9;" horiz-adv-x="523" 
d="M83 27.5q-47 36.5 -47 98.5q0 58 28.5 103.5t80.5 71t120 25.5q103 0 152 -78l3 1q-8 16 -14 24l12 67q3 17 3 32q0 93 -119 93q-60 0 -105 -26t-74 -73q-15 15 -15 34q0 29 32 54t79 40t90 15q73 0 115 -35.5t42 -98.5q0 -16 -3 -36l-53 -298q-5 -24 -19 -37t-36 -13
l10 54q12 10 18.5 17.5t7.5 8.5l-3 3q-35 -36 -82.5 -59.5t-101.5 -23.5q-74 0 -121 36.5zM302.5 53.5q41.5 18.5 64.5 52t23 75.5q0 48 -34 74t-101 26q-78 0 -124 -41t-46 -108q0 -47 31.5 -72t91.5 -25q53 0 94.5 18.5zM434 694q3 16 11 26t21 21q11 9 16.5 16.5
t5.5 18.5q0 9 -8 14t-21 5q-17 0 -29 -9.5t-12 -27.5v-5q-13 0 -20.5 5t-7.5 14q0 19 23.5 35t51.5 16q21 0 38 -11t17 -32q0 -20 -8 -31t-24 -22q-12 -10 -17.5 -16t-7.5 -16q-3 -18 -20 -18q-8 0 -12 1zM239 588q-11 -11 -29 -11t-31 10l151 133q7 7 17 7q9 0 14 -7
l104 -133q-14 -10 -34 -10q-19 0 -26 11l-66 96z" />
    <glyph glyph-name="uni1EAB" unicode="&#x1eab;" horiz-adv-x="523" 
d="M83 27.5q-47 36.5 -47 98.5q0 58 28.5 103.5t80.5 71t120 25.5q103 0 152 -78l3 1q-8 16 -14 24l12 67q3 17 3 32q0 93 -119 93q-60 0 -105 -26t-74 -73q-15 15 -15 34q0 29 32 54t79 40t90 15q73 0 115 -35.5t42 -98.5q0 -16 -3 -36l-53 -298q-5 -24 -19 -37t-36 -13
l10 54q12 10 18.5 17.5t7.5 8.5l-3 3q-35 -36 -82.5 -59.5t-101.5 -23.5q-74 0 -121 36.5zM302.5 53.5q41.5 18.5 64.5 52t23 75.5q0 48 -34 74t-101 26q-78 0 -124 -41t-46 -108q0 -47 31.5 -72t91.5 -25q53 0 94.5 18.5zM245.5 750q-6.5 7 -6.5 17q0 24 21.5 42t50.5 18
q19 0 32 -7.5t30 -22.5q12 -11 20.5 -16.5t18.5 -5.5q16 0 25 8.5t9 24.5q0 10 -3 17q8 2 13 2q9 0 15 -7t6 -16q0 -25 -21 -41.5t-51 -16.5q-19 0 -32.5 7.5t-30.5 22.5q-12 11 -20 16t-18 5q-16 0 -25 -10t-9 -27q0 -8 3 -16q-5 -1 -11 -1q-10 0 -16.5 7zM210 577
q-18 0 -31 10l151 133q7 7 17 7q9 0 14 -7l104 -133q-14 -10 -34 -10q-19 0 -26 11l-66 96l-100 -96q-11 -11 -29 -11z" />
    <glyph glyph-name="adieresis" unicode="&#xe4;" horiz-adv-x="523" 
d="M83 27.5q-47 36.5 -47 98.5q0 58 28.5 103.5t80.5 71t120 25.5q103 0 152 -78l3 1q-8 16 -14 24l12 67q3 17 3 32q0 93 -119 93q-60 0 -105 -26t-74 -73q-15 15 -15 34q0 29 32 54t79 40t90 15q73 0 115 -35.5t42 -98.5q0 -16 -3 -36l-53 -298q-5 -24 -19 -37t-36 -13
l10 54q12 10 18.5 17.5t7.5 8.5l-3 3q-35 -36 -82.5 -59.5t-101.5 -23.5q-74 0 -121 36.5zM302.5 53.5q41.5 18.5 64.5 52t23 75.5q0 48 -34 74t-101 26q-78 0 -124 -41t-46 -108q0 -47 31.5 -72t91.5 -25q53 0 94.5 18.5zM210 598.5q-9 8.5 -9 22.5q0 20 14 34t34 14
q15 0 23.5 -9t8.5 -23q0 -19 -13.5 -33t-32.5 -14q-16 0 -25 8.5zM387 598.5q-9 8.5 -9 22.5q0 20 14 34t34 14q15 0 23.5 -9t8.5 -23q0 -19 -13.5 -33t-32.5 -14q-16 0 -25 8.5z" />
    <glyph glyph-name="uni1EA1" unicode="&#x1ea1;" horiz-adv-x="523" 
d="M83 27.5q-47 36.5 -47 98.5q0 58 28.5 103.5t80.5 71t120 25.5q103 0 152 -78l3 1q-8 16 -14 24l12 67q3 17 3 32q0 93 -119 93q-60 0 -105 -26t-74 -73q-15 15 -15 34q0 29 32 54t79 40t90 15q73 0 115 -35.5t42 -98.5q0 -16 -3 -36l-53 -298q-5 -24 -19 -37t-36 -13
l10 54q12 10 18.5 17.5t7.5 8.5l-3 3q-35 -36 -82.5 -59.5t-101.5 -23.5q-74 0 -121 36.5zM302.5 53.5q41.5 18.5 64.5 52t23 75.5q0 48 -34 74t-101 26q-78 0 -124 -41t-46 -108q0 -47 31.5 -72t91.5 -25q53 0 94.5 18.5zM164 -151.5q-9 8.5 -9 22.5q0 20 14 34t34 14
q15 0 23.5 -9t8.5 -23q0 -19 -13.5 -33t-32.5 -14q-16 0 -25 8.5z" />
    <glyph glyph-name="agrave" unicode="&#xe0;" horiz-adv-x="523" 
d="M83 27.5q-47 36.5 -47 98.5q0 58 28.5 103.5t80.5 71t120 25.5q103 0 152 -78l3 1q-8 16 -14 24l12 67q3 17 3 32q0 93 -119 93q-60 0 -105 -26t-74 -73q-15 15 -15 34q0 29 32 54t79 40t90 15q73 0 115 -35.5t42 -98.5q0 -16 -3 -36l-53 -298q-5 -24 -19 -37t-36 -13
l10 54q12 10 18.5 17.5t7.5 8.5l-3 3q-35 -36 -82.5 -59.5t-101.5 -23.5q-74 0 -121 36.5zM302.5 53.5q41.5 18.5 64.5 52t23 75.5q0 48 -34 74t-101 26q-78 0 -124 -41t-46 -108q0 -47 31.5 -72t91.5 -25q53 0 94.5 18.5zM319.5 575q-7.5 3 -13.5 12l-88 141h28q23 0 36 -5
t19 -19l51 -132q-25 0 -32.5 3z" />
    <glyph glyph-name="uni1EA3" unicode="&#x1ea3;" horiz-adv-x="523" 
d="M83 27.5q-47 36.5 -47 98.5q0 58 28.5 103.5t80.5 71t120 25.5q103 0 152 -78l3 1q-8 16 -14 24l12 67q3 17 3 32q0 93 -119 93q-60 0 -105 -26t-74 -73q-15 15 -15 34q0 29 32 54t79 40t90 15q73 0 115 -35.5t42 -98.5q0 -16 -3 -36l-53 -298q-5 -24 -19 -37t-36 -13
l10 54q12 10 18.5 17.5t7.5 8.5l-3 3q-35 -36 -82.5 -59.5t-101.5 -23.5q-74 0 -121 36.5zM302.5 53.5q41.5 18.5 64.5 52t23 75.5q0 48 -34 74t-101 26q-78 0 -124 -41t-46 -108q0 -47 31.5 -72t91.5 -25q53 0 94.5 18.5zM306 597q4 19 13.5 31t25.5 25q15 12 22 21t7 24
q0 11 -7.5 17t-22.5 6q-20 0 -33 -14t-13 -36v-5q-17 0 -26.5 6.5t-9.5 18.5q0 25 28 45.5t62 20.5q27 0 46 -14t19 -39q0 -26 -10 -39t-30 -28q-15 -11 -22.5 -19t-9.5 -21q-4 -22 -27 -22q-4 0 -16 2z" />
    <glyph glyph-name="uni0251" unicode="&#x251;" horiz-adv-x="542" 
d="M95 26q-45 35 -45 98q0 16 3 34l33 185q15 81 74 123.5t147 42.5q58 0 93 -23.5t63 -62.5l3 5q-4 6 -8 11.5t-8 11.5l2 12q4 21 19 33.5t36 12.5l-82 -463q-5 -28 -18 -41.5t-39 -13.5l10 58l25 25l-1 4q-39 -39 -83 -63t-100 -24q-79 0 -124 35zM304.5 49
q37.5 16 63 43.5t30.5 59.5l34 195q2 12 2 18q0 44 -35 73t-98 29q-74 0 -117 -33t-53 -90l-33 -187q-3 -16 -3 -30q0 -94 132 -94q40 0 77.5 16z" />
    <glyph glyph-name="amacron" unicode="&#x101;" horiz-adv-x="523" 
d="M83 27.5q-47 36.5 -47 98.5q0 58 28.5 103.5t80.5 71t120 25.5q103 0 152 -78l3 1q-8 16 -14 24l12 67q3 17 3 32q0 93 -119 93q-60 0 -105 -26t-74 -73q-15 15 -15 34q0 29 32 54t79 40t90 15q73 0 115 -35.5t42 -98.5q0 -16 -3 -36l-53 -298q-5 -24 -19 -37t-36 -13
l10 54q12 10 18.5 17.5t7.5 8.5l-3 3q-35 -36 -82.5 -59.5t-101.5 -23.5q-74 0 -121 36.5zM302.5 53.5q41.5 18.5 64.5 52t23 75.5q0 48 -34 74t-101 26q-78 0 -124 -41t-46 -108q0 -47 31.5 -72t91.5 -25q53 0 94.5 18.5zM202.5 632.5q15.5 11.5 37.5 11.5h236
q-4 -21 -19.5 -32.5t-38.5 -11.5h-235q4 21 19.5 32.5z" />
    <glyph glyph-name="aogonek" unicode="&#x105;" horiz-adv-x="523" 
d="M424 473.5q42 -35.5 42 -98.5q0 -16 -3 -36l-53 -298q-8 -41 -39 -48q-38 -28 -61 -62.5t-23 -64.5q0 -34 34 -34q24 0 39 18q2 -9 1 -12q-4 -12 -21.5 -23t-38.5 -11q-29 0 -45.5 16t-16.5 41q0 34 33 72.5t84 62.5l9 49q12 10 18.5 17.5t7.5 8.5l-3 3
q-35 -36 -82.5 -59.5t-101.5 -23.5q-74 0 -121 36.5t-47 98.5q0 58 28.5 103.5t80.5 71t120 25.5q103 0 152 -78l3 1q-8 16 -14 24l12 67q3 17 3 32q0 93 -119 93q-60 0 -105 -26t-74 -73q-15 15 -15 34q0 29 32 54t79 40t90 15q73 0 115 -35.5zM302.5 53.5
q41.5 18.5 64.5 52t23 75.5q0 48 -34 74t-101 26q-78 0 -124 -41t-46 -108q0 -47 31.5 -72t91.5 -25q53 0 94.5 18.5z" />
    <glyph glyph-name="aring" unicode="&#xe5;" horiz-adv-x="523" 
d="M83 27.5q-47 36.5 -47 98.5q0 58 28.5 103.5t80.5 71t120 25.5q103 0 152 -78l3 1q-8 16 -14 24l12 67q3 17 3 32q0 93 -119 93q-60 0 -105 -26t-74 -73q-15 15 -15 34q0 29 32 54t79 40t90 15q73 0 115 -35.5t42 -98.5q0 -16 -3 -36l-53 -298q-5 -24 -19 -37t-36 -13
l10 54q12 10 18.5 17.5t7.5 8.5l-3 3q-35 -36 -82.5 -59.5t-101.5 -23.5q-74 0 -121 36.5zM302.5 53.5q41.5 18.5 64.5 52t23 75.5q0 48 -34 74t-101 26q-78 0 -124 -41t-46 -108q0 -47 31.5 -72t91.5 -25q53 0 94.5 18.5zM258 564q-21 19 -21 50q0 43 31.5 72.5t76.5 29.5
q34 0 54.5 -19t20.5 -50q0 -43 -30.5 -72.5t-74.5 -29.5q-36 0 -57 19zM365 596q19 19 19 45q0 20 -12.5 32t-32.5 12q-26 0 -45 -19t-19 -47q0 -19 12.5 -30.5t32.5 -11.5q26 0 45 19z" />
    <glyph glyph-name="aringacute" unicode="&#x1fb;" horiz-adv-x="523" 
d="M405 840q7 10 17.5 15t33.5 5h22l-108 -112q-7 -8 -14 -10t-27 -2zM258 564q-21 19 -21 50q0 43 31.5 72.5t76.5 29.5q34 0 54.5 -19t20.5 -50q0 -43 -30.5 -72.5t-74.5 -29.5q-36 0 -57 19zM365 596q19 19 19 45q0 20 -12.5 32t-32.5 12q-26 0 -45 -19t-19 -47
q0 -19 12.5 -30.5t32.5 -11.5q26 0 45 19zM83 27.5q-47 36.5 -47 98.5q0 58 28.5 103.5t80.5 71t120 25.5q103 0 152 -78l3 1q-8 16 -14 24l12 67q3 17 3 32q0 93 -119 93q-60 0 -105 -26t-74 -73q-15 15 -15 34q0 29 32 54t79 40t90 15q73 0 115 -35.5t42 -98.5
q0 -16 -3 -36l-53 -298q-5 -24 -19 -37t-36 -13l10 54q12 10 18.5 17.5t7.5 8.5l-3 3q-35 -36 -82.5 -59.5t-101.5 -23.5q-74 0 -121 36.5zM302.5 53.5q41.5 18.5 64.5 52t23 75.5q0 48 -34 74t-101 26q-78 0 -124 -41t-46 -108q0 -47 31.5 -72t91.5 -25q53 0 94.5 18.5z
" />
    <glyph glyph-name="atilde" unicode="&#xe3;" horiz-adv-x="523" 
d="M83 27.5q-47 36.5 -47 98.5q0 58 28.5 103.5t80.5 71t120 25.5q103 0 152 -78l3 1q-8 16 -14 24l12 67q3 17 3 32q0 93 -119 93q-60 0 -105 -26t-74 -73q-15 15 -15 34q0 29 32 54t79 40t90 15q73 0 115 -35.5t42 -98.5q0 -16 -3 -36l-53 -298q-5 -24 -19 -37t-36 -13
l10 54q12 10 18.5 17.5t7.5 8.5l-3 3q-35 -36 -82.5 -59.5t-101.5 -23.5q-74 0 -121 36.5zM302.5 53.5q41.5 18.5 64.5 52t23 75.5q0 48 -34 74t-101 26q-78 0 -124 -41t-46 -108q0 -47 31.5 -72t91.5 -25q53 0 94.5 18.5zM201 587q-7 8 -7 19q0 28 24 48.5t58 20.5
q21 0 36 -9t34 -27q14 -13 24 -19.5t21 -6.5q18 0 28 11.5t10 31.5q0 8 -2 16q8 3 14 3q10 0 16.5 -8t6.5 -20q0 -28 -24 -48t-57 -20q-22 0 -37.5 9t-35.5 27q-14 13 -23 19t-20 6q-16 0 -27 -10.5t-11 -29.5q0 -10 3 -19q-6 -2 -14 -2q-10 0 -17 8z" />
    <glyph glyph-name="ae" unicode="&#xe6;" horiz-adv-x="851" 
d="M82 28.5q-46 37.5 -46 97.5q0 59 28.5 104.5t80.5 70.5t120 25q104 0 153 -78l3 1q-9 18 -14 24l12 67q3 15 3 29q0 47 -31 71.5t-89 24.5q-59 0 -104.5 -25t-74.5 -74q-15 15 -15 34q0 26 29.5 51.5t76.5 41.5t95 16q56 0 94 -22.5t53 -64.5q34 41 83.5 64t102.5 23
q49 0 87.5 -19.5t60 -53.5t21.5 -77q0 -18 -2 -28l-12 -71q-1 -8 -10.5 -15.5t-17.5 -7.5h-323l-13 -71q-3 -15 -3 -28q0 -49 34 -76.5t97 -27.5q71 0 117 33t56 91q10 -1 19.5 -12t9.5 -22q0 -31 -32 -62t-81 -51t-98 -20q-56 0 -96 21.5t-56 60.5q-35 -39 -86.5 -60.5
t-110.5 -21.5q-75 0 -121 37.5zM755 281l9 50q3 14 3 27q0 50 -35 78.5t-96 28.5q-66 0 -114 -37t-59 -97l-9 -50h301zM342 76.5q49 41.5 49 114.5q0 44 -35 67t-101 23q-78 0 -124 -40t-46 -108q0 -46 32.5 -72t90.5 -26q85 0 134 41.5z" />
    <glyph glyph-name="aeacute" unicode="&#x1fd;" horiz-adv-x="851" 
d="M82 28.5q-46 37.5 -46 97.5q0 59 28.5 104.5t80.5 70.5t120 25q104 0 153 -78l3 1q-9 18 -14 24l12 67q3 15 3 29q0 47 -31 71.5t-89 24.5q-59 0 -104.5 -25t-74.5 -74q-15 15 -15 34q0 26 29.5 51.5t76.5 41.5t95 16q56 0 94 -22.5t53 -64.5q34 41 83.5 64t102.5 23
q49 0 87.5 -19.5t60 -53.5t21.5 -77q0 -18 -2 -28l-12 -71q-1 -8 -10.5 -15.5t-17.5 -7.5h-323l-13 -71q-3 -15 -3 -28q0 -49 34 -76.5t97 -27.5q71 0 117 33t56 91q10 -1 19.5 -12t9.5 -22q0 -31 -32 -62t-81 -51t-98 -20q-56 0 -96 21.5t-56 60.5q-35 -39 -86.5 -60.5
t-110.5 -21.5q-75 0 -121 37.5zM755 281l9 50q3 14 3 27q0 50 -35 78.5t-96 28.5q-66 0 -114 -37t-59 -97l-9 -50h301zM342 76.5q49 41.5 49 114.5q0 44 -35 67t-101 23q-78 0 -124 -40t-46 -108q0 -46 32.5 -72t90.5 -26q85 0 134 41.5zM559 712q9 12 22 18t41 6h28
l-135 -140q-9 -9 -17.5 -12t-34.5 -3z" />
    <glyph glyph-name="b" unicode="b" horiz-adv-x="542" 
d="M152 660q9 49 55 49l-46 -256l-12.5 -12.5t-11.5 -12.5l1 -5q40 39 85 62.5t101 23.5q75 0 121 -36.5t46 -98.5q0 -14 -3 -31l-33 -185q-15 -81 -70.5 -124t-152.5 -43q-54 0 -92.5 25t-61.5 62l-2 -4l15 -25q-5 -30 -19 -44t-38 -14zM355.5 65.5q43.5 32.5 54.5 91.5
l33 187q3 15 3 27q0 46 -32 71t-98 25q-39 0 -77.5 -16t-64.5 -43.5t-31 -58.5l-35 -197q-1 -5 -1 -16q0 -43 37 -73t93 -30q75 0 118.5 32.5z" />
    <glyph glyph-name="c" unicode="c" horiz-adv-x="510" 
d="M97 28.5q-47 37.5 -47 99.5q0 13 3 28l33 187q13 74 75.5 120t149.5 46q73 0 118.5 -31t45.5 -81q0 -23 -12.5 -38t-31.5 -15q2 14 2 21q0 46 -35.5 74t-94.5 28q-67 0 -114.5 -34.5t-57.5 -89.5l-33 -188q-2 -14 -2 -20q0 -46 36 -74t96 -28q68 0 116.5 34t57.5 88
q13 0 21 -9.5t8 -23.5q0 -38 -26.5 -68t-74 -46.5t-108.5 -16.5q-78 0 -125 37.5z" />
    <glyph glyph-name="cacute" unicode="&#x107;" horiz-adv-x="510" 
d="M97 28.5q-47 37.5 -47 99.5q0 13 3 28l33 187q13 74 75.5 120t149.5 46q73 0 118.5 -31t45.5 -81q0 -23 -12.5 -38t-31.5 -15q2 14 2 21q0 46 -35.5 74t-94.5 28q-67 0 -114.5 -34.5t-57.5 -89.5l-33 -188q-2 -14 -2 -20q0 -46 36 -74t96 -28q68 0 116.5 34t57.5 88
q13 0 21 -9.5t8 -23.5q0 -38 -26.5 -68t-74 -46.5t-108.5 -16.5q-78 0 -125 37.5zM393 703q9 12 22 18t41 6h28l-135 -140q-9 -9 -17.5 -12t-34.5 -3z" />
    <glyph glyph-name="ccaron" unicode="&#x10d;" horiz-adv-x="510" 
d="M97 28.5q-47 37.5 -47 99.5q0 13 3 28l33 187q13 74 75.5 120t149.5 46q73 0 118.5 -31t45.5 -81q0 -23 -12.5 -38t-31.5 -15q2 14 2 21q0 46 -35.5 74t-94.5 28q-67 0 -114.5 -34.5t-57.5 -89.5l-33 -188q-2 -14 -2 -20q0 -46 36 -74t96 -28q68 0 116.5 34t57.5 88
q13 0 21 -9.5t8 -23.5q0 -38 -26.5 -68t-74 -46.5t-108.5 -16.5q-78 0 -125 37.5zM430 715q12 12 31 12q16 0 29 -10l-151 -134q-7 -7 -17 -7t-15 7l-103 134q16 10 33 10q18 0 27 -12l66 -96z" />
    <glyph glyph-name="ccedilla" unicode="&#xe7;" horiz-adv-x="510" 
d="M429.5 478q45.5 -31 45.5 -81q0 -23 -12.5 -38t-31.5 -15q2 14 2 21q0 46 -35.5 74t-94.5 28q-67 0 -114.5 -34.5t-57.5 -89.5l-33 -188q-2 -14 -2 -20q0 -46 36 -74t96 -28q68 0 116.5 34t57.5 88q13 0 21 -9.5t8 -23.5q0 -55 -53 -91t-140 -40l-34 -39q37 0 56 -17
t19 -44q0 -40 -30 -67t-75 -27q-32 0 -51.5 14t-19.5 32q0 10 10 23q10 -15 26 -24t35 -9q25 0 40 14t15 37q0 15 -11 23.5t-27 8.5q-6 0 -14.5 -1.5t-15.5 -4.5q-1 -1 -4 -1q-5 0 -9 4t-4 10q0 7 5 13l47 56q-68 7 -107 43t-39 92q0 14 3 29l33 187q13 74 75.5 120
t149.5 46q73 0 118.5 -31z" />
    <glyph glyph-name="ccircumflex" unicode="&#x109;" horiz-adv-x="510" 
d="M97 28.5q-47 37.5 -47 99.5q0 13 3 28l33 187q13 74 75.5 120t149.5 46q73 0 118.5 -31t45.5 -81q0 -23 -12.5 -38t-31.5 -15q2 14 2 21q0 46 -35.5 74t-94.5 28q-67 0 -114.5 -34.5t-57.5 -89.5l-33 -188q-2 -14 -2 -20q0 -46 36 -74t96 -28q68 0 116.5 34t57.5 88
q13 0 21 -9.5t8 -23.5q0 -38 -26.5 -68t-74 -46.5t-108.5 -16.5q-78 0 -125 37.5zM211 577q-18 0 -29 10l151 133q7 7 17 7q9 0 14 -7l104 -133q-17 -11 -33 -11q-20 0 -27 12l-66 96l-100 -96q-11 -11 -31 -11z" />
    <glyph glyph-name="cdotaccent" unicode="&#x10b;" horiz-adv-x="510" 
d="M97 28.5q-47 37.5 -47 99.5q0 13 3 28l33 187q13 74 75.5 120t149.5 46q73 0 118.5 -31t45.5 -81q0 -23 -12.5 -38t-31.5 -15q2 14 2 21q0 46 -35.5 74t-94.5 28q-67 0 -114.5 -34.5t-57.5 -89.5l-33 -188q-2 -14 -2 -20q0 -46 36 -74t96 -28q68 0 116.5 34t57.5 88
q13 0 21 -9.5t8 -23.5q0 -38 -26.5 -68t-74 -46.5t-108.5 -16.5q-78 0 -125 37.5zM301 598.5q-9 8.5 -9 22.5q0 20 14 34t34 14q15 0 23.5 -9t8.5 -23q0 -19 -13.5 -33t-32.5 -14q-16 0 -25 8.5z" />
    <glyph glyph-name="d" unicode="d" horiz-adv-x="542" 
d="M96.5 27q-46.5 36 -46.5 99q0 16 3 32l33 185q13 77 73.5 121.5t147.5 44.5q59 0 94.5 -23.5t62.5 -62.5l3 5l-16 25l37 207q9 49 54 49l-117 -663q-5 -27 -18 -41t-39 -14l10 58l25 25l-1 4q-42 -42 -89.5 -64.5t-93.5 -22.5q-76 0 -122.5 36zM304 49q37 16 62.5 43.5
t31.5 59.5l35 197q2 12 2 19q0 43 -34.5 71t-99.5 28q-71 0 -115.5 -33t-54.5 -90l-33 -187q-2 -9 -2 -25q0 -47 34.5 -73t96.5 -26q40 0 77 16z" />
    <glyph glyph-name="eth" unicode="&#xf0;" horiz-adv-x="600" 
d="M146 16.5q-46 25.5 -71.5 71t-25.5 102.5q0 90 40 162.5t108.5 114t151.5 41.5q52 0 97 -24t74 -68l3 4q-2 4 -9 17.5t-19 26.5q-45 92 -122 154l-178 -76q-2 10 -2 16q0 16 9 29.5t27 20.5l100 42q-25 17 -41.5 26.5t-34.5 18.5q-12 7 -12 25q0 16 11 30
q49 -25 74.5 -39.5t55.5 -36.5l150 64q3 -10 3 -19q0 -31 -36 -47l-77 -33q64 -59 97.5 -136t33.5 -163q0 -99 -38 -179t-107 -125t-158 -45q-58 0 -104 25.5zM379.5 67.5q56.5 36.5 89 100t32.5 140.5q0 75 -42.5 116t-121.5 41q-66 0 -121.5 -34.5t-88 -96t-32.5 -136.5
q0 -78 45.5 -122.5t114.5 -44.5q68 0 124.5 36.5z" />
    <glyph glyph-name="dcaron" unicode="&#x10f;" horiz-adv-x="636" 
d="M663 597q21 32 27 63q-4 -1 -10.5 -2.5t-11.5 -1.5q-20 0 -30.5 10t-10.5 28q0 26 18.5 45.5t43.5 19.5q20 0 33 -13t13 -33q0 -47 -28.5 -95.5t-67.5 -81.5q-4 -3 -12 -3q-11 0 -15 4q30 28 51 60zM96.5 27q-46.5 36 -46.5 99q0 16 3 32l33 185q13 77 73.5 121.5
t147.5 44.5q59 0 94.5 -23.5t62.5 -62.5l3 5l-16 25l37 207q9 49 54 49l-117 -663q-5 -27 -18 -41t-39 -14l10 58l25 25l-1 4q-42 -42 -89.5 -64.5t-93.5 -22.5q-76 0 -122.5 36zM304 49q37 16 62.5 43.5t31.5 59.5l35 197q2 12 2 19q0 43 -34.5 71t-99.5 28
q-71 0 -115.5 -33t-54.5 -90l-33 -187q-2 -9 -2 -25q0 -47 34.5 -73t96.5 -26q40 0 77 16z" />
    <glyph glyph-name="dcroat" unicode="&#x111;" horiz-adv-x="554" 
d="M603 616q-8 -43 -57 -43h-28l-93 -527q-5 -27 -18 -41t-39 -14l10 58l25 25l-1 4q-42 -42 -89.5 -64.5t-93.5 -22.5q-76 0 -122.5 36t-46.5 99q0 16 3 32l33 185q13 77 73.5 121.5t147.5 44.5q59 0 94.5 -23.5t62.5 -62.5l3 5l-16 25l21 120h-148q4 24 18.5 33.5
t38.5 9.5h99l8 44q9 49 54 49l-16 -93h77zM435 368q0 43 -34.5 71t-99.5 28q-71 0 -115.5 -33t-54.5 -90l-33 -187q-2 -9 -2 -25q0 -47 34.5 -73t96.5 -26q40 0 77 16t62.5 43.5t31.5 59.5l35 197q2 12 2 19z" />
    <glyph glyph-name="uni1E0D" unicode="&#x1e0d;" horiz-adv-x="542" 
d="M96.5 27q-46.5 36 -46.5 99q0 16 3 32l33 185q13 77 73.5 121.5t147.5 44.5q59 0 94.5 -23.5t62.5 -62.5l3 5l-16 25l37 207q9 49 54 49l-117 -663q-5 -27 -18 -41t-39 -14l10 58l25 25l-1 4q-42 -42 -89.5 -64.5t-93.5 -22.5q-76 0 -122.5 36zM304 49q37 16 62.5 43.5
t31.5 59.5l35 197q2 12 2 19q0 43 -34.5 71t-99.5 28q-71 0 -115.5 -33t-54.5 -90l-33 -187q-2 -9 -2 -25q0 -47 34.5 -73t96.5 -26q40 0 77 16zM165 -151.5q-9 8.5 -9 22.5q0 20 14 34t34 14q15 0 23.5 -9t8.5 -23q0 -19 -13.5 -33t-32.5 -14q-16 0 -25 8.5z" />
    <glyph glyph-name="uni1E0F" unicode="&#x1e0f;" horiz-adv-x="542" 
d="M96.5 27q-46.5 36 -46.5 99q0 16 3 32l33 185q13 77 73.5 121.5t147.5 44.5q59 0 94.5 -23.5t62.5 -62.5l3 5l-16 25l37 207q9 49 54 49l-117 -663q-5 -27 -18 -41t-39 -14l10 58l25 25l-1 4q-42 -42 -89.5 -64.5t-93.5 -22.5q-76 0 -122.5 36zM304 49q37 16 62.5 43.5
t31.5 59.5l35 197q2 12 2 19q0 43 -34.5 71t-99.5 28q-71 0 -115.5 -33t-54.5 -90l-33 -187q-2 -9 -2 -25q0 -47 34.5 -73t96.5 -26q40 0 77 16zM76.5 -73.5q15.5 11.5 37.5 11.5h236q-4 -21 -20 -32.5t-38 -11.5h-235q4 21 19.5 32.5z" />
    <glyph glyph-name="e" unicode="e" horiz-adv-x="518" 
d="M98 30.5q-46 39.5 -46 104.5q0 16 3 32l29 165q9 51 41 91.5t80.5 63t105.5 22.5q49 0 87 -19t59.5 -52.5t21.5 -75.5q0 -14 -3 -31l-13 -71q-2 -8 -10.5 -15.5t-16.5 -7.5h-323l-12 -71q-3 -16 -3 -31q0 -50 33 -75.5t97 -25.5q70 0 116 33t56 91q11 -1 20.5 -12
t9.5 -22q0 -32 -30.5 -63t-79.5 -50.5t-100 -19.5q-76 0 -122 39.5zM421 281l9 50q3 15 3 28q0 50 -34 78t-95 28q-69 0 -116 -36t-58 -98l-9 -50h300z" />
    <glyph glyph-name="eacute" unicode="&#xe9;" horiz-adv-x="518" 
d="M98 30.5q-46 39.5 -46 104.5q0 16 3 32l29 165q9 51 41 91.5t80.5 63t105.5 22.5q49 0 87 -19t59.5 -52.5t21.5 -75.5q0 -14 -3 -31l-13 -71q-2 -8 -10.5 -15.5t-16.5 -7.5h-323l-12 -71q-3 -16 -3 -31q0 -50 33 -75.5t97 -25.5q70 0 116 33t56 91q11 -1 20.5 -12
t9.5 -22q0 -32 -30.5 -63t-79.5 -50.5t-100 -19.5q-76 0 -122 39.5zM421 281l9 50q3 15 3 28q0 50 -34 78t-95 28q-69 0 -116 -36t-58 -98l-9 -50h300zM393 703q9 12 22 18t41 6h28l-135 -140q-9 -9 -17.5 -12t-34.5 -3z" />
    <glyph glyph-name="ebreve" unicode="&#x115;" horiz-adv-x="518" 
d="M98 30.5q-46 39.5 -46 104.5q0 16 3 32l29 165q9 51 41 91.5t80.5 63t105.5 22.5q49 0 87 -19t59.5 -52.5t21.5 -75.5q0 -14 -3 -31l-13 -71q-2 -8 -10.5 -15.5t-16.5 -7.5h-323l-12 -71q-3 -16 -3 -31q0 -50 33 -75.5t97 -25.5q70 0 116 33t56 91q11 -1 20.5 -12
t9.5 -22q0 -32 -30.5 -63t-79.5 -50.5t-100 -19.5q-76 0 -122 39.5zM421 281l9 50q3 15 3 28q0 50 -34 78t-95 28q-69 0 -116 -36t-58 -98l-9 -50h300zM265 584q-28 12 -46.5 35.5t-18.5 55.5q0 30 14 45.5t38 15.5q-3 -19 -3 -37q0 -82 81 -82q101 0 121 119q18 0 27.5 -9
t9.5 -23q0 -32 -24.5 -62.5t-63 -50t-78.5 -19.5q-29 0 -57 12z" />
    <glyph glyph-name="ecaron" unicode="&#x11b;" horiz-adv-x="518" 
d="M98 30.5q-46 39.5 -46 104.5q0 16 3 32l29 165q9 51 41 91.5t80.5 63t105.5 22.5q49 0 87 -19t59.5 -52.5t21.5 -75.5q0 -14 -3 -31l-13 -71q-2 -8 -10.5 -15.5t-16.5 -7.5h-323l-12 -71q-3 -16 -3 -31q0 -50 33 -75.5t97 -25.5q70 0 116 33t56 91q11 -1 20.5 -12
t9.5 -22q0 -32 -30.5 -63t-79.5 -50.5t-100 -19.5q-76 0 -122 39.5zM421 281l9 50q3 15 3 28q0 50 -34 78t-95 28q-69 0 -116 -36t-58 -98l-9 -50h300zM430 715q12 12 31 12q16 0 29 -10l-151 -134q-7 -7 -17 -7t-15 7l-103 134q16 10 33 10q18 0 27 -12l66 -96z" />
    <glyph glyph-name="ecircumflex" unicode="&#xea;" horiz-adv-x="518" 
d="M98 30.5q-46 39.5 -46 104.5q0 16 3 32l29 165q9 51 41 91.5t80.5 63t105.5 22.5q49 0 87 -19t59.5 -52.5t21.5 -75.5q0 -14 -3 -31l-13 -71q-2 -8 -10.5 -15.5t-16.5 -7.5h-323l-12 -71q-3 -16 -3 -31q0 -50 33 -75.5t97 -25.5q70 0 116 33t56 91q11 -1 20.5 -12
t9.5 -22q0 -32 -30.5 -63t-79.5 -50.5t-100 -19.5q-76 0 -122 39.5zM421 281l9 50q3 15 3 28q0 50 -34 78t-95 28q-69 0 -116 -36t-58 -98l-9 -50h300zM211 577q-18 0 -29 10l151 133q7 7 17 7q9 0 14 -7l104 -133q-17 -11 -33 -11q-20 0 -27 12l-66 96l-100 -96
q-11 -11 -31 -11z" />
    <glyph glyph-name="uni1EBF" unicode="&#x1ebf;" horiz-adv-x="518" 
d="M98 30.5q-46 39.5 -46 104.5q0 16 3 32l29 165q9 51 41 91.5t80.5 63t105.5 22.5q49 0 87 -19t59.5 -52.5t21.5 -75.5q0 -14 -3 -31l-13 -71q-2 -8 -10.5 -15.5t-16.5 -7.5h-323l-12 -71q-3 -16 -3 -31q0 -50 33 -75.5t97 -25.5q70 0 116 33t56 91q11 -1 20.5 -12
t9.5 -22q0 -32 -30.5 -63t-79.5 -50.5t-100 -19.5q-76 0 -122 39.5zM421 281l9 50q3 15 3 28q0 50 -34 78t-95 28q-69 0 -116 -36t-58 -98l-9 -50h300zM489 802q10 13 23.5 19t37.5 6h20l-106 -105q-10 -9 -19.5 -12t-28.5 -4zM240 588q-11 -11 -29 -11t-31 10l152 133
q7 7 17 7q9 0 14 -7l104 -133q-14 -10 -34 -10q-19 0 -26 11l-66 96z" />
    <glyph glyph-name="uni1EC7" unicode="&#x1ec7;" horiz-adv-x="518" 
d="M98 30.5q-46 39.5 -46 104.5q0 16 3 32l29 165q9 51 41 91.5t80.5 63t105.5 22.5q49 0 87 -19t59.5 -52.5t21.5 -75.5q0 -14 -3 -31l-13 -71q-2 -8 -10.5 -15.5t-16.5 -7.5h-323l-12 -71q-3 -16 -3 -31q0 -50 33 -75.5t97 -25.5q70 0 116 33t56 91q11 -1 20.5 -12
t9.5 -22q0 -32 -30.5 -63t-79.5 -50.5t-100 -19.5q-76 0 -122 39.5zM421 281l9 50q3 15 3 28q0 50 -34 78t-95 28q-69 0 -116 -36t-58 -98l-9 -50h300zM169 -151.5q-9 8.5 -9 22.5q0 20 14 34t34 14q15 0 23.5 -9t8.5 -23q0 -19 -13.5 -33t-32.5 -14q-16 0 -25 8.5zM211 577
q-18 0 -29 10l151 133q7 7 17 7q9 0 14 -7l104 -133q-17 -11 -33 -11q-20 0 -27 12l-66 96l-100 -96q-11 -11 -31 -11z" />
    <glyph glyph-name="uni1EC1" unicode="&#x1ec1;" horiz-adv-x="518" 
d="M98 30.5q-46 39.5 -46 104.5q0 16 3 32l29 165q9 51 41 91.5t80.5 63t105.5 22.5q49 0 87 -19t59.5 -52.5t21.5 -75.5q0 -14 -3 -31l-13 -71q-2 -8 -10.5 -15.5t-16.5 -7.5h-323l-12 -71q-3 -16 -3 -31q0 -50 33 -75.5t97 -25.5q70 0 116 33t56 91q11 -1 20.5 -12
t9.5 -22q0 -32 -30.5 -63t-79.5 -50.5t-100 -19.5q-76 0 -122 39.5zM421 281l9 50q3 15 3 28q0 50 -34 78t-95 28q-69 0 -116 -36t-58 -98l-9 -50h300zM455.5 709.5q-7.5 2.5 -14.5 12.5l-69 105h20q22 0 34.5 -5.5t18.5 -19.5l38 -96q-20 1 -27.5 3.5zM241 588
q-11 -11 -29 -11t-31 10l151 133q7 7 17 7q9 0 14 -7l104 -133q-14 -10 -34 -10q-19 0 -26 11l-66 96z" />
    <glyph glyph-name="uni1EC3" unicode="&#x1ec3;" horiz-adv-x="518" 
d="M98 30.5q-46 39.5 -46 104.5q0 16 3 32l29 165q9 51 41 91.5t80.5 63t105.5 22.5q49 0 87 -19t59.5 -52.5t21.5 -75.5q0 -14 -3 -31l-13 -71q-2 -8 -10.5 -15.5t-16.5 -7.5h-323l-12 -71q-3 -16 -3 -31q0 -50 33 -75.5t97 -25.5q70 0 116 33t56 91q11 -1 20.5 -12
t9.5 -22q0 -32 -30.5 -63t-79.5 -50.5t-100 -19.5q-76 0 -122 39.5zM421 281l9 50q3 15 3 28q0 50 -34 78t-95 28q-69 0 -116 -36t-58 -98l-9 -50h300zM436 694q3 16 11 26t21 21q11 9 16.5 16.5t5.5 18.5q0 9 -8 14t-21 5q-17 0 -29 -9.5t-12 -27.5v-5q-13 0 -20.5 5
t-7.5 14q0 19 23.5 35t51.5 16q21 0 38 -11t17 -32q0 -20 -8 -31t-24 -22q-12 -10 -17.5 -16t-7.5 -16q-3 -18 -20 -18q-8 0 -12 1zM241 588q-11 -11 -29 -11t-31 10l151 133q7 7 17 7q9 0 14 -7l104 -133q-14 -10 -34 -10q-19 0 -26 11l-66 96z" />
    <glyph glyph-name="uni1EC5" unicode="&#x1ec5;" horiz-adv-x="518" 
d="M98 30.5q-46 39.5 -46 104.5q0 16 3 32l29 165q9 51 41 91.5t80.5 63t105.5 22.5q49 0 87 -19t59.5 -52.5t21.5 -75.5q0 -14 -3 -31l-13 -71q-2 -8 -10.5 -15.5t-16.5 -7.5h-323l-12 -71q-3 -16 -3 -31q0 -50 33 -75.5t97 -25.5q70 0 116 33t56 91q11 -1 20.5 -12
t9.5 -22q0 -32 -30.5 -63t-79.5 -50.5t-100 -19.5q-76 0 -122 39.5zM421 281l9 50q3 15 3 28q0 50 -34 78t-95 28q-69 0 -116 -36t-58 -98l-9 -50h300zM247.5 750q-6.5 7 -6.5 17q0 24 21.5 42t50.5 18q19 0 32 -7.5t30 -22.5q12 -11 20.5 -16.5t18.5 -5.5q16 0 25 8.5
t9 24.5q0 10 -3 17q8 2 13 2q9 0 15 -7t6 -16q0 -25 -21 -41.5t-51 -16.5q-19 0 -32.5 7.5t-30.5 22.5q-12 11 -20 16t-18 5q-16 0 -25 -10t-9 -27q0 -8 3 -16q-5 -1 -11 -1q-10 0 -16.5 7zM212 577q-18 0 -31 10l151 133q7 7 17 7q9 0 14 -7l104 -133q-14 -10 -34 -10
q-19 0 -26 11l-66 96l-100 -96q-11 -11 -29 -11z" />
    <glyph glyph-name="edieresis" unicode="&#xeb;" horiz-adv-x="518" 
d="M98 30.5q-46 39.5 -46 104.5q0 16 3 32l29 165q9 51 41 91.5t80.5 63t105.5 22.5q49 0 87 -19t59.5 -52.5t21.5 -75.5q0 -14 -3 -31l-13 -71q-2 -8 -10.5 -15.5t-16.5 -7.5h-323l-12 -71q-3 -16 -3 -31q0 -50 33 -75.5t97 -25.5q70 0 116 33t56 91q11 -1 20.5 -12
t9.5 -22q0 -32 -30.5 -63t-79.5 -50.5t-100 -19.5q-76 0 -122 39.5zM421 281l9 50q3 15 3 28q0 50 -34 78t-95 28q-69 0 -116 -36t-58 -98l-9 -50h300zM212 598.5q-9 8.5 -9 22.5q0 20 14 34t34 14q15 0 23.5 -9t8.5 -23q0 -19 -13.5 -33t-32.5 -14q-16 0 -25 8.5z
M389 598.5q-9 8.5 -9 22.5q0 20 14 34t34 14q15 0 23.5 -9t8.5 -23q0 -19 -13.5 -33t-32.5 -14q-16 0 -25 8.5z" />
    <glyph glyph-name="edotaccent" unicode="&#x117;" horiz-adv-x="518" 
d="M98 30.5q-46 39.5 -46 104.5q0 16 3 32l29 165q9 51 41 91.5t80.5 63t105.5 22.5q49 0 87 -19t59.5 -52.5t21.5 -75.5q0 -14 -3 -31l-13 -71q-2 -8 -10.5 -15.5t-16.5 -7.5h-323l-12 -71q-3 -16 -3 -31q0 -50 33 -75.5t97 -25.5q70 0 116 33t56 91q11 -1 20.5 -12
t9.5 -22q0 -32 -30.5 -63t-79.5 -50.5t-100 -19.5q-76 0 -122 39.5zM421 281l9 50q3 15 3 28q0 50 -34 78t-95 28q-69 0 -116 -36t-58 -98l-9 -50h300zM301 598.5q-9 8.5 -9 22.5q0 20 14 34t34 14q15 0 23.5 -9t8.5 -23q0 -19 -13.5 -33t-32.5 -14q-16 0 -25 8.5z" />
    <glyph glyph-name="uni1EB9" unicode="&#x1eb9;" horiz-adv-x="518" 
d="M98 30.5q-46 39.5 -46 104.5q0 16 3 32l29 165q9 51 41 91.5t80.5 63t105.5 22.5q49 0 87 -19t59.5 -52.5t21.5 -75.5q0 -14 -3 -31l-13 -71q-2 -8 -10.5 -15.5t-16.5 -7.5h-323l-12 -71q-3 -16 -3 -31q0 -50 33 -75.5t97 -25.5q70 0 116 33t56 91q11 -1 20.5 -12
t9.5 -22q0 -32 -30.5 -63t-79.5 -50.5t-100 -19.5q-76 0 -122 39.5zM421 281l9 50q3 15 3 28q0 50 -34 78t-95 28q-69 0 -116 -36t-58 -98l-9 -50h300zM169 -151.5q-9 8.5 -9 22.5q0 20 14 34t34 14q15 0 23.5 -9t8.5 -23q0 -19 -13.5 -33t-32.5 -14q-16 0 -25 8.5z" />
    <glyph glyph-name="egrave" unicode="&#xe8;" horiz-adv-x="518" 
d="M98 30.5q-46 39.5 -46 104.5q0 16 3 32l29 165q9 51 41 91.5t80.5 63t105.5 22.5q49 0 87 -19t59.5 -52.5t21.5 -75.5q0 -14 -3 -31l-13 -71q-2 -8 -10.5 -15.5t-16.5 -7.5h-323l-12 -71q-3 -16 -3 -31q0 -50 33 -75.5t97 -25.5q70 0 116 33t56 91q11 -1 20.5 -12
t9.5 -22q0 -32 -30.5 -63t-79.5 -50.5t-100 -19.5q-76 0 -122 39.5zM421 281l9 50q3 15 3 28q0 50 -34 78t-95 28q-69 0 -116 -36t-58 -98l-9 -50h300zM321.5 575q-7.5 3 -13.5 12l-88 141h28q23 0 36 -5t19 -19l51 -132q-25 0 -32.5 3z" />
    <glyph glyph-name="uni1EBB" unicode="&#x1ebb;" horiz-adv-x="518" 
d="M98 30.5q-46 39.5 -46 104.5q0 16 3 32l29 165q9 51 41 91.5t80.5 63t105.5 22.5q49 0 87 -19t59.5 -52.5t21.5 -75.5q0 -14 -3 -31l-13 -71q-2 -8 -10.5 -15.5t-16.5 -7.5h-323l-12 -71q-3 -16 -3 -31q0 -50 33 -75.5t97 -25.5q70 0 116 33t56 91q11 -1 20.5 -12
t9.5 -22q0 -32 -30.5 -63t-79.5 -50.5t-100 -19.5q-76 0 -122 39.5zM421 281l9 50q3 15 3 28q0 50 -34 78t-95 28q-69 0 -116 -36t-58 -98l-9 -50h300zM308 597q4 19 13.5 31t25.5 25q15 12 22 21t7 24q0 11 -7.5 17t-22.5 6q-20 0 -33 -14t-13 -36v-5q-17 0 -26.5 6.5
t-9.5 18.5q0 25 28 45.5t62 20.5q27 0 46 -14t19 -39q0 -26 -10 -39t-30 -28q-15 -11 -22.5 -19t-9.5 -21q-4 -22 -27 -22q-4 0 -16 2z" />
    <glyph glyph-name="emacron" unicode="&#x113;" horiz-adv-x="518" 
d="M98 30.5q-46 39.5 -46 104.5q0 16 3 32l29 165q9 51 41 91.5t80.5 63t105.5 22.5q49 0 87 -19t59.5 -52.5t21.5 -75.5q0 -14 -3 -31l-13 -71q-2 -8 -10.5 -15.5t-16.5 -7.5h-323l-12 -71q-3 -16 -3 -31q0 -50 33 -75.5t97 -25.5q70 0 116 33t56 91q11 -1 20.5 -12
t9.5 -22q0 -32 -30.5 -63t-79.5 -50.5t-100 -19.5q-76 0 -122 39.5zM421 281l9 50q3 15 3 28q0 50 -34 78t-95 28q-69 0 -116 -36t-58 -98l-9 -50h300zM204.5 632.5q15.5 11.5 37.5 11.5h236q-4 -21 -19.5 -32.5t-38.5 -11.5h-235q4 21 19.5 32.5z" />
    <glyph glyph-name="eogonek" unicode="&#x119;" horiz-adv-x="518" 
d="M398 490q38 -19 59.5 -52.5t21.5 -75.5q0 -14 -3 -31l-13 -71q-2 -8 -10.5 -15.5t-16.5 -7.5h-323l-12 -71q-3 -16 -3 -31q0 -50 33 -75.5t97 -25.5q70 0 116 33t56 91q11 -1 20.5 -12t9.5 -22q0 -29 -25 -57t-66 -48t-86 -26q-37 -27 -58.5 -61t-21.5 -63q0 -34 34 -34
q24 0 39 18q2 -9 1 -12q-4 -12 -21.5 -23t-38.5 -11q-29 0 -45.5 16t-16.5 41q0 31 28.5 66.5t73.5 60.5h-7q-76 0 -122 39.5t-46 104.5q0 16 3 32l29 165q9 51 41 91.5t80.5 63t105.5 22.5q49 0 87 -19zM433 359q0 50 -34 78t-95 28q-69 0 -116 -36t-58 -98l-9 -50h300
l9 50q3 15 3 28z" />
    <glyph glyph-name="uni1EBD" unicode="&#x1ebd;" horiz-adv-x="518" 
d="M98 30.5q-46 39.5 -46 104.5q0 16 3 32l29 165q9 51 41 91.5t80.5 63t105.5 22.5q49 0 87 -19t59.5 -52.5t21.5 -75.5q0 -14 -3 -31l-13 -71q-2 -8 -10.5 -15.5t-16.5 -7.5h-323l-12 -71q-3 -16 -3 -31q0 -50 33 -75.5t97 -25.5q70 0 116 33t56 91q11 -1 20.5 -12
t9.5 -22q0 -32 -30.5 -63t-79.5 -50.5t-100 -19.5q-76 0 -122 39.5zM421 281l9 50q3 15 3 28q0 50 -34 78t-95 28q-69 0 -116 -36t-58 -98l-9 -50h300zM203 587q-7 8 -7 19q0 28 24 48.5t58 20.5q21 0 36 -9t34 -27q14 -13 24 -19.5t21 -6.5q18 0 28 11.5t10 31.5q0 8 -2 16
q8 3 14 3q10 0 16.5 -8t6.5 -20q0 -28 -24 -48t-57 -20q-22 0 -37.5 9t-35.5 27q-14 13 -23 19t-20 6q-16 0 -27 -10.5t-11 -29.5q0 -10 3 -19q-6 -2 -14 -2q-10 0 -17 8z" />
    <glyph glyph-name="uni0259" unicode="&#x259;" horiz-adv-x="518" 
d="M122 10q-39 19 -62 53.5t-23 76.5q0 14 3 29l13 71q1 9 10 16t18 7h324l12 71q2 10 2 29q0 49 -32 76t-98 27q-71 0 -117 -33.5t-56 -90.5q-9 1 -19 11t-10 23q0 31 28.5 62t76 51t101.5 20q79 0 125.5 -39.5t46.5 -104.5q0 -15 -3 -32l-29 -165q-9 -51 -40.5 -91
t-80 -63t-106.5 -23q-45 0 -84 19zM329 73q48 38 59 96l9 50h-302l-9 -50q-2 -8 -2 -25q0 -48 34.5 -78.5t94.5 -30.5q68 0 116 38z" />
    <glyph glyph-name="f" unicode="f" horiz-adv-x="362" 
d="M165 456h-85q4 21 18.5 32.5t36.5 11.5h38l15 83q11 61 46.5 93.5t90.5 32.5q26 0 45.5 -11t19.5 -26q0 -10 -8 -23q-11 8 -27.5 13t-30.5 5q-36 0 -59 -23t-31 -65l-14 -79h121q-4 -20 -18.5 -32t-33.5 -12h-77l-73 -415q-4 -25 -18.5 -37.5t-37.5 -12.5z" />
    <glyph glyph-name="g" unicode="g" horiz-adv-x="542" 
d="M103 -194q-38 15 -60 40.5t-22 56.5q0 22 13 36t33 14q-2 -14 -2 -21q0 -45 34.5 -72t94.5 -27q72 0 116.5 36.5t56.5 105.5l14 82q5 6 24 25l-1 5q-41 -41 -88.5 -63.5t-94.5 -22.5q-76 0 -122.5 38.5t-46.5 99.5q0 13 3 28l31 175q15 82 72.5 124.5t155.5 42.5
q46 0 84 -22.5t64 -64.5l2 4q-4 10 -15 25q9 58 58 58l-95 -536q-15 -86 -75 -134t-151 -48q-45 0 -83 15zM305 60q37 16 62.5 43t30.5 58l33 187q1 5 1 16q0 44 -36 73t-92 29q-149 0 -172 -123l-32 -177q-2 -9 -2 -26q0 -47 33 -71.5t97 -24.5q40 0 77 16z" />
    <glyph glyph-name="gbreve" unicode="&#x11f;" horiz-adv-x="542" 
d="M103 -194q-38 15 -60 40.5t-22 56.5q0 22 13 36t33 14q-2 -14 -2 -21q0 -45 34.5 -72t94.5 -27q72 0 116.5 36.5t56.5 105.5l14 82q5 6 24 25l-1 5q-41 -41 -88.5 -63.5t-94.5 -22.5q-76 0 -122.5 38.5t-46.5 99.5q0 13 3 28l31 175q15 82 72.5 124.5t155.5 42.5
q46 0 84 -22.5t64 -64.5l2 4q-4 10 -15 25q9 58 58 58l-95 -536q-15 -86 -75 -134t-151 -48q-45 0 -83 15zM305 60q37 16 62.5 43t30.5 58l33 187q1 5 1 16q0 44 -36 73t-92 29q-149 0 -172 -123l-32 -177q-2 -9 -2 -26q0 -47 33 -71.5t97 -24.5q40 0 77 16zM268 584
q-28 12 -46.5 35.5t-18.5 55.5q0 30 14 45.5t38 15.5q-3 -19 -3 -37q0 -82 81 -82q101 0 121 119q18 0 27.5 -9t9.5 -23q0 -32 -24.5 -62.5t-63 -50t-78.5 -19.5q-29 0 -57 12z" />
    <glyph glyph-name="gcaron" unicode="&#x1e7;" horiz-adv-x="542" 
d="M103 -194q-38 15 -60 40.5t-22 56.5q0 22 13 36t33 14q-2 -14 -2 -21q0 -45 34.5 -72t94.5 -27q72 0 116.5 36.5t56.5 105.5l14 82q5 6 24 25l-1 5q-41 -41 -88.5 -63.5t-94.5 -22.5q-76 0 -122.5 38.5t-46.5 99.5q0 13 3 28l31 175q15 82 72.5 124.5t155.5 42.5
q46 0 84 -22.5t64 -64.5l2 4q-4 10 -15 25q9 58 58 58l-95 -536q-15 -86 -75 -134t-151 -48q-45 0 -83 15zM305 60q37 16 62.5 43t30.5 58l33 187q1 5 1 16q0 44 -36 73t-92 29q-149 0 -172 -123l-32 -177q-2 -9 -2 -26q0 -47 33 -71.5t97 -24.5q40 0 77 16zM433 715
q12 12 31 12q16 0 29 -10l-151 -134q-7 -7 -17 -7t-15 7l-103 134q16 10 33 10q18 0 27 -12l66 -96z" />
    <glyph glyph-name="gcircumflex" unicode="&#x11d;" horiz-adv-x="542" 
d="M103 -194q-38 15 -60 40.5t-22 56.5q0 22 13 36t33 14q-2 -14 -2 -21q0 -45 34.5 -72t94.5 -27q72 0 116.5 36.5t56.5 105.5l14 82q5 6 24 25l-1 5q-41 -41 -88.5 -63.5t-94.5 -22.5q-76 0 -122.5 38.5t-46.5 99.5q0 13 3 28l31 175q15 82 72.5 124.5t155.5 42.5
q46 0 84 -22.5t64 -64.5l2 4q-4 10 -15 25q9 58 58 58l-95 -536q-15 -86 -75 -134t-151 -48q-45 0 -83 15zM305 60q37 16 62.5 43t30.5 58l33 187q1 5 1 16q0 44 -36 73t-92 29q-149 0 -172 -123l-32 -177q-2 -9 -2 -26q0 -47 33 -71.5t97 -24.5q40 0 77 16zM214 577
q-18 0 -29 10l151 133q7 7 17 7q9 0 14 -7l104 -133q-17 -11 -33 -11q-20 0 -27 12l-66 96l-100 -96q-11 -11 -31 -11z" />
    <glyph glyph-name="uni0123" unicode="&#x123;" horiz-adv-x="542" 
d="M103 -194q-38 15 -60 40.5t-22 56.5q0 22 13 36t33 14q-2 -14 -2 -21q0 -45 34.5 -72t94.5 -27q72 0 116.5 36.5t56.5 105.5l14 82q5 6 24 25l-1 5q-41 -41 -88.5 -63.5t-94.5 -22.5q-76 0 -122.5 38.5t-46.5 99.5q0 13 3 28l31 175q15 82 72.5 124.5t155.5 42.5
q46 0 84 -22.5t64 -64.5l2 4q-4 10 -15 25q9 58 58 58l-95 -536q-15 -86 -75 -134t-151 -48q-45 0 -83 15zM305 60q37 16 62.5 43t30.5 58l33 187q1 5 1 16q0 44 -36 73t-92 29q-149 0 -172 -123l-32 -177q-2 -9 -2 -26q0 -47 33 -71.5t97 -24.5q40 0 77 16zM348.5 724.5
q-20.5 -32.5 -26.5 -63.5q3 1 9 2.5t12 1.5q20 0 30.5 -10t10.5 -28q0 -26 -18.5 -45.5t-43.5 -19.5q-20 0 -32.5 13t-12.5 33q0 46 28.5 95t66.5 82q4 4 13 4q11 0 15 -4q-31 -28 -51.5 -60.5z" />
    <glyph glyph-name="gdotaccent" unicode="&#x121;" horiz-adv-x="542" 
d="M103 -194q-38 15 -60 40.5t-22 56.5q0 22 13 36t33 14q-2 -14 -2 -21q0 -45 34.5 -72t94.5 -27q72 0 116.5 36.5t56.5 105.5l14 82q5 6 24 25l-1 5q-41 -41 -88.5 -63.5t-94.5 -22.5q-76 0 -122.5 38.5t-46.5 99.5q0 13 3 28l31 175q15 82 72.5 124.5t155.5 42.5
q46 0 84 -22.5t64 -64.5l2 4q-4 10 -15 25q9 58 58 58l-95 -536q-15 -86 -75 -134t-151 -48q-45 0 -83 15zM305 60q37 16 62.5 43t30.5 58l33 187q1 5 1 16q0 44 -36 73t-92 29q-149 0 -172 -123l-32 -177q-2 -9 -2 -26q0 -47 33 -71.5t97 -24.5q40 0 77 16zM304 598.5
q-9 8.5 -9 22.5q0 20 14 34t34 14q15 0 23.5 -9t8.5 -23q0 -19 -13.5 -33t-32.5 -14q-16 0 -25 8.5z" />
    <glyph glyph-name="uni1E21" unicode="&#x1e21;" horiz-adv-x="542" 
d="M103 -194q-38 15 -60 40.5t-22 56.5q0 22 13 36t33 14q-2 -14 -2 -21q0 -45 34.5 -72t94.5 -27q72 0 116.5 36.5t56.5 105.5l14 82q5 6 24 25l-1 5q-41 -41 -88.5 -63.5t-94.5 -22.5q-76 0 -122.5 38.5t-46.5 99.5q0 13 3 28l31 175q15 82 72.5 124.5t155.5 42.5
q46 0 84 -22.5t64 -64.5l2 4q-4 10 -15 25q9 58 58 58l-95 -536q-15 -86 -75 -134t-151 -48q-45 0 -83 15zM305 60q37 16 62.5 43t30.5 58l33 187q1 5 1 16q0 44 -36 73t-92 29q-149 0 -172 -123l-32 -177q-2 -9 -2 -26q0 -47 33 -71.5t97 -24.5q40 0 77 16zM207.5 632.5
q15.5 11.5 37.5 11.5h236q-4 -21 -19.5 -32.5t-38.5 -11.5h-235q4 21 19.5 32.5z" />
    <glyph glyph-name="h" unicode="h" horiz-adv-x="542" 
d="M152 660q9 49 55 49l-47 -267l-23 -22v-5q39 41 95 67.5t105 26.5q73 0 113.5 -34t40.5 -96q0 -12 -4 -38l-53 -300q-5 -24 -19 -37t-36 -13l62 352q3 18 3 34q0 46 -28 68t-85 22q-41 0 -83 -17.5t-71.5 -46t-34.5 -58.5l-53 -304q-9 -50 -55 -50z" />
    <glyph glyph-name="hbar" unicode="&#x127;" horiz-adv-x="578" 
d="M477.5 475q40.5 -34 40.5 -96q0 -12 -4 -38l-53 -300q-5 -24 -19 -37t-36 -13l62 352q3 18 3 34q0 46 -28 68t-85 22q-41 0 -83 -17.5t-71.5 -46t-34.5 -58.5l-53 -304q-9 -50 -55 -50l103 583h-63q4 24 18.5 34t38.5 10h14l7 42q9 49 55 49l-16 -91h162q-8 -44 -57 -44
h-113l-23 -132l-23 -22v-5q39 41 95 67.5t105 26.5q73 0 113.5 -34z" />
    <glyph glyph-name="uni1E2B" unicode="&#x1e2b;" horiz-adv-x="542" 
d="M152 660q9 49 55 49l-47 -267l-23 -22v-5q39 41 95 67.5t105 26.5q73 0 113.5 -34t40.5 -96q0 -12 -4 -38l-53 -300q-5 -24 -19 -37t-36 -13l62 352q3 18 3 34q0 46 -28 68t-85 22q-41 0 -83 -17.5t-71.5 -46t-34.5 -58.5l-53 -304q-9 -50 -55 -50zM108 -167.5
q-38 24.5 -38 70.5q0 29 13.5 45t38.5 16q-3 -20 -3 -35q0 -40 21 -58t62 -18q50 0 79.5 26t39.5 85q19 0 28 -9t9 -23q0 -32 -23 -60.5t-61 -46t-80 -17.5q-48 0 -86 24.5z" />
    <glyph glyph-name="hcircumflex" unicode="&#x125;" horiz-adv-x="542" 
d="M152 660q9 49 55 49l-47 -267l-23 -22v-5q39 41 95 67.5t105 26.5q73 0 113.5 -34t40.5 -96q0 -12 -4 -38l-53 -300q-5 -24 -19 -37t-36 -13l62 352q3 18 3 34q0 46 -28 68t-85 22q-41 0 -83 -17.5t-71.5 -46t-34.5 -58.5l-53 -304q-9 -50 -55 -50zM213 777q-18 0 -29 10
l151 133q7 7 17 7q9 0 14 -7l104 -133q-17 -11 -33 -11q-20 0 -27 12l-66 96l-100 -96q-11 -11 -31 -11z" />
    <glyph glyph-name="uni1E25" unicode="&#x1e25;" horiz-adv-x="542" 
d="M152 660q9 49 55 49l-47 -267l-23 -22v-5q39 41 95 67.5t105 26.5q73 0 113.5 -34t40.5 -96q0 -12 -4 -38l-53 -300q-5 -24 -19 -37t-36 -13l62 352q3 18 3 34q0 46 -28 68t-85 22q-41 0 -83 -17.5t-71.5 -46t-34.5 -58.5l-53 -304q-9 -50 -55 -50zM174 -151.5
q-9 8.5 -9 22.5q0 20 14 34t34 14q15 0 23.5 -9t8.5 -23q0 -19 -13.5 -33t-32.5 -14q-16 0 -25 8.5z" />
    <glyph glyph-name="i" unicode="i" horiz-adv-x="253" 
d="M162.5 626.5q-11.5 11.5 -11.5 27.5q0 21 17 38t39 17q17 0 28 -11t11 -28q0 -21 -17 -38t-39 -17q-16 0 -27.5 11.5zM139 457q4 25 18.5 38.5t37.5 13.5l-82 -468q-4 -25 -18.5 -37.5t-37.5 -12.5z" />
    <glyph glyph-name="dotlessi" unicode="&#x131;" horiz-adv-x="206" 
d="M116 457q9 52 54 52l-82 -468q-9 -50 -54 -50z" />
    <glyph glyph-name="iacute" unicode="&#xed;" horiz-adv-x="206" 
d="M116 457q9 52 54 52l-82 -468q-9 -50 -54 -50zM232 712q9 12 22 18t41 6h28l-135 -140q-9 -9 -17.5 -12t-34.5 -3z" />
    <glyph glyph-name="ibreve" unicode="&#x12d;" horiz-adv-x="206" 
d="M116 457q9 52 54 52l-82 -468q-9 -50 -54 -50zM104 593q-28 12 -46.5 35.5t-18.5 55.5q0 30 14 45.5t38 15.5q-3 -19 -3 -37q0 -82 81 -82q101 0 121 119q18 0 27.5 -9t9.5 -23q0 -32 -24.5 -62.5t-63 -50t-78.5 -19.5q-29 0 -57 12z" />
    <glyph glyph-name="uni01D0" unicode="&#x1d0;" horiz-adv-x="206" 
d="M116 457q9 52 54 52l-82 -468q-9 -50 -54 -50zM269 724q12 12 31 12q16 0 29 -10l-151 -134q-7 -7 -17 -7t-15 7l-103 134q16 10 33 10q18 0 27 -12l66 -96z" />
    <glyph glyph-name="icircumflex" unicode="&#xee;" horiz-adv-x="206" 
d="M116 457q9 52 54 52l-82 -468q-9 -50 -54 -50zM50 586q-18 0 -29 10l151 133q7 7 17 7q9 0 14 -7l104 -133q-17 -11 -33 -11q-20 0 -27 12l-66 96l-100 -96q-11 -11 -31 -11z" />
    <glyph glyph-name="idieresis" unicode="&#xef;" horiz-adv-x="206" 
d="M116 457q9 52 54 52l-82 -468q-9 -50 -54 -50zM51 607.5q-9 8.5 -9 22.5q0 20 14 34t34 14q15 0 23.5 -9t8.5 -23q0 -19 -13.5 -33t-32.5 -14q-16 0 -25 8.5zM228 607.5q-9 8.5 -9 22.5q0 20 14 34t34 14q15 0 23.5 -9t8.5 -23q0 -19 -13.5 -33t-32.5 -14q-16 0 -25 8.5z
" />
    <glyph glyph-name="uni1ECB" unicode="&#x1ecb;" horiz-adv-x="253" 
d="M162.5 626.5q-11.5 11.5 -11.5 27.5q0 21 17 38t39 17q17 0 28 -11t11 -28q0 -21 -17 -38t-39 -17q-16 0 -27.5 11.5zM139 457q4 25 18.5 38.5t37.5 13.5l-82 -468q-4 -25 -18.5 -37.5t-37.5 -12.5zM31 -151.5q-9 8.5 -9 22.5q0 20 14 34t34 14q15 0 23.5 -9t8.5 -23
q0 -19 -13.5 -33t-32.5 -14q-16 0 -25 8.5z" />
    <glyph glyph-name="igrave" unicode="&#xec;" horiz-adv-x="206" 
d="M116 457q9 52 54 52l-82 -468q-9 -50 -54 -50zM160.5 584q-7.5 3 -13.5 12l-88 141h28q23 0 36 -5t19 -19l51 -132q-25 0 -32.5 3z" />
    <glyph glyph-name="uni1EC9" unicode="&#x1ec9;" horiz-adv-x="206" 
d="M116 457q9 52 54 52l-82 -468q-9 -50 -54 -50zM147 606q4 19 13.5 31t25.5 25q15 12 22 21t7 24q0 11 -7.5 17t-22.5 6q-20 0 -33 -14t-13 -36v-5q-17 0 -26.5 6.5t-9.5 18.5q0 25 28 45.5t62 20.5q27 0 46 -14t19 -39q0 -26 -10 -39t-30 -28q-15 -11 -22.5 -19t-9.5 -21
q-4 -22 -27 -22q-4 0 -16 2z" />
    <glyph glyph-name="ij" unicode="&#x133;" horiz-adv-x="449" 
d="M162 626q-11 11 -11 28q0 21 16.5 38t38.5 17q17 0 28 -11t11 -28q0 -21 -17 -38t-39 -17q-16 0 -27 11zM359 626q-11 11 -11 28q0 21 17 38t39 17q16 0 27 -11t11 -28q0 -21 -16.5 -38t-38.5 -17q-17 0 -28 11zM138 457q4 25 18.5 38.5t37.5 13.5l-82 -468
q-9 -50 -56 -50zM101 -197.5q-13 11.5 -13 25.5q0 10 7 22q10 -7 26 -12t31 -5q41 0 61.5 22t27.5 65l95 537q9 52 55 52l-104 -594q-10 -54 -47 -89t-101 -35q-25 0 -38 11.5z" />
    <glyph glyph-name="imacron" unicode="&#x12b;" horiz-adv-x="206" 
d="M116 457q9 52 54 52l-82 -468q-9 -50 -54 -50zM43.5 641.5q15.5 11.5 37.5 11.5h236q-4 -21 -19.5 -32.5t-38.5 -11.5h-235q4 21 19.5 32.5z" />
    <glyph glyph-name="iogonek" unicode="&#x12f;" horiz-adv-x="253" 
d="M235 698q11 -11 11 -28q0 -21 -17 -38t-39 -17q-16 0 -27.5 11.5t-11.5 27.5q0 21 17 38t39 17q17 0 28 -11zM157.5 495.5q14.5 13.5 37.5 13.5l-82 -468q-6 -34 -30 -44q-39 -28 -62.5 -63t-23.5 -66q0 -34 34 -34q24 0 39 18q2 -9 1 -12q-4 -12 -21.5 -23t-38.5 -11
q-29 0 -45.5 16t-16.5 41q0 32 30.5 69t77.5 62l82 463q4 25 18.5 38.5z" />
    <glyph glyph-name="itilde" unicode="&#x129;" horiz-adv-x="206" 
d="M116 457q9 52 54 52l-82 -468q-9 -50 -54 -50zM42 596q-7 8 -7 19q0 28 24 48.5t58 20.5q21 0 36 -9t34 -27q14 -13 24 -19.5t21 -6.5q18 0 28 11.5t10 31.5q0 8 -2 16q8 3 14 3q10 0 16.5 -8t6.5 -20q0 -28 -24 -48t-57 -20q-22 0 -37.5 9t-35.5 27q-14 13 -23 19t-20 6
q-16 0 -27 -10.5t-11 -29.5q0 -10 3 -19q-6 -2 -14 -2q-10 0 -17 8z" />
    <glyph glyph-name="j" unicode="j" horiz-adv-x="332" 
d="M241.5 626.5q-11.5 11.5 -11.5 27.5q0 21 17 38t39 17q17 0 28 -11t11 -28q0 -21 -17 -38t-39 -17q-16 0 -27.5 11.5zM-13.5 -198.5q-16.5 10.5 -16.5 25.5q0 10 8 23q10 -7 26 -12t30 -5q74 0 89 87l95 537q9 52 56 52l-105 -594q-22 -124 -143 -124q-23 0 -39.5 10.5z
" />
    <glyph glyph-name="uni0237" unicode="&#x237;" horiz-adv-x="309" 
d="M-12.5 -197.5q-17.5 11.5 -17.5 24.5q0 11 8 23q9 -7 25 -12t31 -5q43 0 62 22t27 65l95 537q9 52 56 52l-105 -594q-23 -124 -139 -124q-25 0 -42.5 11.5z" />
    <glyph glyph-name="jcircumflex" unicode="&#x135;" horiz-adv-x="309" 
d="M-12.5 -197.5q-17.5 11.5 -17.5 24.5q0 11 8 23q9 -7 25 -12t31 -5q43 0 62 22t27 65l95 537q9 52 56 52l-105 -594q-23 -124 -139 -124q-25 0 -42.5 11.5zM149 547q-18 0 -29 10l151 133q7 7 17 7q9 0 14 -7l104 -133q-17 -11 -33 -11q-20 0 -27 12l-66 96l-100 -96
q-11 -11 -31 -11z" />
    <glyph glyph-name="k" unicode="k" horiz-adv-x="521" 
d="M448 467q-7 -8 -27 -25l-151 -127l157 -317q-14 -7 -28 -7q-13 0 -20.5 3.5t-13.5 15.5l-132 273l-118 -99l-25 -143q-9 -50 -55 -50l118 670q4 23 18 35.5t37 12.5l-83 -468l319 266q4 -6 7.5 -11t3.5 -10q0 -11 -7 -19z" />
    <glyph glyph-name="uni0137" unicode="&#x137;" horiz-adv-x="521" 
d="M448 467q-7 -8 -27 -25l-151 -127l157 -317q-14 -7 -28 -7q-13 0 -20.5 3.5t-13.5 15.5l-132 273l-118 -99l-25 -143q-9 -50 -55 -50l118 670q4 23 18 35.5t37 12.5l-83 -468l319 266q4 -6 7.5 -11t3.5 -10q0 -11 -7 -19zM167 -213q20 32 25 62q-4 -1 -10.5 -2.5
t-11.5 -1.5q-20 0 -30.5 10t-10.5 28q0 26 18.5 45.5t43.5 19.5q20 0 33 -13t13 -33q0 -48 -28.5 -95.5t-67.5 -81.5q-4 -4 -12 -4q-9 0 -15 4q33 30 53 62z" />
    <glyph glyph-name="kgreenlandic" unicode="&#x138;" horiz-adv-x="530" 
d="M117 459q9 48 54 48l-46 -262l362 262q4 -12 4 -21q0 -14 -7 -21.5t-28 -22.5l-224 -163l199 -281q-16 -7 -28 -7t-20 4t-16 15l-173 241l-78 -57l-27 -153q-9 -50 -55 -50z" />
    <glyph glyph-name="l" unicode="l" horiz-adv-x="311" 
d="M79 17q-27 26 -27 70q0 13 3 28l96 544q5 24 19 37t36 13l-105 -593q-3 -15 -3 -28q0 -29 15.5 -42t49.5 -13q30 0 64 18q1 -2 1 -10q0 -22 -21 -36t-53 -14q-48 0 -75 26z" />
    <glyph glyph-name="lacute" unicode="&#x13a;" horiz-adv-x="311" 
d="M79 17q-27 26 -27 70q0 13 3 28l96 544q5 24 19 37t36 13l-105 -593q-3 -15 -3 -28q0 -29 15.5 -42t49.5 -13q30 0 64 18q1 -2 1 -10q0 -22 -21 -36t-53 -14q-48 0 -75 26zM275 903q9 12 22 18t41 6h28l-135 -140q-9 -9 -17.5 -12t-34.5 -3z" />
    <glyph glyph-name="lcaron" unicode="&#x13e;" horiz-adv-x="427" 
d="M79 17q-27 26 -27 70q0 13 3 28l96 544q5 24 19 37t36 13l-105 -593q-3 -15 -3 -28q0 -29 15.5 -42t49.5 -13q30 0 64 18q1 -2 1 -10q0 -22 -21 -36t-53 -14q-48 0 -75 26zM388.5 598q20.5 32 25.5 62q-4 -1 -10.5 -2.5t-11.5 -1.5q-20 0 -30.5 10t-10.5 28
q0 26 18.5 45.5t43.5 19.5q20 0 33 -13t13 -33q0 -47 -28.5 -95.5t-67.5 -81.5q-5 -3 -12 -3q-11 0 -15 4q32 29 52.5 61z" />
    <glyph glyph-name="uni013C" unicode="&#x13c;" horiz-adv-x="311" 
d="M79 17q-27 26 -27 70q0 13 3 28l96 544q5 24 19 37t36 13l-105 -593q-3 -15 -3 -28q0 -29 15.5 -42t49.5 -13q30 0 64 18q1 -2 1 -10q0 -22 -21 -36t-53 -14q-48 0 -75 26zM101 -213q20 32 25 62q-4 -1 -10.5 -2.5t-11.5 -1.5q-20 0 -30.5 10t-10.5 28q0 26 18.5 45.5
t43.5 19.5q20 0 33 -13t13 -33q0 -48 -28.5 -95.5t-67.5 -81.5q-4 -4 -12 -4q-9 0 -15 4q33 30 53 62z" />
    <glyph glyph-name="ldot" unicode="&#x140;" horiz-adv-x="416" 
d="M79 17q-27 26 -27 70q0 13 3 28l96 544q5 24 19 37t36 13l-105 -593q-3 -15 -3 -28q0 -29 15.5 -42t49.5 -13q30 0 64 18q1 -2 1 -10q0 -22 -21 -36t-53 -14q-48 0 -75 26zM238 251.5q-12 12.5 -12 31.5q0 24 19.5 43.5t42.5 19.5q20 0 32.5 -13t12.5 -32
q0 -24 -19.5 -43t-44.5 -19q-19 0 -31 12.5z" />
    <glyph glyph-name="uni1E37" unicode="&#x1e37;" horiz-adv-x="311" 
d="M79 17q-27 26 -27 70q0 13 3 28l96 544q5 24 19 37t36 13l-105 -593q-3 -15 -3 -28q0 -29 15.5 -42t49.5 -13q30 0 64 18q1 -2 1 -10q0 -22 -21 -36t-53 -14q-48 0 -75 26zM84 -151.5q-9 8.5 -9 22.5q0 20 14 34t34 14q15 0 23.5 -9t8.5 -23q0 -19 -13.5 -33t-32.5 -14
q-16 0 -25 8.5z" />
    <glyph glyph-name="uni1E39" unicode="&#x1e39;" horiz-adv-x="311" 
d="M79 17q-27 26 -27 70q0 13 3 28l96 544q5 24 19 37t36 13l-105 -593q-3 -15 -3 -28q0 -29 15.5 -42t49.5 -13q30 0 64 18q1 -2 1 -10q0 -22 -21 -36t-53 -14q-48 0 -75 26zM84 -151.5q-9 8.5 -9 22.5q0 20 14 34t34 14q15 0 23.5 -9t8.5 -23q0 -19 -13.5 -33t-32.5 -14
q-16 0 -25 8.5zM86.5 832.5q15.5 11.5 37.5 11.5h236q-4 -21 -19.5 -32.5t-38.5 -11.5h-235q4 21 19.5 32.5z" />
    <glyph glyph-name="uni1E3B" unicode="&#x1e3b;" horiz-adv-x="311" 
d="M79 17q-27 26 -27 70q0 13 3 28l96 544q5 24 19 37t36 13l-105 -593q-3 -15 -3 -28q0 -29 15.5 -42t49.5 -13q30 0 64 18q1 -2 1 -10q0 -22 -21 -36t-53 -14q-48 0 -75 26zM-4.5 -73.5q15.5 11.5 37.5 11.5h236q-4 -21 -20 -32.5t-38 -11.5h-235q4 21 19.5 32.5z" />
    <glyph glyph-name="lslash" unicode="&#x142;" horiz-adv-x="373" 
d="M311 415q0 -24 -30 -41l-91 -53l-36 -205q-3 -15 -3 -28q0 -29 15.5 -42t49.5 -13q30 0 64 18q1 -2 1 -10q0 -22 -21 -36t-53 -14q-48 0 -75 26t-27 70q0 13 3 28l31 175l-77 -45q-4 9 -4 20q0 26 31 44l59 35l56 315q5 24 19 37t36 13l-59 -334l106 63q5 -10 5 -23z" />
    <glyph glyph-name="m" unicode="m" horiz-adv-x="762" 
d="M117 460q9 49 53 49l-12 -69l-21 -20l1 -5q88 94 168 94q44 0 73.5 -22.5t39.5 -65.5q73 88 170 88q59 0 90.5 -31.5t31.5 -90.5q0 -23 -4 -46l-53 -300q-9 -50 -55 -50l62 351q4 28 4 39q0 85 -81 85q-36 0 -70.5 -17t-59 -45.5t-29.5 -59.5l-53 -303q-9 -50 -54 -50
l62 351q4 28 4 38q0 86 -84 86q-33 0 -68 -17.5t-59.5 -46t-29.5 -57.5l-53 -304q-5 -24 -19.5 -37t-36.5 -13z" />
    <glyph glyph-name="uni1E43" unicode="&#x1e43;" horiz-adv-x="762" 
d="M117 460q9 49 53 49l-12 -69l-21 -20l1 -5q88 94 168 94q44 0 73.5 -22.5t39.5 -65.5q73 88 170 88q59 0 90.5 -31.5t31.5 -90.5q0 -23 -4 -46l-53 -300q-9 -50 -55 -50l62 351q4 28 4 39q0 85 -81 85q-36 0 -70.5 -17t-59 -45.5t-29.5 -59.5l-53 -303q-9 -50 -54 -50
l62 351q4 28 4 38q0 86 -84 86q-33 0 -68 -17.5t-59.5 -46t-29.5 -57.5l-53 -304q-5 -24 -19.5 -37t-36.5 -13zM280 -151.5q-9 8.5 -9 22.5q0 20 14 34t34 14q15 0 23.5 -9t8.5 -23q0 -19 -13.5 -33t-32.5 -14q-16 0 -25 8.5z" />
    <glyph glyph-name="n" unicode="n" horiz-adv-x="542" 
d="M117 460q9 49 53 49l-12 -69l-21 -20l1 -5q39 42 94 68t105 26q71 0 112 -36t41 -98q0 -16 -3 -34l-53 -300q-5 -24 -19 -37t-36 -13l62 352q3 17 3 31q0 46 -28.5 69.5t-84.5 23.5q-41 0 -83 -17.5t-71.5 -46t-34.5 -58.5l-53 -304q-9 -50 -55 -50z" />
    <glyph glyph-name="nacute" unicode="&#x144;" horiz-adv-x="542" 
d="M117 460q9 49 53 49l-12 -69l-21 -20l1 -5q39 42 94 68t105 26q71 0 112 -36t41 -98q0 -16 -3 -34l-53 -300q-5 -24 -19 -37t-36 -13l62 352q3 17 3 31q0 46 -28.5 69.5t-84.5 23.5q-41 0 -83 -17.5t-71.5 -46t-34.5 -58.5l-53 -304q-9 -50 -55 -50zM400 703q9 12 22 18
t41 6h28l-135 -140q-9 -9 -17.5 -12t-34.5 -3z" />
    <glyph glyph-name="napostrophe" unicode="&#x149;" horiz-adv-x="575" 
d="M150 460q9 49 53 49l-12 -69l-21 -20l1 -5q39 42 94 68t105 26q71 0 112 -36t41 -98q0 -16 -3 -34l-53 -300q-5 -24 -19 -37t-36 -13l62 352q3 17 3 31q0 46 -28.5 69.5t-84.5 23.5q-41 0 -83 -17.5t-71.5 -46t-34.5 -58.5l-53 -304q-9 -50 -55 -50zM92.5 515
q20.5 32 25.5 62q-4 -1 -10.5 -2.5t-11.5 -1.5q-20 0 -30.5 10t-10.5 28q0 26 18.5 45.5t43.5 19.5q20 0 33 -13t13 -33q0 -47 -28.5 -95.5t-67.5 -81.5q-5 -3 -12 -3q-11 0 -15 4q32 29 52.5 61z" />
    <glyph glyph-name="ncaron" unicode="&#x148;" horiz-adv-x="542" 
d="M117 460q9 49 53 49l-12 -69l-21 -20l1 -5q39 42 94 68t105 26q71 0 112 -36t41 -98q0 -16 -3 -34l-53 -300q-5 -24 -19 -37t-36 -13l62 352q3 17 3 31q0 46 -28.5 69.5t-84.5 23.5q-41 0 -83 -17.5t-71.5 -46t-34.5 -58.5l-53 -304q-9 -50 -55 -50zM437 715q12 12 31 12
q16 0 29 -10l-151 -134q-7 -7 -17 -7t-15 7l-103 134q16 10 33 10q18 0 27 -12l66 -96z" />
    <glyph glyph-name="uni0146" unicode="&#x146;" horiz-adv-x="542" 
d="M117 460q9 49 53 49l-12 -69l-21 -20l1 -5q39 42 94 68t105 26q71 0 112 -36t41 -98q0 -16 -3 -34l-53 -300q-5 -24 -19 -37t-36 -13l62 352q3 17 3 31q0 46 -28.5 69.5t-84.5 23.5q-41 0 -83 -17.5t-71.5 -46t-34.5 -58.5l-53 -304q-9 -50 -55 -50zM191 -213
q20 32 25 62q-4 -1 -10.5 -2.5t-11.5 -1.5q-20 0 -30.5 10t-10.5 28q0 26 18.5 45.5t43.5 19.5q20 0 33 -13t13 -33q0 -48 -28.5 -95.5t-67.5 -81.5q-4 -4 -12 -4q-9 0 -15 4q33 30 53 62z" />
    <glyph glyph-name="uni1E45" unicode="&#x1e45;" horiz-adv-x="542" 
d="M117 460q9 49 53 49l-12 -69l-21 -20l1 -5q39 42 94 68t105 26q71 0 112 -36t41 -98q0 -16 -3 -34l-53 -300q-5 -24 -19 -37t-36 -13l62 352q3 17 3 31q0 46 -28.5 69.5t-84.5 23.5q-41 0 -83 -17.5t-71.5 -46t-34.5 -58.5l-53 -304q-9 -50 -55 -50zM308 598.5
q-9 8.5 -9 22.5q0 20 14 34t34 14q15 0 23.5 -9t8.5 -23q0 -19 -13.5 -33t-32.5 -14q-16 0 -25 8.5z" />
    <glyph glyph-name="uni1E47" unicode="&#x1e47;" horiz-adv-x="542" 
d="M117 460q9 49 53 49l-12 -69l-21 -20l1 -5q39 42 94 68t105 26q71 0 112 -36t41 -98q0 -16 -3 -34l-53 -300q-5 -24 -19 -37t-36 -13l62 352q3 17 3 31q0 46 -28.5 69.5t-84.5 23.5q-41 0 -83 -17.5t-71.5 -46t-34.5 -58.5l-53 -304q-9 -50 -55 -50zM174 -151.5
q-9 8.5 -9 22.5q0 20 14 34t34 14q15 0 23.5 -9t8.5 -23q0 -19 -13.5 -33t-32.5 -14q-16 0 -25 8.5z" />
    <glyph glyph-name="eng" unicode="&#x14b;" horiz-adv-x="542" 
d="M117 460q9 49 53 49l-12 -69q-11 -8 -21 -20l1 -5q39 42 94 68t105 26q71 0 112 -36t41 -98q0 -16 -3 -34l-75 -426q-10 -61 -46.5 -92.5t-94.5 -31.5q-23 0 -40.5 11.5t-17.5 25.5q0 11 7 22q10 -7 26.5 -12t30.5 -5q39 0 60 20.5t29 66.5l75 423q3 17 3 32
q0 92 -113 92q-41 0 -83 -17.5t-71.5 -46t-34.5 -58.5l-53 -304q-9 -50 -55 -50z" />
    <glyph glyph-name="uni1E49" unicode="&#x1e49;" horiz-adv-x="542" 
d="M117 460q9 49 53 49l-12 -69l-21 -20l1 -5q39 42 94 68t105 26q71 0 112 -36t41 -98q0 -16 -3 -34l-53 -300q-5 -24 -19 -37t-36 -13l62 352q3 17 3 31q0 46 -28.5 69.5t-84.5 23.5q-41 0 -83 -17.5t-71.5 -46t-34.5 -58.5l-53 -304q-9 -50 -55 -50zM85.5 -73.5
q15.5 11.5 37.5 11.5h236q-4 -21 -20 -32.5t-38 -11.5h-235q4 21 19.5 32.5z" />
    <glyph glyph-name="ntilde" unicode="&#xf1;" horiz-adv-x="542" 
d="M117 460q9 49 53 49l-12 -69l-21 -20l1 -5q39 42 94 68t105 26q71 0 112 -36t41 -98q0 -16 -3 -34l-53 -300q-5 -24 -19 -37t-36 -13l62 352q3 17 3 31q0 46 -28.5 69.5t-84.5 23.5q-41 0 -83 -17.5t-71.5 -46t-34.5 -58.5l-53 -304q-9 -50 -55 -50zM210 587q-7 8 -7 19
q0 28 24 48.5t58 20.5q21 0 36 -9t34 -27q14 -13 24 -19.5t21 -6.5q18 0 28 11.5t10 31.5q0 8 -2 16q8 3 14 3q10 0 16.5 -8t6.5 -20q0 -28 -24 -48t-57 -20q-22 0 -37.5 9t-35.5 27q-14 13 -23 19t-20 6q-16 0 -27 -10.5t-11 -29.5q0 -10 3 -19q-6 -2 -14 -2q-10 0 -17 8z
" />
    <glyph glyph-name="o" unicode="o" horiz-adv-x="540" 
d="M98 30q-47 39 -47 100q0 17 2 26l33 187q13 76 76.5 121t152.5 45q79 0 126 -39.5t47 -100.5q0 -17 -2 -26l-33 -187q-13 -74 -75.5 -119.5t-153.5 -45.5q-79 0 -126 39zM350 67.5q49 34.5 58 87.5l33 188q2 16 2 22q0 45 -34 73.5t-101 28.5q-71 0 -119.5 -35.5
t-57.5 -88.5l-33 -188q-2 -14 -2 -22q0 -45 35 -72.5t100 -27.5q70 0 119 34.5z" />
    <glyph glyph-name="oacute" unicode="&#xf3;" horiz-adv-x="540" 
d="M98 30q-47 39 -47 100q0 17 2 26l33 187q13 76 76.5 121t152.5 45q79 0 126 -39.5t47 -100.5q0 -17 -2 -26l-33 -187q-13 -74 -75.5 -119.5t-153.5 -45.5q-79 0 -126 39zM350 67.5q49 34.5 58 87.5l33 188q2 16 2 22q0 45 -34 73.5t-101 28.5q-71 0 -119.5 -35.5
t-57.5 -88.5l-33 -188q-2 -14 -2 -22q0 -45 35 -72.5t100 -27.5q70 0 119 34.5zM393 703q9 12 22 18t41 6h28l-135 -140q-9 -9 -17.5 -12t-34.5 -3z" />
    <glyph glyph-name="obreve" unicode="&#x14f;" horiz-adv-x="540" 
d="M98 30q-47 39 -47 100q0 17 2 26l33 187q13 76 76.5 121t152.5 45q79 0 126 -39.5t47 -100.5q0 -17 -2 -26l-33 -187q-13 -74 -75.5 -119.5t-153.5 -45.5q-79 0 -126 39zM350 67.5q49 34.5 58 87.5l33 188q2 16 2 22q0 45 -34 73.5t-101 28.5q-71 0 -119.5 -35.5
t-57.5 -88.5l-33 -188q-2 -14 -2 -22q0 -45 35 -72.5t100 -27.5q70 0 119 34.5zM265 584q-28 12 -46.5 35.5t-18.5 55.5q0 30 14 45.5t38 15.5q-3 -19 -3 -37q0 -82 81 -82q101 0 121 119q18 0 27.5 -9t9.5 -23q0 -32 -24.5 -62.5t-63 -50t-78.5 -19.5q-29 0 -57 12z" />
    <glyph glyph-name="uni01D2" unicode="&#x1d2;" horiz-adv-x="540" 
d="M98 30q-47 39 -47 100q0 17 2 26l33 187q13 76 76.5 121t152.5 45q79 0 126 -39.5t47 -100.5q0 -17 -2 -26l-33 -187q-13 -74 -75.5 -119.5t-153.5 -45.5q-79 0 -126 39zM350 67.5q49 34.5 58 87.5l33 188q2 16 2 22q0 45 -34 73.5t-101 28.5q-71 0 -119.5 -35.5
t-57.5 -88.5l-33 -188q-2 -14 -2 -22q0 -45 35 -72.5t100 -27.5q70 0 119 34.5zM430 715q12 12 31 12q16 0 29 -10l-151 -134q-7 -7 -17 -7t-15 7l-103 134q16 10 33 10q18 0 27 -12l66 -96z" />
    <glyph glyph-name="ocircumflex" unicode="&#xf4;" horiz-adv-x="540" 
d="M98 30q-47 39 -47 100q0 17 2 26l33 187q13 76 76.5 121t152.5 45q79 0 126 -39.5t47 -100.5q0 -17 -2 -26l-33 -187q-13 -74 -75.5 -119.5t-153.5 -45.5q-79 0 -126 39zM350 67.5q49 34.5 58 87.5l33 188q2 16 2 22q0 45 -34 73.5t-101 28.5q-71 0 -119.5 -35.5
t-57.5 -88.5l-33 -188q-2 -14 -2 -22q0 -45 35 -72.5t100 -27.5q70 0 119 34.5zM211 577q-18 0 -29 10l151 133q7 7 17 7q9 0 14 -7l104 -133q-17 -11 -33 -11q-20 0 -27 12l-66 96l-100 -96q-11 -11 -31 -11z" />
    <glyph glyph-name="uni1ED1" unicode="&#x1ed1;" horiz-adv-x="540" 
d="M98 30q-47 39 -47 100q0 17 2 26l33 187q13 76 76.5 121t152.5 45q79 0 126 -39.5t47 -100.5q0 -17 -2 -26l-33 -187q-13 -74 -75.5 -119.5t-153.5 -45.5q-79 0 -126 39zM350 67.5q49 34.5 58 87.5l33 188q2 16 2 22q0 45 -34 73.5t-101 28.5q-71 0 -119.5 -35.5
t-57.5 -88.5l-33 -188q-2 -14 -2 -22q0 -45 35 -72.5t100 -27.5q70 0 119 34.5zM489 802q10 13 23.5 19t37.5 6h20l-106 -105q-10 -9 -19.5 -12t-28.5 -4zM240 588q-11 -11 -29 -11t-31 10l152 133q7 7 17 7q9 0 14 -7l104 -133q-14 -10 -34 -10q-19 0 -26 11l-66 96z" />
    <glyph glyph-name="uni1ED9" unicode="&#x1ed9;" horiz-adv-x="540" 
d="M98 30q-47 39 -47 100q0 17 2 26l33 187q13 76 76.5 121t152.5 45q79 0 126 -39.5t47 -100.5q0 -17 -2 -26l-33 -187q-13 -74 -75.5 -119.5t-153.5 -45.5q-79 0 -126 39zM350 67.5q49 34.5 58 87.5l33 188q2 16 2 22q0 45 -34 73.5t-101 28.5q-71 0 -119.5 -35.5
t-57.5 -88.5l-33 -188q-2 -14 -2 -22q0 -45 35 -72.5t100 -27.5q70 0 119 34.5zM172 -151.5q-9 8.5 -9 22.5q0 20 14 34t34 14q15 0 23.5 -9t8.5 -23q0 -19 -13.5 -33t-32.5 -14q-16 0 -25 8.5zM211 577q-18 0 -29 10l151 133q7 7 17 7q9 0 14 -7l104 -133q-17 -11 -33 -11
q-20 0 -27 12l-66 96l-100 -96q-11 -11 -31 -11z" />
    <glyph glyph-name="uni1ED3" unicode="&#x1ed3;" horiz-adv-x="540" 
d="M98 30q-47 39 -47 100q0 17 2 26l33 187q13 76 76.5 121t152.5 45q79 0 126 -39.5t47 -100.5q0 -17 -2 -26l-33 -187q-13 -74 -75.5 -119.5t-153.5 -45.5q-79 0 -126 39zM350 67.5q49 34.5 58 87.5l33 188q2 16 2 22q0 45 -34 73.5t-101 28.5q-71 0 -119.5 -35.5
t-57.5 -88.5l-33 -188q-2 -14 -2 -22q0 -45 35 -72.5t100 -27.5q70 0 119 34.5zM455.5 709.5q-7.5 2.5 -14.5 12.5l-69 105h20q22 0 34.5 -5.5t18.5 -19.5l38 -96q-20 1 -27.5 3.5zM241 588q-11 -11 -29 -11t-31 10l151 133q7 7 17 7q9 0 14 -7l104 -133q-14 -10 -34 -10
q-19 0 -26 11l-66 96z" />
    <glyph glyph-name="uni1ED5" unicode="&#x1ed5;" horiz-adv-x="540" 
d="M98 30q-47 39 -47 100q0 17 2 26l33 187q13 76 76.5 121t152.5 45q79 0 126 -39.5t47 -100.5q0 -17 -2 -26l-33 -187q-13 -74 -75.5 -119.5t-153.5 -45.5q-79 0 -126 39zM350 67.5q49 34.5 58 87.5l33 188q2 16 2 22q0 45 -34 73.5t-101 28.5q-71 0 -119.5 -35.5
t-57.5 -88.5l-33 -188q-2 -14 -2 -22q0 -45 35 -72.5t100 -27.5q70 0 119 34.5zM436 694q3 16 11 26t21 21q11 9 16.5 16.5t5.5 18.5q0 9 -8 14t-21 5q-17 0 -29 -9.5t-12 -27.5v-5q-13 0 -20.5 5t-7.5 14q0 19 23.5 35t51.5 16q21 0 38 -11t17 -32q0 -20 -8 -31t-24 -22
q-12 -10 -17.5 -16t-7.5 -16q-3 -18 -20 -18q-8 0 -12 1zM241 588q-11 -11 -29 -11t-31 10l151 133q7 7 17 7q9 0 14 -7l104 -133q-14 -10 -34 -10q-19 0 -26 11l-66 96z" />
    <glyph glyph-name="uni1ED7" unicode="&#x1ed7;" horiz-adv-x="540" 
d="M98 30q-47 39 -47 100q0 17 2 26l33 187q13 76 76.5 121t152.5 45q79 0 126 -39.5t47 -100.5q0 -17 -2 -26l-33 -187q-13 -74 -75.5 -119.5t-153.5 -45.5q-79 0 -126 39zM350 67.5q49 34.5 58 87.5l33 188q2 16 2 22q0 45 -34 73.5t-101 28.5q-71 0 -119.5 -35.5
t-57.5 -88.5l-33 -188q-2 -14 -2 -22q0 -45 35 -72.5t100 -27.5q70 0 119 34.5zM247.5 750q-6.5 7 -6.5 17q0 24 21.5 42t50.5 18q19 0 32 -7.5t30 -22.5q12 -11 20.5 -16.5t18.5 -5.5q16 0 25 8.5t9 24.5q0 10 -3 17q8 2 13 2q9 0 15 -7t6 -16q0 -25 -21 -41.5t-51 -16.5
q-19 0 -32.5 7.5t-30.5 22.5q-12 11 -20 16t-18 5q-16 0 -25 -10t-9 -27q0 -8 3 -16q-5 -1 -11 -1q-10 0 -16.5 7zM212 577q-18 0 -31 10l151 133q7 7 17 7q9 0 14 -7l104 -133q-14 -10 -34 -10q-19 0 -26 11l-66 96l-100 -96q-11 -11 -29 -11z" />
    <glyph glyph-name="odieresis" unicode="&#xf6;" horiz-adv-x="540" 
d="M98 30q-47 39 -47 100q0 17 2 26l33 187q13 76 76.5 121t152.5 45q79 0 126 -39.5t47 -100.5q0 -17 -2 -26l-33 -187q-13 -74 -75.5 -119.5t-153.5 -45.5q-79 0 -126 39zM350 67.5q49 34.5 58 87.5l33 188q2 16 2 22q0 45 -34 73.5t-101 28.5q-71 0 -119.5 -35.5
t-57.5 -88.5l-33 -188q-2 -14 -2 -22q0 -45 35 -72.5t100 -27.5q70 0 119 34.5zM212 598.5q-9 8.5 -9 22.5q0 20 14 34t34 14q15 0 23.5 -9t8.5 -23q0 -19 -13.5 -33t-32.5 -14q-16 0 -25 8.5zM389 598.5q-9 8.5 -9 22.5q0 20 14 34t34 14q15 0 23.5 -9t8.5 -23
q0 -19 -13.5 -33t-32.5 -14q-16 0 -25 8.5z" />
    <glyph glyph-name="uni1ECD" unicode="&#x1ecd;" horiz-adv-x="540" 
d="M98 30q-47 39 -47 100q0 17 2 26l33 187q13 76 76.5 121t152.5 45q79 0 126 -39.5t47 -100.5q0 -17 -2 -26l-33 -187q-13 -74 -75.5 -119.5t-153.5 -45.5q-79 0 -126 39zM350 67.5q49 34.5 58 87.5l33 188q2 16 2 22q0 45 -34 73.5t-101 28.5q-71 0 -119.5 -35.5
t-57.5 -88.5l-33 -188q-2 -14 -2 -22q0 -45 35 -72.5t100 -27.5q70 0 119 34.5zM172 -151.5q-9 8.5 -9 22.5q0 20 14 34t34 14q15 0 23.5 -9t8.5 -23q0 -19 -13.5 -33t-32.5 -14q-16 0 -25 8.5z" />
    <glyph glyph-name="ograve" unicode="&#xf2;" horiz-adv-x="540" 
d="M98 30q-47 39 -47 100q0 17 2 26l33 187q13 76 76.5 121t152.5 45q79 0 126 -39.5t47 -100.5q0 -17 -2 -26l-33 -187q-13 -74 -75.5 -119.5t-153.5 -45.5q-79 0 -126 39zM350 67.5q49 34.5 58 87.5l33 188q2 16 2 22q0 45 -34 73.5t-101 28.5q-71 0 -119.5 -35.5
t-57.5 -88.5l-33 -188q-2 -14 -2 -22q0 -45 35 -72.5t100 -27.5q70 0 119 34.5zM321.5 575q-7.5 3 -13.5 12l-88 141h28q23 0 36 -5t19 -19l51 -132q-25 0 -32.5 3z" />
    <glyph glyph-name="uni1ECF" unicode="&#x1ecf;" horiz-adv-x="540" 
d="M98 30q-47 39 -47 100q0 17 2 26l33 187q13 76 76.5 121t152.5 45q79 0 126 -39.5t47 -100.5q0 -17 -2 -26l-33 -187q-13 -74 -75.5 -119.5t-153.5 -45.5q-79 0 -126 39zM350 67.5q49 34.5 58 87.5l33 188q2 16 2 22q0 45 -34 73.5t-101 28.5q-71 0 -119.5 -35.5
t-57.5 -88.5l-33 -188q-2 -14 -2 -22q0 -45 35 -72.5t100 -27.5q70 0 119 34.5zM308 597q4 19 13.5 31t25.5 25q15 12 22 21t7 24q0 11 -7.5 17t-22.5 6q-20 0 -33 -14t-13 -36v-5q-17 0 -26.5 6.5t-9.5 18.5q0 25 28 45.5t62 20.5q27 0 46 -14t19 -39q0 -26 -10 -39
t-30 -28q-15 -11 -22.5 -19t-9.5 -21q-4 -22 -27 -22q-4 0 -16 2z" />
    <glyph glyph-name="ohorn" unicode="&#x1a1;" horiz-adv-x="540" 
d="M569 431q-30 -37 -81 -58v-8q0 -8 -2 -22l-33 -187q-13 -74 -75.5 -119.5t-153.5 -45.5q-79 0 -126 39t-47 100q0 17 2 26l33 187q13 76 76.5 121t152.5 45q67 0 112 -29t57 -77q36 20 51.5 50.5t26.5 90.5q37 0 37 -35q0 -41 -30 -78zM443 365q0 45 -34 73.5t-101 28.5
q-71 0 -119.5 -35.5t-57.5 -88.5l-33 -188q-2 -14 -2 -22q0 -45 35 -72.5t100 -27.5q70 0 119 34.5t58 87.5l33 188q2 16 2 22z" />
    <glyph glyph-name="uni1EDB" unicode="&#x1edb;" horiz-adv-x="540" 
d="M569 431q-30 -37 -81 -58v-8q0 -8 -2 -22l-33 -187q-13 -74 -75.5 -119.5t-153.5 -45.5q-79 0 -126 39t-47 100q0 17 2 26l33 187q13 76 76.5 121t152.5 45q67 0 112 -29t57 -77q36 20 51.5 50.5t26.5 90.5q37 0 37 -35q0 -41 -30 -78zM443 365q0 45 -34 73.5t-101 28.5
q-71 0 -119.5 -35.5t-57.5 -88.5l-33 -188q-2 -14 -2 -22q0 -45 35 -72.5t100 -27.5q70 0 119 34.5t58 87.5l33 188q2 16 2 22zM408 712q9 12 22 18t41 6h28l-135 -140q-9 -9 -17.5 -12t-34.5 -3z" />
    <glyph glyph-name="uni1EE3" unicode="&#x1ee3;" horiz-adv-x="540" 
d="M569 431q-30 -37 -81 -58v-8q0 -8 -2 -22l-33 -187q-13 -74 -75.5 -119.5t-153.5 -45.5q-79 0 -126 39t-47 100q0 17 2 26l33 187q13 76 76.5 121t152.5 45q67 0 112 -29t57 -77q36 20 51.5 50.5t26.5 90.5q37 0 37 -35q0 -41 -30 -78zM443 365q0 45 -34 73.5t-101 28.5
q-71 0 -119.5 -35.5t-57.5 -88.5l-33 -188q-2 -14 -2 -22q0 -45 35 -72.5t100 -27.5q70 0 119 34.5t58 87.5l33 188q2 16 2 22zM181 -151.5q-9 8.5 -9 22.5q0 20 14 34t34 14q15 0 23.5 -9t8.5 -23q0 -19 -13.5 -33t-32.5 -14q-16 0 -25 8.5z" />
    <glyph glyph-name="uni1EDD" unicode="&#x1edd;" horiz-adv-x="540" 
d="M569 431q-30 -37 -81 -58v-8q0 -8 -2 -22l-33 -187q-13 -74 -75.5 -119.5t-153.5 -45.5q-79 0 -126 39t-47 100q0 17 2 26l33 187q13 76 76.5 121t152.5 45q67 0 112 -29t57 -77q36 20 51.5 50.5t26.5 90.5q37 0 37 -35q0 -41 -30 -78zM443 365q0 45 -34 73.5t-101 28.5
q-71 0 -119.5 -35.5t-57.5 -88.5l-33 -188q-2 -14 -2 -22q0 -45 35 -72.5t100 -27.5q70 0 119 34.5t58 87.5l33 188q2 16 2 22zM336.5 584q-7.5 3 -13.5 12l-88 141h28q23 0 36 -5t19 -19l51 -132q-25 0 -32.5 3z" />
    <glyph glyph-name="uni1EDF" unicode="&#x1edf;" horiz-adv-x="540" 
d="M569 431q-30 -37 -81 -58v-8q0 -8 -2 -22l-33 -187q-13 -74 -75.5 -119.5t-153.5 -45.5q-79 0 -126 39t-47 100q0 17 2 26l33 187q13 76 76.5 121t152.5 45q67 0 112 -29t57 -77q36 20 51.5 50.5t26.5 90.5q37 0 37 -35q0 -41 -30 -78zM443 365q0 45 -34 73.5t-101 28.5
q-71 0 -119.5 -35.5t-57.5 -88.5l-33 -188q-2 -14 -2 -22q0 -45 35 -72.5t100 -27.5q70 0 119 34.5t58 87.5l33 188q2 16 2 22zM323 606q4 19 13.5 31t25.5 25q15 12 22 21t7 24q0 11 -7.5 17t-22.5 6q-20 0 -33 -14t-13 -36v-5q-17 0 -26.5 6.5t-9.5 18.5q0 25 28 45.5
t62 20.5q27 0 46 -14t19 -39q0 -26 -10 -39t-30 -28q-15 -11 -22.5 -19t-9.5 -21q-4 -22 -27 -22q-4 0 -16 2z" />
    <glyph glyph-name="uni1EE1" unicode="&#x1ee1;" horiz-adv-x="540" 
d="M569 431q-30 -37 -81 -58v-8q0 -8 -2 -22l-33 -187q-13 -74 -75.5 -119.5t-153.5 -45.5q-79 0 -126 39t-47 100q0 17 2 26l33 187q13 76 76.5 121t152.5 45q67 0 112 -29t57 -77q36 20 51.5 50.5t26.5 90.5q37 0 37 -35q0 -41 -30 -78zM443 365q0 45 -34 73.5t-101 28.5
q-71 0 -119.5 -35.5t-57.5 -88.5l-33 -188q-2 -14 -2 -22q0 -45 35 -72.5t100 -27.5q70 0 119 34.5t58 87.5l33 188q2 16 2 22zM218 596q-7 8 -7 19q0 28 24 48.5t58 20.5q21 0 36 -9t34 -27q14 -13 24 -19.5t21 -6.5q18 0 28 11.5t10 31.5q0 8 -2 16q8 3 14 3q10 0 16.5 -8
t6.5 -20q0 -28 -24 -48t-57 -20q-22 0 -37.5 9t-35.5 27q-14 13 -23 19t-20 6q-16 0 -27 -10.5t-11 -29.5q0 -10 3 -19q-6 -2 -14 -2q-10 0 -17 8z" />
    <glyph glyph-name="ohungarumlaut" unicode="&#x151;" horiz-adv-x="540" 
d="M98 30q-47 39 -47 100q0 17 2 26l33 187q13 76 76.5 121t152.5 45q79 0 126 -39.5t47 -100.5q0 -17 -2 -26l-33 -187q-13 -74 -75.5 -119.5t-153.5 -45.5q-79 0 -126 39zM350 67.5q49 34.5 58 87.5l33 188q2 16 2 22q0 45 -34 73.5t-101 28.5q-71 0 -119.5 -35.5
t-57.5 -88.5l-33 -188q-2 -14 -2 -22q0 -45 35 -72.5t100 -27.5q70 0 119 34.5zM300 704q9 12 22 18t40 6h29l-137 -141q-9 -9 -19 -12t-34 -3zM477 704q10 13 24.5 18.5t38.5 5.5h30l-139 -141q-9 -9 -18 -12t-35 -3z" />
    <glyph glyph-name="omacron" unicode="&#x14d;" horiz-adv-x="540" 
d="M98 30q-47 39 -47 100q0 17 2 26l33 187q13 76 76.5 121t152.5 45q79 0 126 -39.5t47 -100.5q0 -17 -2 -26l-33 -187q-13 -74 -75.5 -119.5t-153.5 -45.5q-79 0 -126 39zM350 67.5q49 34.5 58 87.5l33 188q2 16 2 22q0 45 -34 73.5t-101 28.5q-71 0 -119.5 -35.5
t-57.5 -88.5l-33 -188q-2 -14 -2 -22q0 -45 35 -72.5t100 -27.5q70 0 119 34.5zM204.5 632.5q15.5 11.5 37.5 11.5h236q-4 -21 -19.5 -32.5t-38.5 -11.5h-235q4 21 19.5 32.5z" />
    <glyph glyph-name="oslash" unicode="&#xf8;" horiz-adv-x="540" 
d="M488 369q0 -17 -2 -26l-33 -187q-13 -75 -76 -120t-153 -45q-49 0 -92 18l-24 -35q-22 -31 -44 -31q-14 0 -26 8l56 83q-43 37 -43 96q0 17 2 26l33 187q13 75 77 120.5t152 45.5q48 0 91 -18l29 43q12 16 21.5 23.5t21.5 7.5q11 0 27 -8l-61 -90q44 -38 44 -98zM96 131
q0 -38 23 -61l262 385q-28 12 -73 12q-71 0 -119.5 -35.5t-57.5 -88.5l-33 -188q-2 -16 -2 -24zM443 367q0 39 -24 64l-263 -386q30 -12 75 -12q71 0 119.5 34.5t57.5 87.5l33 188q2 16 2 24z" />
    <glyph glyph-name="oslashacute" unicode="&#x1ff;" horiz-adv-x="540" 
d="M488 369q0 -17 -2 -26l-33 -187q-13 -75 -76 -120t-153 -45q-49 0 -92 18l-24 -35q-22 -31 -44 -31q-14 0 -26 8l56 83q-43 37 -43 96q0 17 2 26l33 187q13 75 77 120.5t152 45.5q48 0 91 -18l29 43q12 16 21.5 23.5t21.5 7.5q11 0 27 -8l-61 -90q44 -38 44 -98zM96 131
q0 -38 23 -61l262 385q-28 12 -73 12q-71 0 -119.5 -35.5t-57.5 -88.5l-33 -188q-2 -16 -2 -24zM443 367q0 39 -24 64l-263 -386q30 -12 75 -12q71 0 119.5 34.5t57.5 87.5l33 188q2 16 2 24zM399 712q9 12 22 18t41 6h28l-135 -140q-9 -9 -17.5 -12t-34.5 -3z" />
    <glyph glyph-name="otilde" unicode="&#xf5;" horiz-adv-x="540" 
d="M98 30q-47 39 -47 100q0 17 2 26l33 187q13 76 76.5 121t152.5 45q79 0 126 -39.5t47 -100.5q0 -17 -2 -26l-33 -187q-13 -74 -75.5 -119.5t-153.5 -45.5q-79 0 -126 39zM350 67.5q49 34.5 58 87.5l33 188q2 16 2 22q0 45 -34 73.5t-101 28.5q-71 0 -119.5 -35.5
t-57.5 -88.5l-33 -188q-2 -14 -2 -22q0 -45 35 -72.5t100 -27.5q70 0 119 34.5zM203 587q-7 8 -7 19q0 28 24 48.5t58 20.5q21 0 36 -9t34 -27q14 -13 24 -19.5t21 -6.5q18 0 28 11.5t10 31.5q0 8 -2 16q8 3 14 3q10 0 16.5 -8t6.5 -20q0 -28 -24 -48t-57 -20q-22 0 -37.5 9
t-35.5 27q-14 13 -23 19t-20 6q-16 0 -27 -10.5t-11 -29.5q0 -10 3 -19q-6 -2 -14 -2q-10 0 -17 8z" />
    <glyph glyph-name="oe" unicode="&#x153;" horiz-adv-x="867" 
d="M97.5 30q-46.5 39 -46.5 99q0 18 2 27l33 187q8 45 40 83t81 60.5t106 22.5q60 0 102 -24.5t58 -65.5q32 41 82 65.5t105 24.5q49 0 87.5 -19t60 -53t21.5 -76q0 -15 -3 -30l-13 -71q-2 -8 -10.5 -15.5t-16.5 -7.5h-324l-12 -71q-2 -10 -2 -28q0 -50 33.5 -77t94.5 -27
q71 0 117.5 33t56.5 91q12 -1 21 -12t9 -23q0 -31 -29 -62t-77.5 -50.5t-104.5 -19.5q-59 0 -100 23t-57 64q-32 -40 -81 -63.5t-109 -23.5q-78 0 -124.5 39zM347 67.5q48 34.5 57 87.5l33 188q2 14 2 21q0 45 -34.5 74t-98.5 29q-69 0 -117 -34.5t-58 -89.5l-33 -188
q-2 -14 -2 -20q0 -45 35.5 -73.5t97.5 -28.5q70 0 118 34.5zM771 281l9 50q2 16 2 25q0 49 -35.5 79t-94.5 30q-66 0 -114 -37.5t-59 -96.5l-9 -50h301z" />
    <glyph glyph-name="p" unicode="p" horiz-adv-x="542" 
d="M115 454q5 27 17.5 41t39.5 14l-11 -58q-18 -15 -24 -25l1 -4q87 87 181 87q80 0 125.5 -36t45.5 -99q0 -15 -3 -32l-32 -185q-13 -79 -72.5 -122.5t-151.5 -43.5q-51 0 -87.5 20.5t-67.5 65.5l-2 -5q5 -10 15 -25l-36 -207q-9 -49 -55 -49zM353.5 66.5
q45.5 33.5 55.5 89.5l33 187q3 15 3 28q0 46 -33 71t-99 25q-40 0 -77.5 -16t-62.5 -43.5t-31 -59.5l-35 -197q-2 -12 -2 -19q0 -44 36.5 -71.5t97.5 -27.5q69 0 114.5 33.5z" />
    <glyph glyph-name="thorn" unicode="&#xfe;" horiz-adv-x="532" 
d="M150 654q5 27 17.5 41t39.5 14l-46 -258q-20 -20 -24 -25l1 -4q87 87 181 87q78 0 124.5 -38t46.5 -100q0 -14 -3 -29l-32 -185q-13 -78 -72.5 -122t-151.5 -44q-51 0 -87.5 20.5t-67.5 65.5l-2 -5q5 -10 15 -25l-36 -207q-9 -49 -55 -49zM353.5 66.5
q45.5 33.5 55.5 89.5l33 187q2 9 2 25q0 47 -34.5 73t-96.5 26q-40 0 -77.5 -16t-62.5 -43.5t-31 -59.5l-35 -197q-2 -12 -2 -19q0 -44 36.5 -71.5t97.5 -27.5q69 0 114.5 33.5z" />
    <glyph glyph-name="q" unicode="q" horiz-adv-x="542" 
d="M389 -160q-9 -49 -55 -49l46 256q15 13 23 25v5q-42 -41 -90 -63.5t-94 -22.5q-76 0 -122.5 38t-46.5 99q0 14 3 29l33 185q15 81 73.5 124t153.5 43q94 0 150 -87l1 4l-15 25q5 29 19 43.5t39 14.5zM186 435q-45 -32 -55 -92l-33 -187q-2 -9 -2 -26q0 -47 33 -72t96 -25
q40 0 78 16t63.5 43.5t30.5 58.5l35 197q2 12 2 17q0 43 -37.5 72.5t-92.5 29.5q-73 0 -118 -32z" />
    <glyph glyph-name="r" unicode="r" horiz-adv-x="376" 
d="M194.5 431q-43.5 -36 -52.5 -86l-53 -304q-9 -50 -55 -50l83 469q9 49 53 49l-11 -63q-16 -16 -24 -26l1 -4q82 93 177 93q25 0 40.5 -9.5t15.5 -25.5q0 -12 -10 -22q-11 7 -30.5 11t-38.5 4q-52 0 -95.5 -36z" />
    <glyph glyph-name="racute" unicode="&#x155;" horiz-adv-x="376" 
d="M194.5 431q-43.5 -36 -52.5 -86l-53 -304q-9 -50 -55 -50l83 469q9 49 53 49l-11 -63q-16 -16 -24 -26l1 -4q82 93 177 93q25 0 40.5 -9.5t15.5 -25.5q0 -12 -10 -22q-11 7 -30.5 11t-38.5 4q-52 0 -95.5 -36zM327 703q9 12 22 18t41 6h28l-135 -140q-9 -9 -17.5 -12
t-34.5 -3z" />
    <glyph glyph-name="rcaron" unicode="&#x159;" horiz-adv-x="376" 
d="M194.5 431q-43.5 -36 -52.5 -86l-53 -304q-9 -50 -55 -50l83 469q9 49 53 49l-11 -63q-16 -16 -24 -26l1 -4q82 93 177 93q25 0 40.5 -9.5t15.5 -25.5q0 -12 -10 -22q-11 7 -30.5 11t-38.5 4q-52 0 -95.5 -36zM364 715q12 12 31 12q16 0 29 -10l-151 -134q-7 -7 -17 -7
t-15 7l-103 134q16 10 33 10q18 0 27 -12l66 -96z" />
    <glyph glyph-name="uni0157" unicode="&#x157;" horiz-adv-x="376" 
d="M194.5 431q-43.5 -36 -52.5 -86l-53 -304q-9 -50 -55 -50l83 469q9 49 53 49l-11 -63q-16 -16 -24 -26l1 -4q82 93 177 93q25 0 40.5 -9.5t15.5 -25.5q0 -12 -10 -22q-11 7 -30.5 11t-38.5 4q-52 0 -95.5 -36zM24 -213q20 32 25 62q-4 -1 -10.5 -2.5t-11.5 -1.5
q-20 0 -30.5 10t-10.5 28q0 26 18.5 45.5t43.5 19.5q20 0 33 -13t13 -33q0 -48 -28.5 -95.5t-67.5 -81.5q-4 -4 -12 -4q-9 0 -15 4q33 30 53 62z" />
    <glyph glyph-name="uni1E5B" unicode="&#x1e5b;" horiz-adv-x="376" 
d="M194.5 431q-43.5 -36 -52.5 -86l-53 -304q-9 -50 -55 -50l83 469q9 49 53 49l-11 -63q-16 -16 -24 -26l1 -4q82 93 177 93q25 0 40.5 -9.5t15.5 -25.5q0 -12 -10 -22q-11 7 -30.5 11t-38.5 4q-52 0 -95.5 -36zM7 -151.5q-9 8.5 -9 22.5q0 20 14 34t34 14q15 0 23.5 -9
t8.5 -23q0 -19 -13.5 -33t-32.5 -14q-16 0 -25 8.5z" />
    <glyph glyph-name="uni1E5D" unicode="&#x1e5d;" horiz-adv-x="376" 
d="M194.5 431q-43.5 -36 -52.5 -86l-53 -304q-9 -50 -55 -50l83 469q9 49 53 49l-11 -63q-16 -16 -24 -26l1 -4q82 93 177 93q25 0 40.5 -9.5t15.5 -25.5q0 -12 -10 -22q-11 7 -30.5 11t-38.5 4q-52 0 -95.5 -36zM7 -151.5q-9 8.5 -9 22.5q0 20 14 34t34 14q15 0 23.5 -9
t8.5 -23q0 -19 -13.5 -33t-32.5 -14q-16 0 -25 8.5zM138.5 632.5q15.5 11.5 37.5 11.5h236q-4 -21 -19.5 -32.5t-38.5 -11.5h-235q4 21 19.5 32.5z" />
    <glyph glyph-name="uni1E5F" unicode="&#x1e5f;" horiz-adv-x="376" 
d="M194.5 431q-43.5 -36 -52.5 -86l-53 -304q-9 -50 -55 -50l83 469q9 49 53 49l-11 -63q-16 -16 -24 -26l1 -4q82 93 177 93q25 0 40.5 -9.5t15.5 -25.5q0 -12 -10 -22q-11 7 -30.5 11t-38.5 4q-52 0 -95.5 -36zM-81.5 -73.5q15.5 11.5 37.5 11.5h236q-4 -21 -20 -32.5
t-38 -11.5h-235q4 21 19.5 32.5z" />
    <glyph glyph-name="s" unicode="s" horiz-adv-x="490" 
d="M79 22.5q-49 31.5 -49 81.5q0 27 11.5 41t32.5 14q-4 -64 28 -94t105 -30t114.5 29.5t41.5 82.5q0 33 -30 52t-107 35q-146 30 -146 124q0 44 24.5 78.5t68.5 53.5t101 19q71 0 117 -31.5t46 -80.5q0 -23 -11.5 -35.5t-33.5 -13.5q1 6 1 16q0 49 -31.5 76.5t-88.5 27.5
q-64 0 -104.5 -30t-40.5 -77q0 -32 27 -51.5t88 -32.5q87 -18 127 -48t40 -78q0 -73 -55.5 -116.5t-149.5 -43.5q-77 0 -126 31.5z" />
    <glyph glyph-name="sacute" unicode="&#x15b;" horiz-adv-x="490" 
d="M79 22.5q-49 31.5 -49 81.5q0 27 11.5 41t32.5 14q-4 -64 28 -94t105 -30t114.5 29.5t41.5 82.5q0 33 -30 52t-107 35q-146 30 -146 124q0 44 24.5 78.5t68.5 53.5t101 19q71 0 117 -31.5t46 -80.5q0 -23 -11.5 -35.5t-33.5 -13.5q1 6 1 16q0 49 -31.5 76.5t-88.5 27.5
q-64 0 -104.5 -30t-40.5 -77q0 -32 27 -51.5t88 -32.5q87 -18 127 -48t40 -78q0 -73 -55.5 -116.5t-149.5 -43.5q-77 0 -126 31.5zM360 703q9 12 22 18t41 6h28l-135 -140q-9 -9 -17.5 -12t-34.5 -3z" />
    <glyph glyph-name="scaron" unicode="&#x161;" horiz-adv-x="490" 
d="M79 22.5q-49 31.5 -49 81.5q0 27 11.5 41t32.5 14q-4 -64 28 -94t105 -30t114.5 29.5t41.5 82.5q0 33 -30 52t-107 35q-146 30 -146 124q0 44 24.5 78.5t68.5 53.5t101 19q71 0 117 -31.5t46 -80.5q0 -23 -11.5 -35.5t-33.5 -13.5q1 6 1 16q0 49 -31.5 76.5t-88.5 27.5
q-64 0 -104.5 -30t-40.5 -77q0 -32 27 -51.5t88 -32.5q87 -18 127 -48t40 -78q0 -73 -55.5 -116.5t-149.5 -43.5q-77 0 -126 31.5zM397 715q12 12 31 12q16 0 29 -10l-151 -134q-7 -7 -17 -7t-15 7l-103 134q16 10 33 10q18 0 27 -12l66 -96z" />
    <glyph glyph-name="scedilla" unicode="&#x15f;" horiz-adv-x="490" 
d="M425.5 361.5q-11.5 -12.5 -33.5 -13.5q1 6 1 16q0 49 -31.5 76.5t-88.5 27.5q-64 0 -104.5 -30t-40.5 -77q0 -32 27 -51.5t88 -32.5q87 -18 127 -48t40 -78q0 -71 -52.5 -114t-141.5 -46l-34 -39q37 0 56 -17t19 -44q0 -40 -30 -67t-75 -27q-32 0 -51.5 14t-19.5 32
q0 10 10 23q10 -15 26 -24t35 -9q25 0 40 14t15 37q0 15 -11 23.5t-27 8.5q-6 0 -14.5 -1.5t-15.5 -4.5q-1 -1 -4 -1q-5 0 -9 4t-4 10q0 7 5 13l47 56q-65 7 -104.5 37t-39.5 75q0 27 11.5 41t32.5 14q-4 -64 28 -94t105 -30t114.5 29.5t41.5 82.5q0 33 -30 52t-107 35
q-146 30 -146 124q0 44 24.5 78.5t68.5 53.5t101 19q71 0 117 -31.5t46 -80.5q0 -23 -11.5 -35.5z" />
    <glyph glyph-name="scircumflex" unicode="&#x15d;" horiz-adv-x="490" 
d="M79 22.5q-49 31.5 -49 81.5q0 27 11.5 41t32.5 14q-4 -64 28 -94t105 -30t114.5 29.5t41.5 82.5q0 33 -30 52t-107 35q-146 30 -146 124q0 44 24.5 78.5t68.5 53.5t101 19q71 0 117 -31.5t46 -80.5q0 -23 -11.5 -35.5t-33.5 -13.5q1 6 1 16q0 49 -31.5 76.5t-88.5 27.5
q-64 0 -104.5 -30t-40.5 -77q0 -32 27 -51.5t88 -32.5q87 -18 127 -48t40 -78q0 -73 -55.5 -116.5t-149.5 -43.5q-77 0 -126 31.5zM178 577q-18 0 -29 10l151 133q7 7 17 7q9 0 14 -7l104 -133q-17 -11 -33 -11q-20 0 -27 12l-66 96l-100 -96q-11 -11 -31 -11z" />
    <glyph glyph-name="uni0219" unicode="&#x219;" horiz-adv-x="490" 
d="M79 22.5q-49 31.5 -49 81.5q0 27 11.5 41t32.5 14q-4 -64 28 -94t105 -30t114.5 29.5t41.5 82.5q0 33 -30 52t-107 35q-146 30 -146 124q0 44 24.5 78.5t68.5 53.5t101 19q71 0 117 -31.5t46 -80.5q0 -23 -11.5 -35.5t-33.5 -13.5q1 6 1 16q0 49 -31.5 76.5t-88.5 27.5
q-64 0 -104.5 -30t-40.5 -77q0 -32 27 -51.5t88 -32.5q87 -18 127 -48t40 -78q0 -73 -55.5 -116.5t-149.5 -43.5q-77 0 -126 31.5zM164 -213q20 32 25 62q-4 -1 -10.5 -2.5t-11.5 -1.5q-20 0 -30.5 10t-10.5 28q0 26 18.5 45.5t43.5 19.5q20 0 33 -13t13 -33
q0 -48 -28.5 -95.5t-67.5 -81.5q-4 -4 -12 -4q-9 0 -15 4q33 30 53 62z" />
    <glyph glyph-name="uni1E61" unicode="&#x1e61;" horiz-adv-x="490" 
d="M79 22.5q-49 31.5 -49 81.5q0 27 11.5 41t32.5 14q-4 -64 28 -94t105 -30t114.5 29.5t41.5 82.5q0 33 -30 52t-107 35q-146 30 -146 124q0 44 24.5 78.5t68.5 53.5t101 19q71 0 117 -31.5t46 -80.5q0 -23 -11.5 -35.5t-33.5 -13.5q1 6 1 16q0 49 -31.5 76.5t-88.5 27.5
q-64 0 -104.5 -30t-40.5 -77q0 -32 27 -51.5t88 -32.5q87 -18 127 -48t40 -78q0 -73 -55.5 -116.5t-149.5 -43.5q-77 0 -126 31.5zM268 598.5q-9 8.5 -9 22.5q0 20 14 34t34 14q15 0 23.5 -9t8.5 -23q0 -19 -13.5 -33t-32.5 -14q-16 0 -25 8.5z" />
    <glyph glyph-name="uni1E63" unicode="&#x1e63;" horiz-adv-x="490" 
d="M79 22.5q-49 31.5 -49 81.5q0 27 11.5 41t32.5 14q-4 -64 28 -94t105 -30t114.5 29.5t41.5 82.5q0 33 -30 52t-107 35q-146 30 -146 124q0 44 24.5 78.5t68.5 53.5t101 19q71 0 117 -31.5t46 -80.5q0 -23 -11.5 -35.5t-33.5 -13.5q1 6 1 16q0 49 -31.5 76.5t-88.5 27.5
q-64 0 -104.5 -30t-40.5 -77q0 -32 27 -51.5t88 -32.5q87 -18 127 -48t40 -78q0 -73 -55.5 -116.5t-149.5 -43.5q-77 0 -126 31.5zM147 -151.5q-9 8.5 -9 22.5q0 20 14 34t34 14q15 0 23.5 -9t8.5 -23q0 -19 -13.5 -33t-32.5 -14q-16 0 -25 8.5z" />
    <glyph glyph-name="germandbls" unicode="&#xdf;" horiz-adv-x="522" 
d="M123 528q16 89 68 135t137 46q68 0 108 -35.5t40 -96.5q0 -63 -33.5 -117.5t-88.5 -79.5q52 -17 78.5 -52.5t26.5 -88.5q0 -74 -25.5 -130t-72.5 -87t-108 -31q-32 0 -55 8.5t-23 21.5q0 6 3.5 15t8.5 14q26 -19 81 -19q40 0 72.5 27t51.5 73.5t19 103.5q0 122 -155 122
l7 42q79 5 120.5 50.5t41.5 128.5q0 46 -26.5 68.5t-79.5 22.5q-58 0 -96 -35t-49 -101l-108 -614q-4 -27 -19.5 -41t-40.5 -14z" />
    <glyph glyph-name="t" unicode="t" horiz-adv-x="360" 
d="M128 16.5q-27 25.5 -27 70.5q0 13 3 28l60 341h-84q4 21 18 32.5t36 11.5h38l19 109q4 23 18.5 36.5t36.5 13.5l-28 -159h133q-4 -20 -18 -32t-34 -12h-89l-60 -340q-3 -16 -3 -30q0 -28 15.5 -40.5t49.5 -12.5q30 0 64 18q1 -2 1 -10q0 -22 -21 -36t-53 -14
q-48 0 -75 25.5z" />
    <glyph glyph-name="tbar" unicode="&#x167;" horiz-adv-x="360" 
d="M210 456l-30 -169h124q-8 -43 -57 -43h-74l-23 -128q-3 -16 -3 -30q0 -28 15.5 -40.5t49.5 -12.5q30 0 64 18q1 -2 1 -10q0 -22 -21 -36t-53 -14q-48 0 -75 25.5t-27 70.5q0 13 3 28l23 129h-82q4 24 18.5 33.5t38.5 9.5h32l30 169h-84q4 21 18 32.5t36 11.5h38l19 109
q4 23 18.5 36.5t36.5 13.5l-28 -159h133q-4 -20 -18 -32t-34 -12h-89z" />
    <glyph glyph-name="tcaron" unicode="&#x165;" horiz-adv-x="494" 
d="M128 16.5q-27 25.5 -27 70.5q0 13 3 28l60 341h-84q4 21 18 32.5t36 11.5h38l19 109q4 23 18.5 36.5t36.5 13.5l-28 -159h133q-4 -20 -18 -32t-34 -12h-89l-60 -340q-3 -16 -3 -30q0 -28 15.5 -40.5t49.5 -12.5q30 0 64 18q1 -2 1 -10q0 -22 -21 -36t-53 -14
q-48 0 -75 25.5zM480.5 598q20.5 32 25.5 62q-4 -1 -10.5 -2.5t-11.5 -1.5q-20 0 -30.5 10t-10.5 28q0 26 18.5 45.5t43.5 19.5q20 0 33 -13t13 -33q0 -47 -28.5 -95.5t-67.5 -81.5q-5 -3 -12 -3q-11 0 -15 4q32 29 52.5 61z" />
    <glyph glyph-name="uni0163" unicode="&#x163;" horiz-adv-x="360" 
d="M351 500q-4 -20 -18 -32t-34 -12h-89l-60 -340q-3 -16 -3 -30q0 -28 15.5 -40.5t49.5 -12.5q30 0 64 18q1 -2 1 -10q0 -22 -21 -36t-53 -14h-1l-34 -39q37 0 56 -17t19 -44q0 -40 -30 -67t-75 -27q-32 0 -51.5 14t-19.5 32q0 10 10 23q10 -15 26 -24t35 -9q25 0 40 14
t15 37q0 15 -11 23.5t-27 8.5q-6 0 -14.5 -1.5t-15.5 -4.5q-1 -1 -4 -1q-5 0 -9 4t-4 10q0 7 5 13l50 60q-30 10 -45.5 33t-15.5 58q0 18 2 28l60 341h-84q4 21 18 32.5t36 11.5h38l19 109q4 23 18.5 36.5t36.5 13.5l-28 -159h133z" />
    <glyph glyph-name="uni021B" unicode="&#x21b;" horiz-adv-x="360" 
d="M128 16.5q-27 25.5 -27 70.5q0 13 3 28l60 341h-84q4 21 18 32.5t36 11.5h38l19 109q4 23 18.5 36.5t36.5 13.5l-28 -159h133q-4 -20 -18 -32t-34 -12h-89l-60 -340q-3 -16 -3 -30q0 -28 15.5 -40.5t49.5 -12.5q30 0 64 18q1 -2 1 -10q0 -22 -21 -36t-53 -14
q-48 0 -75 25.5zM150 -213q20 32 25 62q-4 -1 -10.5 -2.5t-11.5 -1.5q-20 0 -30.5 10t-10.5 28q0 26 18.5 45.5t43.5 19.5q20 0 33 -13t13 -33q0 -48 -28.5 -95.5t-67.5 -81.5q-4 -4 -12 -4q-9 0 -15 4q33 30 53 62z" />
    <glyph glyph-name="uni1E97" unicode="&#x1e97;" horiz-adv-x="360" 
d="M128 16.5q-27 25.5 -27 70.5q0 13 3 28l60 341h-84q4 21 18 32.5t36 11.5h38l19 109q4 23 18.5 36.5t36.5 13.5l-28 -159h133q-4 -20 -18 -32t-34 -12h-89l-60 -340q-3 -16 -3 -30q0 -28 15.5 -40.5t49.5 -12.5q30 0 64 18q1 -2 1 -10q0 -22 -21 -36t-53 -14
q-48 0 -75 25.5zM134 757.5q-9 8.5 -9 22.5q0 20 14 34t34 14q15 0 23.5 -9t8.5 -23q0 -19 -13.5 -33t-32.5 -14q-16 0 -25 8.5zM311 757.5q-9 8.5 -9 22.5q0 20 14 34t34 14q15 0 23.5 -9t8.5 -23q0 -19 -13.5 -33t-32.5 -14q-16 0 -25 8.5z" />
    <glyph glyph-name="uni1E6D" unicode="&#x1e6d;" horiz-adv-x="360" 
d="M128 16.5q-27 25.5 -27 70.5q0 13 3 28l60 341h-84q4 21 18 32.5t36 11.5h38l19 109q4 23 18.5 36.5t36.5 13.5l-28 -159h133q-4 -20 -18 -32t-34 -12h-89l-60 -340q-3 -16 -3 -30q0 -28 15.5 -40.5t49.5 -12.5q30 0 64 18q1 -2 1 -10q0 -22 -21 -36t-53 -14
q-48 0 -75 25.5zM133 -151.5q-9 8.5 -9 22.5q0 20 14 34t34 14q15 0 23.5 -9t8.5 -23q0 -19 -13.5 -33t-32.5 -14q-16 0 -25 8.5z" />
    <glyph glyph-name="uni1E6F" unicode="&#x1e6f;" horiz-adv-x="360" 
d="M128 16.5q-27 25.5 -27 70.5q0 13 3 28l60 341h-84q4 21 18 32.5t36 11.5h38l19 109q4 23 18.5 36.5t36.5 13.5l-28 -159h133q-4 -20 -18 -32t-34 -12h-89l-60 -340q-3 -16 -3 -30q0 -28 15.5 -40.5t49.5 -12.5q30 0 64 18q1 -2 1 -10q0 -22 -21 -36t-53 -14
q-48 0 -75 25.5zM44.5 -73.5q15.5 11.5 37.5 11.5h236q-4 -21 -20 -32.5t-38 -11.5h-235q4 21 19.5 32.5z" />
    <glyph glyph-name="u" unicode="u" horiz-adv-x="542" 
d="M424 40q-9 -49 -54 -49l13 69q14 11 21 20l-1 5q-42 -44 -94.5 -69t-102.5 -25q-73 0 -114.5 36t-41.5 99q0 12 4 38l52 295q9 50 55 50l-61 -346q-3 -18 -3 -34q0 -96 117 -96q41 0 81.5 17.5t69 46t33.5 58.5l54 304q9 50 55 50z" />
    <glyph glyph-name="uacute" unicode="&#xfa;" horiz-adv-x="542" 
d="M424 40q-9 -49 -54 -49l13 69q14 11 21 20l-1 5q-42 -44 -94.5 -69t-102.5 -25q-73 0 -114.5 36t-41.5 99q0 12 4 38l52 295q9 50 55 50l-61 -346q-3 -18 -3 -34q0 -96 117 -96q41 0 81.5 17.5t69 46t33.5 58.5l54 304q9 50 55 50zM387 703q9 12 22 18t41 6h28l-135 -140
q-9 -9 -17.5 -12t-34.5 -3z" />
    <glyph glyph-name="ubreve" unicode="&#x16d;" horiz-adv-x="542" 
d="M424 40q-9 -49 -54 -49l13 69q14 11 21 20l-1 5q-42 -44 -94.5 -69t-102.5 -25q-73 0 -114.5 36t-41.5 99q0 12 4 38l52 295q9 50 55 50l-61 -346q-3 -18 -3 -34q0 -96 117 -96q41 0 81.5 17.5t69 46t33.5 58.5l54 304q9 50 55 50zM259 584q-28 12 -46.5 35.5t-18.5 55.5
q0 30 14 45.5t38 15.5q-3 -19 -3 -37q0 -82 81 -82q101 0 121 119q18 0 27.5 -9t9.5 -23q0 -32 -24.5 -62.5t-63 -50t-78.5 -19.5q-29 0 -57 12z" />
    <glyph glyph-name="uni01D4" unicode="&#x1d4;" horiz-adv-x="542" 
d="M424 40q-9 -49 -54 -49l13 69q14 11 21 20l-1 5q-42 -44 -94.5 -69t-102.5 -25q-73 0 -114.5 36t-41.5 99q0 12 4 38l52 295q9 50 55 50l-61 -346q-3 -18 -3 -34q0 -96 117 -96q41 0 81.5 17.5t69 46t33.5 58.5l54 304q9 50 55 50zM424 715q12 12 31 12q16 0 29 -10
l-151 -134q-7 -7 -17 -7t-15 7l-103 134q16 10 33 10q18 0 27 -12l66 -96z" />
    <glyph glyph-name="ucircumflex" unicode="&#xfb;" horiz-adv-x="542" 
d="M424 40q-9 -49 -54 -49l13 69q14 11 21 20l-1 5q-42 -44 -94.5 -69t-102.5 -25q-73 0 -114.5 36t-41.5 99q0 12 4 38l52 295q9 50 55 50l-61 -346q-3 -18 -3 -34q0 -96 117 -96q41 0 81.5 17.5t69 46t33.5 58.5l54 304q9 50 55 50zM205 577q-18 0 -29 10l151 133
q7 7 17 7q9 0 14 -7l104 -133q-17 -11 -33 -11q-20 0 -27 12l-66 96l-100 -96q-11 -11 -31 -11z" />
    <glyph glyph-name="udieresis" unicode="&#xfc;" horiz-adv-x="542" 
d="M424 40q-9 -49 -54 -49l13 69q14 11 21 20l-1 5q-42 -44 -94.5 -69t-102.5 -25q-73 0 -114.5 36t-41.5 99q0 12 4 38l52 295q9 50 55 50l-61 -346q-3 -18 -3 -34q0 -96 117 -96q41 0 81.5 17.5t69 46t33.5 58.5l54 304q9 50 55 50zM206 598.5q-9 8.5 -9 22.5q0 20 14 34
t34 14q15 0 23.5 -9t8.5 -23q0 -19 -13.5 -33t-32.5 -14q-16 0 -25 8.5zM383 598.5q-9 8.5 -9 22.5q0 20 14 34t34 14q15 0 23.5 -9t8.5 -23q0 -19 -13.5 -33t-32.5 -14q-16 0 -25 8.5z" />
    <glyph glyph-name="uni01D8" unicode="&#x1d8;" horiz-adv-x="542" 
d="M424 40q-9 -49 -54 -49l13 69q14 11 21 20l-1 5q-42 -44 -94.5 -69t-102.5 -25q-73 0 -114.5 36t-41.5 99q0 12 4 38l52 295q9 50 55 50l-61 -346q-3 -18 -3 -34q0 -96 117 -96q41 0 81.5 17.5t69 46t33.5 58.5l54 304q9 50 55 50zM389 802q10 13 23.5 19t38.5 6h20
l-106 -105q-10 -9 -19.5 -12t-28.5 -4zM204 598.5q-9 8.5 -9 22.5q0 20 14 34t34 14q15 0 23.5 -9t8.5 -23q0 -19 -13.5 -33t-32.5 -14q-16 0 -25 8.5zM381 598.5q-9 8.5 -9 22.5q0 20 14 34t34 14q15 0 23.5 -9t8.5 -23q0 -19 -13.5 -33t-32.5 -14q-16 0 -25 8.5z" />
    <glyph glyph-name="uni01DA" unicode="&#x1da;" horiz-adv-x="542" 
d="M424 40q-9 -49 -54 -49l13 69q14 11 21 20l-1 5q-42 -44 -94.5 -69t-102.5 -25q-73 0 -114.5 36t-41.5 99q0 12 4 38l52 295q9 50 55 50l-61 -346q-3 -18 -3 -34q0 -96 117 -96q41 0 81.5 17.5t69 46t33.5 58.5l54 304q9 50 55 50zM438 817q12 12 31 12q18 0 29 -10
l-146 -130q-8 -7 -17 -7t-15 7l-100 130q18 10 34 10q18 0 27 -12l62 -92zM205 598.5q-9 8.5 -9 22.5q0 20 14 34t34 14q15 0 24 -9t9 -23q0 -19 -13.5 -33t-33.5 -14q-16 0 -25 8.5zM382.5 599q-9.5 9 -9.5 23q0 19 14.5 33t34.5 14q15 0 23.5 -9t8.5 -23q0 -19 -13.5 -33
t-32.5 -14q-16 0 -25.5 9z" />
    <glyph glyph-name="uni01DC" unicode="&#x1dc;" horiz-adv-x="542" 
d="M424 40q-9 -49 -54 -49l13 69q14 11 21 20l-1 5q-42 -44 -94.5 -69t-102.5 -25q-73 0 -114.5 36t-41.5 99q0 12 4 38l52 295q9 50 55 50l-61 -346q-3 -18 -3 -34q0 -96 117 -96q41 0 81.5 17.5t69 46t33.5 58.5l54 304q9 50 55 50zM332 710q-6 2 -13 12l-68 105h19
q24 0 35.5 -6t16.5 -19l39 -96q-23 2 -29 4zM205 598.5q-9 8.5 -9 22.5q0 20 14 34t34 14q15 0 23.5 -9t8.5 -23q0 -19 -13.5 -33t-32.5 -14q-16 0 -25 8.5zM382 598.5q-9 8.5 -9 22.5q0 20 14 34t34 14q15 0 23.5 -9t8.5 -23q0 -19 -13.5 -33t-32.5 -14q-16 0 -25 8.5z" />
    <glyph glyph-name="uni01D6" unicode="&#x1d6;" horiz-adv-x="542" 
d="M424 40q-9 -49 -54 -49l13 69q14 11 21 20l-1 5q-42 -44 -94.5 -69t-102.5 -25q-73 0 -114.5 36t-41.5 99q0 12 4 38l52 295q9 50 55 50l-61 -346q-3 -18 -3 -34q0 -96 117 -96q41 0 81.5 17.5t69 46t33.5 58.5l54 304q9 50 55 50zM206 598.5q-9 8.5 -9 22.5q0 20 14 34
t34 14q15 0 23.5 -9t8.5 -23q0 -19 -13.5 -33t-32.5 -14q-16 0 -25 8.5zM383 598.5q-9 8.5 -9 22.5q0 20 14 34t34 14q15 0 23.5 -9t8.5 -23q0 -19 -13.5 -33t-32.5 -14q-16 0 -25 8.5zM222.5 768.5q15.5 11.5 37.5 11.5h236q-4 -21 -19.5 -32.5t-38.5 -11.5h-235
q4 21 19.5 32.5z" />
    <glyph glyph-name="uni1EE5" unicode="&#x1ee5;" horiz-adv-x="542" 
d="M424 40q-9 -49 -54 -49l13 69q14 11 21 20l-1 5q-42 -44 -94.5 -69t-102.5 -25q-73 0 -114.5 36t-41.5 99q0 12 4 38l52 295q9 50 55 50l-61 -346q-3 -18 -3 -34q0 -96 117 -96q41 0 81.5 17.5t69 46t33.5 58.5l54 304q9 50 55 50zM174 -151.5q-9 8.5 -9 22.5q0 20 14 34
t34 14q15 0 23.5 -9t8.5 -23q0 -19 -13.5 -33t-32.5 -14q-16 0 -25 8.5z" />
    <glyph glyph-name="ugrave" unicode="&#xf9;" horiz-adv-x="542" 
d="M424 40q-9 -49 -54 -49l13 69q14 11 21 20l-1 5q-42 -44 -94.5 -69t-102.5 -25q-73 0 -114.5 36t-41.5 99q0 12 4 38l52 295q9 50 55 50l-61 -346q-3 -18 -3 -34q0 -96 117 -96q41 0 81.5 17.5t69 46t33.5 58.5l54 304q9 50 55 50zM315.5 575q-7.5 3 -13.5 12l-88 141h28
q23 0 36 -5t19 -19l51 -132q-25 0 -32.5 3z" />
    <glyph glyph-name="uni1EE7" unicode="&#x1ee7;" horiz-adv-x="542" 
d="M424 40q-9 -49 -54 -49l13 69q14 11 21 20l-1 5q-42 -44 -94.5 -69t-102.5 -25q-73 0 -114.5 36t-41.5 99q0 12 4 38l52 295q9 50 55 50l-61 -346q-3 -18 -3 -34q0 -96 117 -96q41 0 81.5 17.5t69 46t33.5 58.5l54 304q9 50 55 50zM302 597q4 19 13.5 31t25.5 25
q15 12 22 21t7 24q0 11 -7.5 17t-22.5 6q-20 0 -33 -14t-13 -36v-5q-17 0 -26.5 6.5t-9.5 18.5q0 25 28 45.5t62 20.5q27 0 46 -14t19 -39q0 -26 -10 -39t-30 -28q-15 -11 -22.5 -19t-9.5 -21q-4 -22 -27 -22q-4 0 -16 2z" />
    <glyph glyph-name="uhorn" unicode="&#x1b0;" horiz-adv-x="542" 
d="M564 453.5q-28 -36.5 -77 -57.5l-63 -356q-9 -49 -54 -49l13 69q14 11 21 20l-1 5q-42 -44 -94.5 -69t-102.5 -25q-73 0 -114.5 36t-41.5 99q0 12 4 38l52 295q9 50 55 50l-61 -346q-3 -18 -3 -34q0 -96 117 -96q41 0 81.5 17.5t69 46t33.5 58.5l54 304q9 50 55 50
l-13 -76q26 20 38.5 49t22.5 82q37 0 37 -35q0 -39 -28 -75.5z" />
    <glyph glyph-name="uni1EE9" unicode="&#x1ee9;" horiz-adv-x="542" 
d="M564 453.5q-28 -36.5 -77 -57.5l-63 -356q-9 -49 -54 -49l13 69q14 11 21 20l-1 5q-42 -44 -94.5 -69t-102.5 -25q-73 0 -114.5 36t-41.5 99q0 12 4 38l52 295q9 50 55 50l-61 -346q-3 -18 -3 -34q0 -96 117 -96q41 0 81.5 17.5t69 46t33.5 58.5l54 304q9 50 55 50
l-13 -76q26 20 38.5 49t22.5 82q37 0 37 -35q0 -39 -28 -75.5zM404 703q9 12 22 18t41 6h28l-135 -140q-9 -9 -17.5 -12t-34.5 -3z" />
    <glyph glyph-name="uni1EF1" unicode="&#x1ef1;" horiz-adv-x="542" 
d="M564 453.5q-28 -36.5 -77 -57.5l-63 -356q-9 -49 -54 -49l13 69q14 11 21 20l-1 5q-42 -44 -94.5 -69t-102.5 -25q-73 0 -114.5 36t-41.5 99q0 12 4 38l52 295q9 50 55 50l-61 -346q-3 -18 -3 -34q0 -96 117 -96q41 0 81.5 17.5t69 46t33.5 58.5l54 304q9 50 55 50
l-13 -76q26 20 38.5 49t22.5 82q37 0 37 -35q0 -39 -28 -75.5zM177 -151.5q-9 8.5 -9 22.5q0 20 14 34t34 14q15 0 23.5 -9t8.5 -23q0 -19 -13.5 -33t-32.5 -14q-16 0 -25 8.5z" />
    <glyph glyph-name="uni1EEB" unicode="&#x1eeb;" horiz-adv-x="542" 
d="M564 453.5q-28 -36.5 -77 -57.5l-63 -356q-9 -49 -54 -49l13 69q14 11 21 20l-1 5q-42 -44 -94.5 -69t-102.5 -25q-73 0 -114.5 36t-41.5 99q0 12 4 38l52 295q9 50 55 50l-61 -346q-3 -18 -3 -34q0 -96 117 -96q41 0 81.5 17.5t69 46t33.5 58.5l54 304q9 50 55 50
l-13 -76q26 20 38.5 49t22.5 82q37 0 37 -35q0 -39 -28 -75.5zM332.5 575q-7.5 3 -13.5 12l-88 141h28q23 0 36 -5t19 -19l51 -132q-25 0 -32.5 3z" />
    <glyph glyph-name="uni1EED" unicode="&#x1eed;" horiz-adv-x="542" 
d="M564 453.5q-28 -36.5 -77 -57.5l-63 -356q-9 -49 -54 -49l13 69q14 11 21 20l-1 5q-42 -44 -94.5 -69t-102.5 -25q-73 0 -114.5 36t-41.5 99q0 12 4 38l52 295q9 50 55 50l-61 -346q-3 -18 -3 -34q0 -96 117 -96q41 0 81.5 17.5t69 46t33.5 58.5l54 304q9 50 55 50
l-13 -76q26 20 38.5 49t22.5 82q37 0 37 -35q0 -39 -28 -75.5zM319 597q4 19 13.5 31t25.5 25q15 12 22 21t7 24q0 11 -7.5 17t-22.5 6q-20 0 -33 -14t-13 -36v-5q-17 0 -26.5 6.5t-9.5 18.5q0 25 28 45.5t62 20.5q27 0 46 -14t19 -39q0 -26 -10 -39t-30 -28
q-15 -11 -22.5 -19t-9.5 -21q-4 -22 -27 -22q-4 0 -16 2z" />
    <glyph glyph-name="uni1EEF" unicode="&#x1eef;" horiz-adv-x="542" 
d="M564 453.5q-28 -36.5 -77 -57.5l-63 -356q-9 -49 -54 -49l13 69q14 11 21 20l-1 5q-42 -44 -94.5 -69t-102.5 -25q-73 0 -114.5 36t-41.5 99q0 12 4 38l52 295q9 50 55 50l-61 -346q-3 -18 -3 -34q0 -96 117 -96q41 0 81.5 17.5t69 46t33.5 58.5l54 304q9 50 55 50
l-13 -76q26 20 38.5 49t22.5 82q37 0 37 -35q0 -39 -28 -75.5zM214 587q-7 8 -7 19q0 28 24 48.5t58 20.5q21 0 36 -9t34 -27q14 -13 24 -19.5t21 -6.5q18 0 28 11.5t10 31.5q0 8 -2 16q8 3 14 3q10 0 16.5 -8t6.5 -20q0 -28 -24 -48t-57 -20q-22 0 -37.5 9t-35.5 27
q-14 13 -23 19t-20 6q-16 0 -27 -10.5t-11 -29.5q0 -10 3 -19q-6 -2 -14 -2q-10 0 -17 8z" />
    <glyph glyph-name="uhungarumlaut" unicode="&#x171;" horiz-adv-x="542" 
d="M424 40q-9 -49 -54 -49l13 69q14 11 21 20l-1 5q-42 -44 -94.5 -69t-102.5 -25q-73 0 -114.5 36t-41.5 99q0 12 4 38l52 295q9 50 55 50l-61 -346q-3 -18 -3 -34q0 -96 117 -96q41 0 81.5 17.5t69 46t33.5 58.5l54 304q9 50 55 50zM294 704q9 12 22 18t40 6h29l-137 -141
q-9 -9 -19 -12t-34 -3zM471 704q10 13 24.5 18.5t38.5 5.5h30l-139 -141q-9 -9 -18 -12t-35 -3z" />
    <glyph glyph-name="umacron" unicode="&#x16b;" horiz-adv-x="542" 
d="M424 40q-9 -49 -54 -49l13 69q14 11 21 20l-1 5q-42 -44 -94.5 -69t-102.5 -25q-73 0 -114.5 36t-41.5 99q0 12 4 38l52 295q9 50 55 50l-61 -346q-3 -18 -3 -34q0 -96 117 -96q41 0 81.5 17.5t69 46t33.5 58.5l54 304q9 50 55 50zM198.5 632.5q15.5 11.5 37.5 11.5h236
q-4 -21 -19.5 -32.5t-38.5 -11.5h-235q4 21 19.5 32.5z" />
    <glyph glyph-name="uogonek" unicode="&#x173;" horiz-adv-x="542" 
d="M507 509l-83 -469q-6 -35 -31 -45q-38 -28 -61 -62.5t-23 -64.5q0 -34 34 -34q24 0 39 18q2 -9 1 -12q-4 -12 -21.5 -23t-38.5 -11q-29 0 -45.5 16t-16.5 41q0 33 31 70t79 61l12 66q14 11 21 20l-1 5q-42 -44 -94.5 -69t-102.5 -25q-73 0 -114.5 36t-41.5 99q0 12 4 38
l52 295q9 50 55 50l-61 -346q-3 -18 -3 -34q0 -96 117 -96q41 0 81.5 17.5t69 46t33.5 58.5l54 304q9 50 55 50z" />
    <glyph glyph-name="uring" unicode="&#x16f;" horiz-adv-x="542" 
d="M424 40q-9 -49 -54 -49l13 69q14 11 21 20l-1 5q-42 -44 -94.5 -69t-102.5 -25q-73 0 -114.5 36t-41.5 99q0 12 4 38l52 295q9 50 55 50l-61 -346q-3 -18 -3 -34q0 -96 117 -96q41 0 81.5 17.5t69 46t33.5 58.5l54 304q9 50 55 50zM254 564q-21 19 -21 50q0 43 31.5 72.5
t76.5 29.5q34 0 54.5 -19t20.5 -50q0 -43 -30.5 -72.5t-74.5 -29.5q-36 0 -57 19zM361 596q19 19 19 45q0 20 -12.5 32t-32.5 12q-26 0 -45 -19t-19 -47q0 -19 12.5 -30.5t32.5 -11.5q26 0 45 19z" />
    <glyph glyph-name="utilde" unicode="&#x169;" horiz-adv-x="542" 
d="M424 40q-9 -49 -54 -49l13 69q14 11 21 20l-1 5q-42 -44 -94.5 -69t-102.5 -25q-73 0 -114.5 36t-41.5 99q0 12 4 38l52 295q9 50 55 50l-61 -346q-3 -18 -3 -34q0 -96 117 -96q41 0 81.5 17.5t69 46t33.5 58.5l54 304q9 50 55 50zM197 587q-7 8 -7 19q0 28 24 48.5
t58 20.5q21 0 36 -9t34 -27q14 -13 24 -19.5t21 -6.5q18 0 28 11.5t10 31.5q0 8 -2 16q8 3 14 3q10 0 16.5 -8t6.5 -20q0 -28 -24 -48t-57 -20q-22 0 -37.5 9t-35.5 27q-14 13 -23 19t-20 6q-16 0 -27 -10.5t-11 -29.5q0 -10 3 -19q-6 -2 -14 -2q-10 0 -17 8z" />
    <glyph glyph-name="v" unicode="v" horiz-adv-x="556" 
d="M221.5 -5.5q-5.5 3.5 -6.5 9.5l-116 500q10 5 20 5q26 0 32 -29l89 -408l-19 -33l4 -2l254 443q9 16 19 22.5t24 6.5q15 0 23 -5l-292 -500q-1 -4 -8.5 -8.5t-11.5 -4.5q-6 0 -11.5 3.5z" />
    <glyph glyph-name="w" unicode="w" horiz-adv-x="735" 
d="M166.5 0.5q-10.5 9.5 -12.5 26.5l-55 478q11 4 20 4q15 0 21.5 -6.5t8.5 -22.5l41 -400l-13 -28l4 -2l208 442q8 17 24 17q7 0 12 -5t6 -12l47 -411l-12 -28l3 -2l196 429q8 16 17 22.5t24 6.5q7 0 18 -4l-224 -478q-9 -19 -19.5 -27.5t-25.5 -8.5l-57 464l-3 -1l3 -28
l-205 -435q-16 0 -26.5 9.5z" />
    <glyph glyph-name="wacute" unicode="&#x1e83;" horiz-adv-x="735" 
d="M166.5 0.5q-10.5 9.5 -12.5 26.5l-55 478q11 4 20 4q15 0 21.5 -6.5t8.5 -22.5l41 -400l-13 -28l4 -2l208 442q8 17 24 17q7 0 12 -5t6 -12l47 -411l-12 -28l3 -2l196 429q8 16 17 22.5t24 6.5q7 0 18 -4l-224 -478q-9 -19 -19.5 -27.5t-25.5 -8.5l-57 464l-3 -1l3 -28
l-205 -435q-16 0 -26.5 9.5zM496 703q9 12 22 18t41 6h28l-135 -140q-9 -9 -17.5 -12t-34.5 -3z" />
    <glyph glyph-name="wcircumflex" unicode="&#x175;" horiz-adv-x="735" 
d="M166.5 0.5q-10.5 9.5 -12.5 26.5l-55 478q11 4 20 4q15 0 21.5 -6.5t8.5 -22.5l41 -400l-13 -28l4 -2l208 442q8 17 24 17q7 0 12 -5t6 -12l47 -411l-12 -28l3 -2l196 429q8 16 17 22.5t24 6.5q7 0 18 -4l-224 -478q-9 -19 -19.5 -27.5t-25.5 -8.5l-57 464l-3 -1l3 -28
l-205 -435q-16 0 -26.5 9.5zM314 577q-18 0 -29 10l151 133q7 7 17 7q9 0 14 -7l104 -133q-17 -11 -33 -11q-20 0 -27 12l-66 96l-100 -96q-11 -11 -31 -11z" />
    <glyph glyph-name="wdieresis" unicode="&#x1e85;" horiz-adv-x="735" 
d="M166.5 0.5q-10.5 9.5 -12.5 26.5l-55 478q11 4 20 4q15 0 21.5 -6.5t8.5 -22.5l41 -400l-13 -28l4 -2l208 442q8 17 24 17q7 0 12 -5t6 -12l47 -411l-12 -28l3 -2l196 429q8 16 17 22.5t24 6.5q7 0 18 -4l-224 -478q-9 -19 -19.5 -27.5t-25.5 -8.5l-57 464l-3 -1l3 -28
l-205 -435q-16 0 -26.5 9.5zM315 598.5q-9 8.5 -9 22.5q0 20 14 34t34 14q15 0 23.5 -9t8.5 -23q0 -19 -13.5 -33t-32.5 -14q-16 0 -25 8.5zM492 598.5q-9 8.5 -9 22.5q0 20 14 34t34 14q15 0 23.5 -9t8.5 -23q0 -19 -13.5 -33t-32.5 -14q-16 0 -25 8.5z" />
    <glyph glyph-name="wgrave" unicode="&#x1e81;" horiz-adv-x="735" 
d="M166.5 0.5q-10.5 9.5 -12.5 26.5l-55 478q11 4 20 4q15 0 21.5 -6.5t8.5 -22.5l41 -400l-13 -28l4 -2l208 442q8 17 24 17q7 0 12 -5t6 -12l47 -411l-12 -28l3 -2l196 429q8 16 17 22.5t24 6.5q7 0 18 -4l-224 -478q-9 -19 -19.5 -27.5t-25.5 -8.5l-57 464l-3 -1l3 -28
l-205 -435q-16 0 -26.5 9.5zM424.5 575q-7.5 3 -13.5 12l-88 141h28q23 0 36 -5t19 -19l51 -132q-25 0 -32.5 3z" />
    <glyph glyph-name="x" unicode="x" horiz-adv-x="546" 
d="M11 3l238 265l-126 230q10 6 16 8.5t12 2.5q8 0 16 -6t13 -16l97 -179l-22 -24l3 -2l183 205q20 22 39 22q16 0 30 -11l-207 -230l144 -265q-17 -12 -26 -12q-18 0 -31 22l-118 219l-194 -220q-18 -21 -37 -21q-16 0 -30 12z" />
    <glyph glyph-name="y" unicode="y" horiz-adv-x="556" 
d="M-20 -171q8 -2 34 -2q50 0 88 30t79 102l32 55l-113 490q15 5 21 5q11 0 19.5 -8t11.5 -21l88 -407l-19 -33l4 -1l254 441q9 16 18.5 22.5t22.5 6.5q15 0 25 -5l-326 -558q-46 -80 -94.5 -117t-107.5 -37q-39 0 -37 37z" />
    <glyph glyph-name="yacute" unicode="&#xfd;" horiz-adv-x="556" 
d="M-20 -171q8 -2 34 -2q50 0 88 30t79 102l32 55l-113 490q15 5 21 5q11 0 19.5 -8t11.5 -21l88 -407l-19 -33l4 -1l254 441q9 16 18.5 22.5t22.5 6.5q15 0 25 -5l-326 -558q-46 -80 -94.5 -117t-107.5 -37q-39 0 -37 37zM396 703q9 12 22 18t41 6h28l-135 -140
q-9 -9 -17.5 -12t-34.5 -3z" />
    <glyph glyph-name="ycircumflex" unicode="&#x177;" horiz-adv-x="556" 
d="M-20 -171q8 -2 34 -2q50 0 88 30t79 102l32 55l-113 490q15 5 21 5q11 0 19.5 -8t11.5 -21l88 -407l-19 -33l4 -1l254 441q9 16 18.5 22.5t22.5 6.5q15 0 25 -5l-326 -558q-46 -80 -94.5 -117t-107.5 -37q-39 0 -37 37zM214 577q-18 0 -29 10l151 133q7 7 17 7q9 0 14 -7
l104 -133q-17 -11 -33 -11q-20 0 -27 12l-66 96l-100 -96q-11 -11 -31 -11z" />
    <glyph glyph-name="ydieresis" unicode="&#xff;" horiz-adv-x="556" 
d="M-20 -171q8 -2 34 -2q50 0 88 30t79 102l32 55l-113 490q15 5 21 5q11 0 19.5 -8t11.5 -21l88 -407l-19 -33l4 -1l254 441q9 16 18.5 22.5t22.5 6.5q15 0 25 -5l-326 -558q-46 -80 -94.5 -117t-107.5 -37q-39 0 -37 37zM215 598.5q-9 8.5 -9 22.5q0 20 14 34t34 14
q15 0 23.5 -9t8.5 -23q0 -19 -13.5 -33t-32.5 -14q-16 0 -25 8.5zM392 598.5q-9 8.5 -9 22.5q0 20 14 34t34 14q15 0 23.5 -9t8.5 -23q0 -19 -13.5 -33t-32.5 -14q-16 0 -25 8.5z" />
    <glyph glyph-name="uni1E8F" unicode="&#x1e8f;" horiz-adv-x="556" 
d="M-20 -171q8 -2 34 -2q50 0 88 30t79 102l32 55l-113 490q15 5 21 5q11 0 19.5 -8t11.5 -21l88 -407l-19 -33l4 -1l254 441q9 16 18.5 22.5t22.5 6.5q15 0 25 -5l-326 -558q-46 -80 -94.5 -117t-107.5 -37q-39 0 -37 37zM304 598.5q-9 8.5 -9 22.5q0 20 14 34t34 14
q15 0 23.5 -9t8.5 -23q0 -19 -13.5 -33t-32.5 -14q-16 0 -25 8.5z" />
    <glyph glyph-name="uni1EF5" unicode="&#x1ef5;" horiz-adv-x="556" 
d="M-20 -171q8 -2 34 -2q50 0 88 30t79 102l32 55l-113 490q15 5 21 5q11 0 19.5 -8t11.5 -21l88 -407l-19 -33l4 -1l254 441q9 16 18.5 22.5t22.5 6.5q15 0 25 -5l-326 -558q-46 -80 -94.5 -117t-107.5 -37q-39 0 -37 37zM288 -151.5q-9 8.5 -9 22.5q0 20 14 34t34 14
q15 0 23.5 -9t8.5 -23q0 -19 -13.5 -33t-32.5 -14q-16 0 -25 8.5z" />
    <glyph glyph-name="ygrave" unicode="&#x1ef3;" horiz-adv-x="556" 
d="M-20 -171q8 -2 34 -2q50 0 88 30t79 102l32 55l-113 490q15 5 21 5q11 0 19.5 -8t11.5 -21l88 -407l-19 -33l4 -1l254 441q9 16 18.5 22.5t22.5 6.5q15 0 25 -5l-326 -558q-46 -80 -94.5 -117t-107.5 -37q-39 0 -37 37zM324.5 575q-7.5 3 -13.5 12l-88 141h28q23 0 36 -5
t19 -19l51 -132q-25 0 -32.5 3z" />
    <glyph glyph-name="uni1EF7" unicode="&#x1ef7;" horiz-adv-x="556" 
d="M-20 -171q8 -2 34 -2q50 0 88 30t79 102l32 55l-113 490q15 5 21 5q11 0 19.5 -8t11.5 -21l88 -407l-19 -33l4 -1l254 441q9 16 18.5 22.5t22.5 6.5q15 0 25 -5l-326 -558q-46 -80 -94.5 -117t-107.5 -37q-39 0 -37 37zM311 597q4 19 13.5 31t25.5 25q15 12 22 21t7 24
q0 11 -7.5 17t-22.5 6q-20 0 -33 -14t-13 -36v-5q-17 0 -26.5 6.5t-9.5 18.5q0 25 28 45.5t62 20.5q27 0 46 -14t19 -39q0 -26 -10 -39t-30 -28q-15 -11 -22.5 -19t-9.5 -21q-4 -22 -27 -22q-4 0 -16 2z" />
    </font>
</defs>
</svg>
